<svg width="55" height="49" viewBox="0 0 55 49" fill="none" xmlns="http://www.w3.org/2000/svg">
<path id="Vector" d="M3.34631 26.3783C3.19712 25.3566 3.11321 24.3166 3.11321 23.2583C3.11321 17.8668 5.14584 12.9406 8.50249 9.17294M22.9827 44.6145C14.2647 43.8208 7.02929 38.0279 4.28803 30.2007M44.5398 33.0926C41.5188 38.8125 35.9524 43.0272 29.3043 44.3043M46.9454 22.2548C46.964 22.5924 46.964 22.9208 46.964 23.2583C46.964 24.8913 46.7775 26.4695 46.4232 28.0021M38.5817 6.3814C40.0456 7.50349 41.3603 8.80803 42.4885 10.2585M12.7169 5.51475C16.2321 3.17022 20.4745 1.80182 25.0433 1.80182C28.661 1.80182 32.0643 2.65935 35.0759 4.17371M32.5771 35.9297C30.3673 37.1887 27.7939 37.9185 25.0433 37.9185C16.7729 37.9185 10.0689 31.3593 10.0689 23.2675C10.0689 22.7931 10.0876 22.3187 10.1342 21.8443M40.027 23.2583C40.027 27.2176 38.4232 30.8028 35.8218 33.4392M30.0316 9.43749C32.6796 10.3498 34.9827 11.9736 36.7169 14.0718M12.6237 15.0662C15.3183 11.1708 19.8778 8.60733 25.0433 8.60733M33.3603 21.671C33.3603 21.671 40.5398 24.9369 45.9757 22.2731C51.4116 19.6184 53.0433 12.0375 53.0433 12.0375C53.0433 12.0375 45.8638 8.77154 40.4279 11.4354C34.992 14.0901 33.3603 21.671 33.3603 21.671ZM33.3603 21.671L48.8754 13.8894M9.62137 17.1826L17.7892 21.9173M39.2997 14.3911L38.3486 18.9524L42.5724 21.3152M44.2134 12.2838L43.1971 16.8542L46.7216 18.7791M11.5235 20.3847L14.6284 19.9651L13.5934 17.0914M29.6866 23.2583C29.6866 25.7674 27.6077 27.8014 25.0433 27.8014C22.4788 27.8014 20.3999 25.7674 20.3999 23.2583C20.3999 20.7493 22.4788 18.7153 25.0433 18.7153C27.6077 18.7153 29.6866 20.7493 29.6866 23.2583ZM29.9943 9.06346C29.9943 10.3986 28.8881 11.481 27.5235 11.481C26.1588 11.481 25.0526 10.3986 25.0526 9.06346C25.0526 7.72831 26.1588 6.64596 27.5235 6.64596C28.8881 6.64596 29.9943 7.72831 29.9943 9.06346ZM5.64934 28.4035C5.64934 29.3979 4.82883 30.2098 3.80319 30.2098C2.77754 30.2098 1.95703 29.3979 1.95703 28.4035C1.95703 27.4092 2.78687 26.5972 3.80319 26.5972C4.8195 26.5972 5.64934 27.4092 5.64934 28.4035ZM38.6097 5.27756C38.6097 6.27193 37.7799 7.08385 36.7636 7.08385C35.7472 7.08385 34.9174 6.28105 34.9174 5.27756C34.9174 4.27406 35.7472 3.47127 36.7636 3.47127C37.7799 3.47127 38.6097 4.27406 38.6097 5.27756ZM36.1388 34.7073C36.1388 35.7017 35.309 36.5136 34.2927 36.5136C33.2764 36.5136 32.4465 35.7017 32.4465 34.7073C32.4465 33.7129 33.2764 32.901 34.2927 32.901C35.309 32.901 36.1388 33.7038 36.1388 34.7073ZM48.2787 30.5017C48.2787 31.9614 47.0759 33.1382 45.5841 33.1382C44.0922 33.1382 42.8894 31.9614 42.8894 30.5017C42.8894 29.0421 44.0922 27.8653 45.5841 27.8653C47.0759 27.8653 48.2787 29.0421 48.2787 30.5017ZM29.1365 45.0342C29.1365 46.6124 27.8312 47.8896 26.2181 47.8896C24.605 47.8896 23.2997 46.6124 23.2997 45.0342C23.2997 43.4559 24.605 42.1788 26.2181 42.1788C27.8312 42.1788 29.1365 43.4559 29.1365 45.0342ZM13.2298 7.22981C13.2298 8.73505 11.9803 9.95749 10.4419 9.95749C8.90342 9.95749 7.654 8.73505 7.654 7.22981C7.654 5.72457 8.90342 4.50213 10.4419 4.50213C11.9803 4.50213 13.2298 5.72457 13.2298 7.22981ZM10.675 22.045C7.73792 20.4121 7.15983 15.9876 7.15983 15.9876C7.15983 15.9876 11.3463 14.2178 14.2834 15.8599C17.2204 17.4928 17.7985 21.9173 17.7985 21.9173C17.7985 21.9173 13.612 23.6871 10.675 22.045Z" stroke="#0196BD" stroke-width="2" stroke-linecap="round" stroke-linejoin="round"/>
</svg>
