<svg width="46" height="54" viewBox="0 0 46 54" fill="none" xmlns="http://www.w3.org/2000/svg">
<path id="Vector" d="M5.83377 22.205C4.32937 26.3301 1.99805 32.5673 1.99805 37.3667C1.99805 42.9197 5.40537 52.34 5.40537 52.34M3.92089 2.05545C3.92089 2.05545 6.89981 8.1241 6.89981 15.8388M30.9005 23.7915C32.2056 27.3514 35.075 33.4101 35.075 37.3766C35.075 42.9296 31.6676 52.3499 31.6676 52.3499M32.9828 1.34149C32.9828 1.34149 29.8644 8.36209 29.3463 17.8617M18.6959 52.3499V39.7366M18.6959 39.7366L14.2524 35.6809M18.6959 39.7366L23.6575 35.6809M44.0018 26.1416C39.8173 21.7191 28.6788 24.1386 20.5689 24.3171C17.0022 24.3964 6.59096 23.8808 3.98067 19.716L5.40537 15.4124C5.40537 15.4124 6.25222 15.8487 8.29462 16.8007C9.97835 17.5841 12.499 18.3575 16.0458 18.5955C23.8866 19.1211 39.0402 17.2965 42.6966 18.5955M9.0518 22.6016L9.68943 20.8861M11.0543 22.9288L11.692 21.2233M12.9473 23.4544L13.8639 20.6283M15.0993 23.7915L15.7369 22.076M17.2513 23.7915L17.8889 22.076M19.4132 23.7915L20.3199 20.6283M21.7645 23.623L22.4021 21.9075M23.9165 23.623L24.5541 21.9075M26.0685 23.623L26.9851 20.4597" stroke="#0196BD" stroke-width="2" stroke-linecap="round" stroke-linejoin="round"/>
</svg>
