<svg width="165" height="121" viewBox="0 0 165 121" fill="none" xmlns="http://www.w3.org/2000/svg">
<g id="Frame 520">
<path id="Vector" d="M93.6839 11.8419C79.5413 11.3792 68.009 16.577 57.2935 25.8417C56.8994 26.1844 56.2368 26.3043 55.9398 25.8474C55.8218 25.6684 55.8313 25.4971 55.9684 25.3333C56.8937 24.2252 57.9161 23.2199 59.0357 22.3175C68.9172 14.3513 80.0744 10.3625 92.5072 10.3511C122.352 10.3282 145.896 35.5519 143.063 65.3164C140.904 87.9869 123.203 106.105 100.749 109.675C74.1207 113.913 49.097 97.8684 42.4598 71.6795C42.3989 71.4319 42.4903 71.272 42.734 71.1997L43.4251 70.994C43.7107 70.9103 43.8916 71.0131 43.9677 71.3025C47.7376 86.0048 57.1565 97.6057 70.7507 104.054C91.005 113.667 115.829 108.572 130.388 91.254C157.091 59.496 134.141 13.167 93.6839 11.8419Z" fill="#0196BD"/>
<path id="Vector_2" d="M82.5632 53.23C82.3323 53.0852 82.1682 52.8547 82.1072 52.5891C82.0461 52.3235 82.0931 52.0445 82.2376 51.8134L92.6903 35.0148C93.5934 33.564 94.7644 32.2996 96.1364 31.2939C97.5085 30.2882 99.0547 29.561 100.687 29.1536C102.319 28.7463 104.005 28.6668 105.648 28.9198C107.292 29.1728 108.861 29.7533 110.266 30.6281C111.671 31.5025 112.884 32.6542 113.837 34.0173C114.789 35.3805 115.462 36.9284 115.817 38.5726C116.172 40.2169 116.201 41.9253 115.905 43.6004C115.608 45.2754 114.99 46.8842 114.087 48.3349L103.629 65.1335C103.484 65.3645 103.253 65.5285 102.988 65.5895C102.722 65.6506 102.443 65.6037 102.212 65.4591L82.5632 53.23Z" fill="#0196BD"/>
<path id="Vector_3" d="M43.8549 57.2402C49.9784 56.9728 54.7297 51.8814 54.4671 45.8682C54.2046 39.855 49.0276 35.197 42.9041 35.4644C36.7806 35.7317 32.0294 40.8232 32.2919 46.8364C32.5544 52.8496 37.7314 57.5075 43.8549 57.2402Z" fill="#0196BD"/>
<path id="Vector_4" d="M70.8138 71.9815C61.8576 86.4953 81.8434 97.4678 90.0057 84.5419C93.448 79.0927 96.9227 73.6626 100.43 68.2516C100.776 67.7147 101.254 67.1587 101.864 66.5837C101.919 66.5323 101.987 66.4973 102.062 66.4828C102.136 66.4682 102.212 66.4747 102.283 66.5014C102.354 66.5281 102.416 66.5741 102.462 66.634C102.507 66.694 102.536 66.7656 102.543 66.8408C102.675 68.3316 94.7579 79.9267 93.4442 82.0001C91.3308 85.3301 89.7829 88.2888 86.3958 90.0824C80.3469 93.2867 72.4702 91.8074 68.7632 85.4672C65.3361 79.6068 66.8555 75.4771 70.3683 69.7024C74.6103 62.7377 77.9136 57.5495 80.2784 54.1376C80.4573 53.8824 80.84 53.7054 81.4264 53.6064C81.6168 53.5721 81.6816 53.6482 81.6206 53.8348C81.2132 55.0648 80.8952 55.8606 80.6668 56.2224C77.3539 61.4545 74.0695 66.7075 70.8138 71.9815Z" fill="#0196BD"/>
<g id="Subtract">
<path d="M44.4195 26.9779C44.4195 26.6625 44.1638 26.4067 43.8483 26.4067H42.706C42.3905 26.4067 42.1348 26.6625 42.1348 26.9779V30.5674C42.3185 30.5532 42.5031 30.5421 42.6886 30.534C43.2721 30.5085 43.8496 30.5138 44.4195 30.5484V26.9779Z" fill="#0196BD"/>
<path d="M50.3901 32.0792C51.0822 32.407 51.7473 32.7821 52.3809 33.2005L54.1194 30.1892C54.2772 29.916 54.1836 29.5667 53.9104 29.409L52.9211 28.8378C52.6479 28.68 52.2985 28.7736 52.1408 29.0468L50.3901 32.0792Z" fill="#0196BD"/>
<path d="M56.8027 37.5558C57.23 38.1841 57.6128 38.8448 57.9467 39.5335L60.9144 37.8201C61.1876 37.6624 61.2812 37.313 61.1235 37.0398L60.5523 36.0505C60.3946 35.7773 60.0452 35.6837 59.772 35.8414L56.8027 37.5558Z" fill="#0196BD"/>
<path d="M59.4829 45.5415C59.4847 45.5774 59.4864 45.6132 59.488 45.6492C59.5201 46.3855 59.5005 47.1123 59.4324 47.8263H62.9831C63.2986 47.8263 63.5543 47.5705 63.5543 47.2551V46.1127C63.5543 45.7972 63.2986 45.5415 62.9831 45.5415H59.4829Z" fill="#0196BD"/>
<path d="M57.6674 53.673C57.3076 54.3472 56.8997 54.9934 56.4479 55.6071L59.7718 57.5262C60.045 57.6839 60.3943 57.5903 60.5521 57.3171L61.1233 56.3278C61.281 56.0546 61.1874 55.7053 60.9142 55.5475L57.6674 53.673Z" fill="#0196BD"/>
<path d="M52.0913 59.6657C51.4506 60.0714 50.7784 60.4341 50.0787 60.7492L52.1408 64.3209C52.2985 64.5941 52.6479 64.6877 52.9211 64.53L53.9104 63.9588C54.1836 63.8011 54.2772 63.4518 54.1194 63.1786L52.0913 59.6657Z" fill="#0196BD"/>
<path d="M44.4195 62.1521C44.3033 62.1596 44.1868 62.1659 44.07 62.171C43.4167 62.1995 42.7709 62.1895 42.1348 62.1429V66.3898C42.1348 66.7053 42.3905 66.961 42.706 66.961H43.8483C44.1638 66.961 44.4195 66.7053 44.4195 66.3898V62.1521Z" fill="#0196BD"/>
<path d="M36.509 60.6914C35.8136 60.3702 35.1448 60.0014 34.5072 59.5891L32.4348 63.1786C32.2771 63.4518 32.3707 63.8011 32.6439 63.9588L33.6332 64.53C33.9064 64.6877 34.2558 64.5941 34.4135 64.3209L36.509 60.6914Z" fill="#0196BD"/>
<path d="M30.2281 55.5368C29.7817 54.921 29.379 54.2718 29.0245 53.5936L25.6403 55.5474C25.3671 55.7051 25.2735 56.0545 25.4312 56.3277L26.0024 57.317C26.1602 57.5902 26.5095 57.6838 26.7827 57.5261L30.2281 55.5368Z" fill="#0196BD"/>
<path d="M27.3231 47.8263C27.2994 47.5713 27.2819 47.3144 27.2706 47.0558C27.2484 46.5461 27.2509 46.041 27.2772 45.5415H23.5712C23.2557 45.5415 23 45.7972 23 46.1127V47.2551C23 47.5705 23.2557 47.8263 23.5712 47.8263H27.3231Z" fill="#0196BD"/>
<path d="M28.7854 39.6361C29.1158 38.9471 29.4954 38.2845 29.92 37.653L26.7825 35.8416C26.5093 35.6839 26.1599 35.7775 26.0022 36.0506L25.431 37.04C25.2733 37.3132 25.3669 37.6625 25.6401 37.8202L28.7854 39.6361Z" fill="#0196BD"/>
<path d="M34.2415 33.3184C34.8691 32.8927 35.5294 32.5093 36.2181 32.1726L34.4135 29.0468C34.2558 28.7736 33.9064 28.68 33.6332 28.8378L32.6439 29.409C32.3707 29.5667 32.2771 29.916 32.4348 30.1892L34.2415 33.3184Z" fill="#0196BD"/>
</g>
</g>
</svg>
