<svg width="165" height="121" viewBox="0 0 165 121" fill="none" xmlns="http://www.w3.org/2000/svg">
<g id="Frame 512">
<g id="Group 499">
<path id="Vector" d="M111.846 31.3699C116.608 30.572 123.152 30.7549 123.143 36.9386C123.121 55.0023 123.102 73.0687 123.085 91.1378C123.077 96.4489 118.648 96.4323 114.169 96.4655C92.9839 96.5985 71.7963 96.5736 50.6059 96.3907C44.9614 96.3408 43.7293 93.8723 43.7959 88.5696C43.9902 72.678 44.0595 56.7865 44.004 40.8949C43.9791 32.3341 46.077 30.0484 55.0682 31.2951C55.1682 31.3092 55.27 31.302 55.367 31.2741C55.464 31.2461 55.554 31.198 55.6311 31.1328C55.7081 31.0677 55.7705 30.987 55.8141 30.8961C55.8577 30.8051 55.8815 30.706 55.8841 30.6053L56.009 26.5409C56.0201 26.2085 56.1782 25.9758 56.4835 25.8428C57.7545 25.2721 59.0365 25.2554 60.3297 25.7929C60.6017 25.9037 60.7488 26.106 60.771 26.3997L61.1456 30.9128C61.1678 31.1511 61.2982 31.2674 61.5369 31.2619L72.0682 31.1289C72.2412 31.1267 72.4064 31.0566 72.5279 30.9337C72.6495 30.8108 72.7176 30.645 72.7176 30.4723V26.7404C72.7176 26.4689 72.8314 26.2556 73.0589 26.1004C74.3299 25.2194 75.5565 25.056 76.7387 25.6101C78.2206 26.3082 77.5545 29.3336 77.8043 30.7964C77.8431 31.0569 77.9958 31.1843 78.2622 31.1788L88.8268 31.0208C89.1543 31.0153 89.3236 30.8491 89.3347 30.5222L89.4346 27.0396C89.4457 26.7293 89.5539 26.4606 89.7593 26.2334C90.9581 24.9091 92.2873 24.7928 93.747 25.8844C94.796 26.6656 94.2299 29.5081 94.4463 30.8795C94.4963 31.1788 94.6711 31.3228 94.9708 31.3118L105.744 31.0125C106.066 31.007 106.226 30.8408 106.226 30.5138V27.1643C106.227 26.719 106.384 26.2881 106.67 25.9464C106.956 25.6047 107.353 25.3739 107.792 25.2942C111.746 24.5961 111.197 28.5274 111.238 30.8629C111.249 31.2674 111.452 31.4364 111.846 31.3699ZM106.476 37.9111L106.143 33.9133C106.104 33.4035 105.83 33.1486 105.319 33.1486H95.5286C94.9015 33.1486 94.5518 33.4589 94.4796 34.0795L94.0384 37.9443C93.994 38.3488 93.7692 38.5483 93.3641 38.5427L90.1838 38.4929C89.7731 38.4873 89.5567 38.2795 89.5345 37.8695L89.3014 33.4478C89.2847 33.1541 89.1293 33.0101 88.8352 33.0156L78.2872 33.1569C78.0207 33.1624 77.8709 33.301 77.8376 33.5725L77.3714 37.7448C77.3325 38.105 77.1355 38.3266 76.7803 38.4097C75.5759 38.7034 74.3993 38.6369 73.2504 38.2103C72.923 38.0939 72.7565 37.864 72.7509 37.5204L72.701 33.9631C72.6954 33.4201 72.4179 33.1486 71.8684 33.1486H61.5202C61.1317 33.1486 60.9291 33.3425 60.9125 33.7304L60.7044 37.9443C60.6877 38.3599 60.4713 38.5621 60.055 38.5511L56.7998 38.4679C56.3947 38.4569 56.1838 38.2491 56.1671 37.8446L56.0173 33.7969C56.0006 33.409 55.798 33.2068 55.4095 33.1901C45.4609 32.6582 45.0197 34.4618 45.7274 43.8289C45.7551 44.189 45.9494 44.3691 46.3101 44.3691H120.779C121.034 44.3691 121.165 44.2417 121.17 43.9868C121.412 34.1127 122.136 32.7995 111.713 33.1901C111.419 33.2012 111.238 33.3481 111.172 33.6306C110.306 37.3043 112.678 38.7007 107.142 38.5427C106.732 38.5317 106.51 38.3211 106.476 37.9111ZM120.504 46.2309L46.46 46.0979C46.2436 46.0979 46.0361 46.1837 45.8831 46.3365C45.7301 46.4892 45.6441 46.6964 45.6441 46.9124L45.5692 89.6002C45.5671 90.9404 46.1193 92.2266 47.1045 93.1758C48.0896 94.1251 49.427 94.6596 50.8224 94.6619L115.975 94.7783C116.666 94.7794 117.351 94.6498 117.989 94.3969C118.628 94.144 119.209 93.7727 119.698 93.3042C120.188 92.8357 120.576 92.2792 120.842 91.6665C121.107 91.0538 121.244 90.3968 121.245 89.7332L121.32 47.0454C121.32 46.8294 121.234 46.6222 121.081 46.4694C120.928 46.3167 120.721 46.2309 120.504 46.2309Z" fill="#0196BD"/>
<path id="Vector_2" d="M59.8135 62.4216C61.9055 62.4216 63.6014 60.7285 63.6014 58.6399C63.6014 56.5513 61.9055 54.8582 59.8135 54.8582C57.7214 54.8582 56.0255 56.5513 56.0255 58.6399C56.0255 60.7285 57.7214 62.4216 59.8135 62.4216Z" fill="#0196BD"/>
<path id="Vector_3" d="M75.3474 62.4392C77.4349 62.4392 79.1271 60.7498 79.1271 58.6658C79.1271 56.5818 77.4349 54.8923 75.3474 54.8923C73.26 54.8923 71.5678 56.5818 71.5678 58.6658C71.5678 60.7498 73.26 62.4392 75.3474 62.4392Z" fill="#0196BD"/>
<path id="Vector_4" d="M90.701 62.4309C92.7885 62.4309 94.4807 60.7415 94.4807 58.6575C94.4807 56.5735 92.7885 54.884 90.701 54.884C88.6136 54.884 86.9214 56.5735 86.9214 58.6575C86.9214 60.7415 88.6136 62.4309 90.701 62.4309Z" fill="#0196BD"/>
<path id="Vector_5" d="M106.508 62.3802C108.572 62.3802 110.246 60.7094 110.246 58.6484C110.246 56.5873 108.572 54.9165 106.508 54.9165C104.443 54.9165 102.77 56.5873 102.77 58.6484C102.77 60.7094 104.443 62.3802 106.508 62.3802Z" fill="#0196BD"/>
<path id="Vector_6" d="M59.7968 73.2519C61.8842 73.2519 63.5764 71.5625 63.5764 69.4785C63.5764 67.3945 61.8842 65.7051 59.7968 65.7051C57.7094 65.7051 56.0172 67.3945 56.0172 69.4785C56.0172 71.5625 57.7094 73.2519 59.7968 73.2519Z" fill="#0196BD"/>
<path id="Vector_7" d="M75.3496 73.2692C77.4324 73.2692 79.1209 71.5835 79.1209 69.5041C79.1209 67.4247 77.4324 65.739 75.3496 65.739C73.2667 65.739 71.5782 67.4247 71.5782 69.5041C71.5782 71.5835 73.2667 73.2692 75.3496 73.2692Z" fill="#0196BD"/>
<path id="Vector_8" d="M90.699 73.2353C92.7818 73.2353 94.4703 71.5496 94.4703 69.4702C94.4703 67.3908 92.7818 65.7051 90.699 65.7051C88.6161 65.7051 86.9277 67.3908 86.9277 69.4702C86.9277 71.5496 88.6161 73.2353 90.699 73.2353Z" fill="#0196BD"/>
<path id="Vector_9" d="M106.518 73.2105C108.574 73.2105 110.24 71.5471 110.24 69.4953C110.24 67.4434 108.574 65.78 106.518 65.78C104.463 65.78 102.797 67.4434 102.797 69.4953C102.797 71.5471 104.463 73.2105 106.518 73.2105Z" fill="#0196BD"/>
<path id="Vector_10" d="M59.8134 84.5967C61.9101 84.5967 63.6097 82.8998 63.6097 80.8066C63.6097 78.7135 61.9101 77.0166 59.8134 77.0166C57.7168 77.0166 56.0172 78.7135 56.0172 80.8066C56.0172 82.8998 57.7168 84.5967 59.8134 84.5967Z" fill="#0196BD"/>
<path id="Vector_11" d="M75.3559 84.5805C77.4342 84.5805 79.1189 82.8985 79.1189 80.8237C79.1189 78.7489 77.4342 77.0669 75.3559 77.0669C73.2777 77.0669 71.593 78.7489 71.593 80.8237C71.593 82.8985 73.2777 84.5805 75.3559 84.5805Z" fill="#0196BD"/>
<path id="Vector_12" d="M90.7074 84.5727C92.7856 84.5727 94.4704 82.8907 94.4704 80.8159C94.4704 78.7411 92.7856 77.0591 90.7074 77.0591C88.6291 77.0591 86.9444 78.7411 86.9444 80.8159C86.9444 82.8907 88.6291 84.5727 90.7074 84.5727Z" fill="#0196BD"/>
<path id="Vector_13" d="M106.508 84.5484C108.568 84.5484 110.237 82.8813 110.237 80.8248C110.237 78.7684 108.568 77.1013 106.508 77.1013C104.448 77.1013 102.778 78.7684 102.778 80.8248C102.778 82.8813 104.448 84.5484 106.508 84.5484Z" fill="#0196BD"/>
</g>
<g id="Group 498">
<path id="Vector_14" d="M23.2704 57.2414C24.053 51.329 25.0839 45.1086 27.0103 39.7972C34.46 19.2653 52.678 4.28513 74.3048 1.03218C108.423 -4.09892 138.959 20.3621 142.782 54.1537C142.796 54.2734 142.764 54.3939 142.693 54.4913C142.622 54.5887 142.517 54.6559 142.398 54.6796C141.791 54.7998 141.448 54.5669 141.367 53.981C137.108 23.307 112.193 1.30264 80.8139 2.18913C50.6312 3.04556 26.8448 27.6268 25.2495 57.264C25.2427 57.3542 25.267 57.4441 25.3183 57.5187C25.3696 57.5933 25.4448 57.6483 25.5315 57.6745C25.6183 57.7008 25.7114 57.6968 25.7956 57.6631C25.8797 57.6294 25.9498 57.5681 25.9944 57.4893C26.5137 56.6404 28.8163 52.9442 29.9526 53.9208C30.0254 53.9845 30.0847 54.0621 30.1272 54.1489C30.1697 54.2357 30.1945 54.3301 30.2001 54.4266C30.2057 54.5231 30.192 54.6197 30.1599 54.7109C30.1277 54.802 30.0777 54.8859 30.0128 54.9576L24.8732 60.6521C24.7865 60.7469 24.6803 60.8218 24.562 60.872C24.4436 60.9221 24.3159 60.9462 24.1874 60.9426C24.0589 60.9391 23.9326 60.9079 23.8172 60.8513C23.7019 60.7947 23.6001 60.714 23.5187 60.6146C22.3975 59.2473 18.6049 55.4309 19.0338 53.7631C19.1291 53.3975 19.3248 53.3324 19.6208 53.5677C20.9251 54.6145 21.9661 55.8716 22.7436 57.3391C23.0196 57.8549 23.1951 57.8224 23.2704 57.2414Z" fill="#0196BD"/>
<path id="Vector_15" d="M141.105 62.3814L137.651 65.8898C137.578 65.9656 137.483 66.0165 137.38 66.035C137.276 66.0534 137.169 66.0386 137.075 65.9927C136.98 65.9467 136.903 65.872 136.853 65.7793C136.804 65.6865 136.786 65.5806 136.8 65.4766C137.094 63.2153 140.804 60.0676 142.429 58.3847C142.605 58.2044 142.778 58.2044 142.948 58.3847C144.295 59.8121 148.765 64.3648 147.787 65.717C147.546 66.0526 147.295 66.0601 147.034 65.7396L144.265 62.3439C144.204 62.2703 144.122 62.2168 144.03 62.1899C143.938 62.1631 143.84 62.1643 143.749 62.1933C143.658 62.2224 143.577 62.278 143.518 62.3529C143.458 62.4279 143.422 62.519 143.415 62.6143C142.853 70.763 140.892 78.4434 137.53 85.6554C119.41 124.533 66.6752 131.79 38.4791 99.5613C30.6782 90.6463 25.8572 80.1112 24.0161 67.9558C23.8957 67.167 23.7527 64.3648 25.0094 64.9883C25.2302 65.0985 25.3606 65.2763 25.4007 65.5217C27.8087 79.4275 31.8346 90.4335 41.9707 100.756C77.4435 136.876 138.9 113.662 141.624 62.6143C141.626 62.5523 141.61 62.4906 141.577 62.4376C141.544 62.3846 141.497 62.3428 141.44 62.3175C141.384 62.2923 141.322 62.2849 141.262 62.2963C141.202 62.3077 141.147 62.3374 141.105 62.3814Z" fill="#0196BD"/>
</g>
</g>
</svg>
