<svg width="109" height="86" viewBox="0 0 109 86" fill="none" xmlns="http://www.w3.org/2000/svg">
<g id="Group 489">
<path id="Vector" d="M50.4728 45.7697C45.9551 47.3053 39.9797 47.9284 40.7586 54.5715C36.6637 58.288 32.7729 61.8711 29.086 65.3206C26.293 67.9355 23.2552 66.8116 20.7182 64.2968C14.1011 57.7836 7.71396 51.0552 1.55679 44.1117C-2.19314 39.8833 1.59007 36.5006 4.92829 33.3738C15.5142 23.4704 26.0593 13.5262 36.5636 3.5412C40.3098 -0.0269903 43.8484 -0.0455374 47.1792 3.48556C53.3883 10.073 59.6566 16.6048 65.9844 23.0809C69.0221 26.1966 66.8634 29.7462 64.0371 32.3389C59.3487 36.6415 54.8274 41.1185 50.4728 45.7697Z" fill="#F7941D"/>
<g id="Group 488">
<path id="Vector_2" d="M42.1048 11.4622C44.4861 12.0208 46.5963 11.7072 46.818 10.7619C47.0397 9.81653 45.2891 8.59741 42.9078 8.03889C40.5265 7.48036 38.4163 7.79393 38.1946 8.73927C37.9729 9.6846 39.7235 10.9037 42.1048 11.4622Z" fill="white"/>
<path id="Vector_3" d="M32.0393 20.8951C34.4332 21.4258 36.5367 21.1216 36.7375 20.2156C36.9384 19.3097 35.1605 18.145 32.7666 17.6143C30.3727 17.0836 28.2692 17.3878 28.0683 18.2937C27.8675 19.1997 29.6453 20.3644 32.0393 20.8951Z" fill="white"/>
<path id="Vector_4" d="M41.1401 27.701C43.5363 28.2498 45.6522 27.9372 45.8663 27.0027C46.0803 26.0682 44.3113 24.8657 41.9152 24.3169C39.519 23.7681 37.403 24.0808 37.189 25.0153C36.975 25.9498 38.7439 27.1523 41.1401 27.701Z" fill="white"/>
<path id="Vector_5" d="M49.1397 19.701C51.5359 20.2498 53.6519 19.9372 53.8659 19.0027C54.0799 18.0682 52.311 16.8657 49.9148 16.3169C47.5186 15.7681 45.4027 16.0808 45.1886 17.0153C44.9746 17.9498 46.7436 19.1523 49.1397 19.701Z" fill="white"/>
<path id="Vector_6" d="M57.8939 27.9317C60.2752 28.4903 62.3853 28.1767 62.6071 27.2313C62.8288 26.286 61.0781 25.0669 58.6968 24.5084C56.3155 23.9498 54.2054 24.2634 53.9837 25.2087C53.7619 26.1541 55.5126 27.3732 57.8939 27.9317Z" fill="white"/>
<path id="Vector_7" d="M21.9999 30.3524C24.3781 30.9498 26.4905 30.6996 26.718 29.7936C26.9456 28.8876 25.2022 27.669 22.824 27.0716C20.4458 26.4742 18.3335 26.7244 18.1059 27.6304C17.8783 28.5364 19.6218 29.7551 21.9999 30.3524Z" fill="white"/>
<path id="Vector_8" d="M31.1803 37.2958C33.487 37.8752 35.545 37.5959 35.7771 36.6721C36.0091 35.7482 34.3273 34.5296 32.0207 33.9502C29.714 33.3708 27.656 33.6501 27.4239 34.5739C27.1919 35.4978 28.8737 36.7164 31.1803 37.2958Z" fill="white"/>
<path id="Vector_9" d="M47.8944 37.4983C50.2498 38.0594 52.3428 37.7437 52.5692 36.7932C52.7957 35.8427 51.0698 34.6172 48.7144 34.0561C46.359 33.4949 44.266 33.8106 44.0396 34.7611C43.8131 35.7117 45.539 36.9371 47.8944 37.4983Z" fill="white"/>
<path id="Vector_10" d="M11.9766 39.9134C14.3432 40.4251 16.4197 40.1095 16.6145 39.2085C16.8093 38.3075 15.0487 37.1623 12.682 36.6506C10.3154 36.1389 8.23893 36.4545 8.04413 37.3555C7.84932 38.2565 9.60994 39.4018 11.9766 39.9134Z" fill="white"/>
<path id="Vector_11" d="M24.4415 44.1019L19.231 42.9276C18.4456 42.7507 17.6655 43.2438 17.4885 44.0292L17.4542 44.1812C17.2773 44.9665 17.7704 45.7467 18.5558 45.9237L23.7663 47.0979C24.5516 47.2749 25.3318 46.7817 25.5088 45.9963L25.543 45.8444C25.72 45.059 25.2268 44.2789 24.4415 44.1019Z" fill="white"/>
<path id="Vector_12" d="M37.909 46.8369C40.28 47.3279 42.3577 46.9747 42.5496 46.0479C42.7415 45.1212 40.975 43.9719 38.604 43.4809C36.233 42.9898 34.1553 43.3431 33.9634 44.2698C33.7715 45.1966 35.538 46.3459 37.909 46.8369Z" fill="white"/>
</g>
<path id="Vector_13" d="M40.7585 54.5724C39.9796 47.9294 45.955 47.3062 50.4727 45.7706C64.8048 41.9725 79.0812 37.9926 93.3021 33.8309C97.486 32.6069 99.5891 35.8561 100.702 39.5615C104.552 52.4026 106.996 60.7926 108.035 64.7317C109.392 69.8392 105.909 71.4527 101.536 72.699C86.4625 77.0016 71.3773 81.2782 56.2812 85.5289C52.3866 86.6305 50.0832 84.8501 48.926 81.0779C46.2406 72.2279 43.5181 63.3927 40.7585 54.5724Z" fill="#008592"/>
<g id="Group 487">
<path id="Vector_14" d="M96.6776 43.1125L92.6431 39.7151C92.0226 39.1926 91.096 39.2721 90.5735 39.8926L90.4875 39.9947C89.9649 40.6152 90.0444 41.5418 90.6649 42.0643L94.6994 45.4617C95.3199 45.9842 96.2465 45.9048 96.769 45.2843L96.855 45.1821C97.3775 44.5616 97.2981 43.635 96.6776 43.1125Z" fill="white"/>
<path id="Vector_15" d="M79.1233 47.6485C80.9321 49.2489 82.9135 49.9641 83.5487 49.2461C84.184 48.5281 83.2326 46.6487 81.4237 45.0483C79.6148 43.448 77.6335 42.7327 76.9982 43.4507C76.363 44.1688 77.3144 46.0482 79.1233 47.6485Z" fill="white"/>
<path id="Vector_16" d="M65.8045 51.4187C67.6189 53.0128 69.6093 53.7136 70.2502 52.9842C70.891 52.2547 69.9396 50.3711 68.1252 48.7771C66.3108 47.1831 64.3204 46.4822 63.6795 47.2117C63.0387 47.9412 63.99 49.8247 65.8045 51.4187Z" fill="white"/>
<path id="Vector_17" d="M52.4394 55.2186C54.2286 56.8409 56.1944 57.5877 56.8301 56.8866C57.4658 56.1855 56.5308 54.302 54.7416 52.6797C52.9524 51.0573 50.9866 50.3105 50.3509 51.0116C49.7152 51.7127 50.6502 53.5963 52.4394 55.2186Z" fill="white"/>
<path id="Vector_18" d="M27.8577 56.3507C30.2191 56.9132 32.31 56.6278 32.5279 55.7131C32.7458 54.7985 31.0082 53.6009 28.6468 53.0384C26.2854 52.4758 24.1945 52.7613 23.9766 53.6759C23.7587 54.5906 25.4963 55.7881 27.8577 56.3507Z" fill="white"/>
<path id="Vector_19" d="M88.1669 57.0445L84.298 53.6931C83.6524 53.1338 82.6755 53.2038 82.1162 53.8495L82.0142 53.9673C81.4549 54.6129 81.525 55.5897 82.1706 56.149L86.0396 59.5004C86.6852 60.0597 87.662 59.9897 88.2213 59.344L88.3233 59.2263C88.8826 58.5806 88.8126 57.6038 88.1669 57.0445Z" fill="white"/>
<path id="Vector_20" d="M100.167 54.0445L96.298 50.6931C95.6523 50.1338 94.6755 50.2038 94.1162 50.8495L94.0142 50.9673C93.4549 51.6129 93.5249 52.5897 94.1706 53.149L98.0395 56.5004C98.6852 57.0597 99.662 56.9897 100.221 56.344L100.323 56.2263C100.883 55.5806 100.813 54.6038 100.167 54.0445Z" fill="white"/>
<path id="Vector_21" d="M70.7885 61.7291C72.6101 63.3521 74.6072 64.0838 75.249 63.3634C75.8908 62.643 74.9344 60.7434 73.1128 59.1203C71.2912 57.4973 69.2942 56.7656 68.6523 57.486C68.0105 58.2064 68.9669 60.1061 70.7885 61.7291Z" fill="white"/>
<path id="Vector_22" d="M57.3776 65.5383C59.2123 67.1558 61.2201 67.8766 61.8623 67.1482C62.5044 66.4199 61.5376 64.5182 59.7029 62.9007C57.8682 61.2832 55.8603 60.5624 55.2182 61.2907C54.5761 62.0191 55.5429 63.9208 57.3776 65.5383Z" fill="white"/>
<path id="Vector_23" d="M98.9293 65.8162C100.747 67.3967 102.721 68.1027 103.338 67.393C103.955 66.6834 102.981 64.8269 101.163 63.2465C99.345 61.666 97.3711 60.96 96.7542 61.6697C96.1373 62.3793 97.1111 64.2358 98.9293 65.8162Z" fill="white"/>
<path id="Vector_24" d="M94.3262 67.8739L90.3324 64.463C89.7389 63.9561 88.8469 64.0263 88.34 64.6198L88.1666 64.8228C87.6597 65.4163 87.7299 66.3083 88.3234 66.8152L92.3171 70.2262C92.9106 70.7331 93.8026 70.6629 94.3095 70.0694L94.483 69.8663C94.9898 69.2728 94.9196 68.3808 94.3262 67.8739Z" fill="white"/>
<path id="Vector_25" d="M82.9278 70.5496L79.024 67.2389C78.3819 66.6944 77.4199 66.7735 76.8754 67.4156L76.7746 67.5344C76.23 68.1765 76.3091 69.1385 76.9512 69.683L80.855 72.9937C81.4972 73.5383 82.4592 73.4592 83.0037 72.8171L83.1045 72.6982C83.649 72.0561 83.5699 71.0941 82.9278 70.5496Z" fill="white"/>
<path id="Vector_26" d="M65.4514 75.216C67.3132 76.8118 69.3445 77.4963 69.9883 76.7451C70.6322 75.9939 69.645 74.0913 67.7832 72.4955C65.9214 70.8998 63.8902 70.2152 63.2463 70.9664C62.6024 71.7177 63.5897 73.6203 65.4514 75.216Z" fill="white"/>
</g>
</g>
</svg>
