<svg width="63" height="71" viewBox="0 0 63 71" fill="none" xmlns="http://www.w3.org/2000/svg">
<g id="Pasted-20230804-140819" clip-path="url(#clip0_20_3275)">
<g id="Group 482">
<path id="Vector" d="M38.7113 24.9647C37.2023 19.5761 33.6692 14.2195 28.2579 11.7805C28.2245 11.7659 28.1881 11.7594 28.1518 11.7617C28.1154 11.764 28.0801 11.775 28.0488 11.7937C28.0176 11.8125 27.9912 11.8385 27.9721 11.8695C27.953 11.9005 27.9415 11.9357 27.9388 11.972C27.4799 18.017 25.8433 23.7186 23.0289 29.0767C22.953 29.2165 22.8907 29.212 22.842 29.063C22.4454 27.9142 20.7906 22.8175 19.97 22.3069C19.9408 22.2878 19.907 22.277 19.8722 22.2757C19.8373 22.2744 19.8028 22.2827 19.7723 22.2996C19.7418 22.3164 19.7165 22.3413 19.6991 22.3715C19.6817 22.4018 19.6729 22.4361 19.6736 22.471C19.6706 23.9389 19.5475 25.3886 19.3044 26.8201C18.6707 30.531 16.3457 34.912 15.6163 37.8251C13.0314 48.1508 18.9306 53.1245 26.7261 58.2897C26.7552 58.3079 26.7894 58.3161 26.8235 58.3128C26.8577 58.3096 26.8898 58.2951 26.9148 58.2716C26.9398 58.2482 26.9563 58.2171 26.9618 58.1832C26.9673 58.1494 26.9613 58.1146 26.945 58.0845C24.1641 52.8966 23.9817 48.315 27.6926 43.51C27.802 43.3671 27.8689 43.3853 27.8932 43.5647C28.2078 46.0492 27.6425 47.8955 27.4236 50.1248C27.3993 50.3831 27.4738 50.4151 27.647 50.2205C30.8017 46.7437 32.5888 42.6681 33.0082 37.9938C33.0115 37.9662 33.0224 37.9399 33.0398 37.918C33.0571 37.8962 33.0801 37.8797 33.106 37.8706C33.1319 37.8615 33.1597 37.8601 33.186 37.8666C33.2123 37.8731 33.236 37.8871 33.2544 37.9072C37.3543 42.0952 38.6931 46.9914 37.2707 52.5957C36.8285 54.3508 35.9167 56.3066 35.1326 58.0754C35.1204 58.106 35.1178 58.1397 35.125 58.1719C35.1323 58.2042 35.1491 58.2333 35.1731 58.2554C35.1972 58.2774 35.2272 58.2912 35.2592 58.2949C35.2911 58.2986 35.3234 58.292 35.3514 58.276C37.3209 57.1454 39.1459 55.8446 40.8266 54.3736C52.8026 43.9111 48.572 27.472 37.7676 18.2358C37.7305 18.2052 37.6841 18.188 37.636 18.187C37.5879 18.1859 37.5408 18.2011 37.5024 18.23C37.464 18.259 37.4364 18.3001 37.4241 18.3466C37.4119 18.3931 37.4156 18.4424 37.4348 18.4866C38.2463 20.2736 39.4726 22.977 38.8982 24.9647C38.8344 25.1865 38.7721 25.1865 38.7113 24.9647Z" fill="#F7941D"/>
<g id="Union">
<path d="M33.3262 35.9288V33.2938C33.3262 33.2055 33.3612 33.1209 33.4236 33.0584C33.4861 32.996 33.5707 32.961 33.659 32.961L35.8426 32.9519C35.9309 32.9519 36.0155 32.9869 36.078 33.0493C36.1404 33.1117 36.1754 33.1964 36.1754 33.2846V35.9288C36.1754 35.9725 36.184 36.0157 36.2008 36.0561C36.2175 36.0965 36.242 36.1332 36.2729 36.1641C36.3038 36.195 36.3405 36.2195 36.3809 36.2362C36.4212 36.253 36.4645 36.2616 36.5082 36.2616H37.6662C37.7099 36.2616 37.7531 36.253 37.7935 36.2362C37.8339 36.2195 37.8706 36.195 37.9015 36.1641C37.9324 36.1332 37.9569 36.0965 37.9736 36.0561C37.9904 36.0157 37.999 35.9725 37.999 35.9288V29.1224C37.9992 29.038 37.9672 28.9566 37.9097 28.8948C37.8521 28.833 37.7732 28.7954 37.689 28.7896L36.6587 28.7213C36.5718 28.7162 36.4865 28.7454 36.4209 28.8024C36.3553 28.8595 36.3146 28.94 36.3076 29.0267L36.1344 31.3882C36.1286 31.4724 36.091 31.5513 36.0292 31.6089C35.9674 31.6665 35.8861 31.6984 35.8016 31.6982H33.6863C33.6004 31.6982 33.5177 31.6651 33.4557 31.6056C33.3937 31.5461 33.357 31.4649 33.3535 31.3791L33.2623 29.1133C33.2606 29.0692 33.2501 29.0259 33.2314 28.9859C33.2128 28.9458 33.1863 28.9099 33.1537 28.8802C33.121 28.8505 33.0827 28.8276 33.0411 28.8129C32.9995 28.7981 32.9554 28.7918 32.9113 28.7942L31.8491 28.858C31.7641 28.8639 31.6845 28.9021 31.6268 28.9649C31.5691 29.0276 31.5377 29.1101 31.5391 29.1954L31.6029 35.9242C31.6029 36.0125 31.638 36.0971 31.7004 36.1595C31.7628 36.2219 31.8475 36.257 31.9357 36.257L32.9888 36.2616C33.0329 36.2622 33.0767 36.254 33.1176 36.2375C33.1585 36.2211 33.1957 36.1967 33.2271 36.1657C33.2585 36.1348 33.2834 36.0979 33.3004 36.0572C33.3174 36.0165 33.3262 35.9729 33.3262 35.9288Z" fill="white"/>
<path fill-rule="evenodd" clip-rule="evenodd" d="M26.3749 38.0851V36.4804C26.3749 36.2312 26.4935 36.143 26.7305 36.216C31.376 37.6247 30.8061 30.6405 28.3899 30.6861C27.2867 30.7074 26.1743 30.7545 25.0529 30.8275C24.9743 30.8322 24.9005 30.867 24.847 30.9248C24.7935 30.9825 24.7644 31.0587 24.7657 31.1375L24.8979 38.1763C24.9009 38.389 25.0073 38.4878 25.217 38.4726L26.0649 38.4179C26.2716 38.4057 26.3749 38.2948 26.3749 38.0851ZM26.4023 34.6842V32.3228C26.4023 32.1833 26.4574 32.0495 26.5556 31.9504C26.6537 31.8514 26.7871 31.7951 26.9265 31.7939H27.387C27.5651 31.7934 27.7416 31.8357 27.9063 31.9186C28.071 32.0015 28.2208 32.1233 28.347 32.2771C28.4732 32.4308 28.5734 32.6134 28.6417 32.8145C28.7101 33.0155 28.7454 33.2311 28.7455 33.4488V33.5582C28.7458 33.9963 28.6039 34.4166 28.3509 34.7268C28.0979 35.037 27.7546 35.2119 27.3961 35.213H26.9357C26.8658 35.2137 26.7966 35.2004 26.7319 35.1741C26.6672 35.1478 26.6084 35.1089 26.5588 35.0598C26.5092 35.0106 26.4698 34.9521 26.443 34.8877C26.4161 34.8232 26.4023 34.7541 26.4023 34.6842Z" fill="white"/>
</g>
</g>
<path id="Subtract" fill-rule="evenodd" clip-rule="evenodd" d="M54.6272 51.6501C62.1551 40.6011 63.6357 26.3643 62.1782 13.1545C62.1628 13.0343 62.098 12.9494 61.9839 12.9001C52.2058 8.88704 42.4354 4.88017 32.6727 0.879473C32.2331 0.699025 31.1967 0.73604 30.7618 0.916488C21.0546 4.89559 11.3274 8.87933 1.58015 12.8677C1.42283 12.9325 1.33647 13.0497 1.32104 13.2193C-0.802689 36.8672 7.50253 58.5487 29.4478 69.5699C30.2097 69.9524 31.024 70.2346 31.8907 70.4166C32.0511 70.4475 32.2038 70.429 32.3488 70.3611C41.5933 66.1198 49.0194 59.8828 54.6272 51.6501ZM32.0458 65.1118C51.7424 55.8904 60.7971 37.4338 57.8961 15.757C57.8818 15.6596 57.8423 15.5674 57.7815 15.4896C57.7207 15.4118 57.6406 15.3508 57.5491 15.3128L31.8468 4.80981C31.6895 4.74504 31.5322 4.74504 31.3749 4.80981L5.91325 15.2434C5.7412 15.3146 5.59176 15.431 5.48092 15.5801C5.37008 15.7292 5.30201 15.9055 5.284 16.0901C3.32683 36.5871 11.4516 55.6544 30.7086 64.774C30.9832 64.9035 31.2839 65.0238 31.6109 65.1349C31.7589 65.1842 31.9039 65.1765 32.0458 65.1118Z" fill="#F7941D"/>
</g>
<defs>
<clipPath id="clip0_20_3275">
<rect width="62" height="70.2059" fill="white" transform="translate(0.5)"/>
</clipPath>
</defs>
</svg>
