<svg width="44" height="38" viewBox="0 0 44 38" fill="none" xmlns="http://www.w3.org/2000/svg">
<g id="Vector">
<path fill-rule="evenodd" clip-rule="evenodd" d="M3.61873 3.80322C1.41716 6.06885 0.178101 9.13916 0.178101 12.3407C0.178101 15.5438 1.41716 18.6142 3.61873 20.8782L18.6578 36.3454C19.5453 37.2579 20.75 37.7673 22.0062 37.7673C23.2609 37.7673 24.4672 37.2579 25.3547 36.3454C28.0781 33.5438 40.3812 20.8657 40.3812 20.8657C42.5828 18.6017 43.8219 15.5313 43.8219 12.3282C43.8219 9.1251 42.5828 6.05635 40.3812 3.79072C38.164 1.51104 35.1547 0.23291 32.0187 0.23291C28.8828 0.23291 25.875 1.51104 23.6578 3.79072L21.9937 5.50166L20.3422 3.80322C18.125 1.52353 15.1172 0.24541 11.9812 0.24541C8.84529 0.24541 5.83591 1.52353 3.61873 3.80322ZM5.85935 5.98291C7.48279 4.3126 9.68435 3.37041 11.9812 3.37041C14.2781 3.37041 16.4781 4.3126 18.1015 5.98291L20.8734 8.83291C21.1672 9.13447 21.5718 9.30635 21.9937 9.30635C22.4156 9.30635 22.8203 9.13447 23.114 8.83291L25.8984 5.96885C27.5219 4.3001 29.7218 3.35791 32.0187 3.35791C34.3156 3.35791 36.5156 4.3001 38.1406 5.96885C38.1453 5.9751 38.15 5.97979 38.1562 5.98604C39.7797 7.65635 40.6969 9.94385 40.6969 12.3282C40.6969 14.7126 39.7797 17.0017 38.1406 18.6876C38.1406 18.6876 25.8375 31.3657 23.114 34.1673C22.8203 34.4688 22.4219 34.6423 22.0062 34.6423C21.5906 34.6423 21.1922 34.4688 20.8984 34.1673L5.85935 18.7001C4.22029 17.0142 3.3031 14.7251 3.3031 12.3407C3.3031 9.95635 4.22029 7.66885 5.85935 5.98291Z" fill="#0196BD"/>
<path fill-rule="evenodd" clip-rule="evenodd" d="M20.435 17.455H17.3146C16.4521 17.455 15.7521 18.155 15.7521 19.0175C15.7521 19.88 16.4521 20.58 17.3146 20.58H20.435V23.7003C20.435 24.5628 21.135 25.2628 21.9975 25.2628C22.86 25.2628 23.56 24.5628 23.56 23.7003V20.58H26.6803C27.5428 20.58 28.2428 19.88 28.2428 19.0175C28.2428 18.155 27.5428 17.455 26.6803 17.455H23.56V14.3347C23.56 13.4722 22.86 12.7722 21.9975 12.7722C21.135 12.7722 20.435 13.4722 20.435 14.3347V17.455Z" fill="#0196BD"/>
</g>
</svg>
