<svg width="58" height="57" viewBox="0 0 58 57" fill="none" xmlns="http://www.w3.org/2000/svg">
<g id="&#208;&#184;&#208;&#186;&#208;&#190;&#208;&#189;&#208;&#186;&#208;&#176; &#208;&#186;&#208;&#176;&#208;&#191;&#209;&#131;&#209;&#129;&#209;&#130;&#208;&#176; 1" clip-path="url(#clip0_125_17785)">
<path id="Vector" d="M52.5777 24.2714C52.3159 25.442 52.9224 26.137 53.0218 27.0579C53.2494 29.1855 52.9478 31.3884 52.117 33.6666C49.9031 39.7321 45.6144 41.9823 39.8575 44.0806C35.3611 45.7179 32.0335 48.7832 29.8748 53.2767C29.7047 53.6276 29.6229 53.8817 29.6296 54.0391C29.6351 54.2369 29.6913 54.4241 29.7877 54.5657C29.8841 54.7073 30.0141 54.7936 30.1532 54.8083C33.0101 55.1153 36.0825 55.6011 38.8433 54.7779C45.9789 52.6594 50.6256 47.5485 53.7012 41.0073C53.9929 40.3844 54.4259 40.2393 55.0004 40.5721C55.1065 40.6329 55.1341 40.7195 55.0833 40.8319C51.5966 48.8102 44.5704 56.0464 35.5456 56.323C33.0532 56.3972 29.4871 55.5673 26.6268 55.3379C23.001 55.0444 18.1489 54.977 14.8943 52.7774C11.9081 50.7601 10.8575 46.7996 9.43894 43.8714C9.03791 43.0483 7.68568 43.1832 6.95986 43.1529C5.03426 43.0719 1.23277 42.215 1.1002 39.7187C0.994142 37.7317 2.59494 36.1124 4.43106 35.576C4.5813 35.531 4.59898 35.4557 4.48409 35.35C2.7938 33.7779 1.16648 31.6965 1.97848 29.3688C2.39167 28.1836 2.66896 27.2885 2.81037 26.6835C2.83909 26.5598 2.8181 26.444 2.7474 26.336C1.19189 23.9588 0.388732 21.4231 0.337913 18.7288C0.245113 13.9384 4.5106 12.0256 8.46786 11.6377C10.7812 11.4117 12.0705 9.80251 13.6879 8.34854C15.9979 6.27046 19.2161 6.85745 21.8741 6.93842C22.0664 6.94516 22.2939 6.85408 22.5569 6.66516C24.7775 5.0695 27.4223 3.34564 30.1831 4.75576C30.3163 4.82367 30.4665 4.84966 30.6145 4.83044C30.7626 4.81122 30.902 4.74766 31.0149 4.64781C31.7684 3.97536 32.5008 3.29392 33.2123 2.60348C35.1213 0.751427 38.3627 1.06516 40.5071 2.17842C42.0913 3.00155 42.4459 4.22275 42.6647 5.91287C42.7265 6.40091 43.0624 6.6854 43.6722 6.76637C44.9515 6.93504 46.1911 7.24878 47.3908 7.70757C49.3728 8.46323 50.4466 12.1268 50.8907 13.9452C50.9373 14.1362 51.0529 14.3023 51.2144 14.4105C51.376 14.5186 51.5716 14.5609 51.7624 14.5288C54.2713 14.1071 56.2996 14.603 57.1083 17.2714C58.1623 20.736 56.2565 21.4174 53.8007 22.9996C53.7435 23.0354 53.7008 23.0907 53.6801 23.1556C53.6595 23.2205 53.6623 23.2908 53.688 23.3538C54.5132 25.4353 57.3105 35.1037 55.3484 36.3013C55.2881 36.3377 55.2192 36.357 55.1491 36.3573C55.079 36.3576 55.0101 36.3388 54.9498 36.303C54.8895 36.2671 54.8399 36.2154 54.8062 36.1534C54.7726 36.0914 54.7561 36.0213 54.7585 35.9505C54.8402 33.1167 54.5585 30.3313 53.9133 27.5943C53.6449 26.4608 52.9721 25.5601 52.7467 24.2748C52.6981 23.9869 52.6418 23.9858 52.5777 24.2714ZM42.1576 7.43769C42.0476 7.38165 41.9533 7.29886 41.8833 7.1969C41.8132 7.09494 41.7696 6.97707 41.7565 6.85408C41.6173 5.56203 41.2992 3.79769 40.053 3.13986C38.5262 2.33022 36.942 2.17167 35.3003 2.6642C34.0939 3.02179 33.1493 4.15528 32.1716 5.00878C32.0722 5.09649 32.0578 5.19657 32.1285 5.30902C32.5461 5.98709 33.441 6.36492 33.8155 6.73601C35.0285 7.92797 35.7279 9.41793 35.9135 11.2059C35.9267 11.3363 35.993 11.4274 36.1123 11.4791C36.6095 11.6905 37.3894 11.9919 38.4522 12.3832C41.6626 13.5662 44.6322 15.5093 47.361 18.2126C47.4582 18.3071 47.5422 18.2958 47.6129 18.1789C48.4779 16.7587 48.3453 16.0097 49.86 15.1697C49.9402 15.1254 50.0026 15.054 50.0365 14.9677C50.0704 14.8815 50.0736 14.7858 50.0456 14.6975C49.4125 12.724 48.6569 9.57311 46.7048 8.64878C45.4586 8.06179 43.6623 8.19336 42.1576 7.43769ZM3.6058 25.5871C4.6034 27.564 2.89654 28.9403 2.97277 30.8228C3.00591 31.6054 4.77574 35.5625 6.53894 35.0126C6.64279 34.9811 6.69692 34.9092 6.70134 34.7967C6.88031 29.416 7.08248 22.9119 11.3546 18.8165C15.7593 14.5929 20.976 11.3712 27.0411 10.4873C29.5964 10.1162 32.0324 10.4536 34.5281 11.0844C34.5736 11.096 34.6214 11.094 34.6659 11.0787C34.7103 11.0634 34.7495 11.0354 34.7788 10.9981C34.8081 10.9608 34.8263 10.9158 34.8312 10.8683C34.8361 10.8208 34.8275 10.7729 34.8065 10.7302C34.3591 9.79576 34.0442 8.63866 33.388 7.91335C32.3307 6.75625 31.1508 6.65841 29.9013 5.90613C27.8233 4.65456 25.4668 5.83528 23.6672 7.29263C22.0299 8.61504 19.3354 7.9201 17.8175 7.92685C13.8039 7.94709 13.1344 11.9211 9.96923 12.4406C6.08489 13.0815 0.705799 14.0329 1.35871 19.5485C1.67357 22.217 2.56843 23.5326 3.6058 25.5871ZM13.6017 31.8314C14.7517 30.5124 18.5333 29.9288 20.3032 29.7095C22.7778 29.4036 25.1553 29.6387 27.4355 30.4146C27.5482 30.4528 27.6421 30.4652 27.7172 30.4517C27.7482 30.4453 27.7773 30.4315 27.802 30.4114C27.8267 30.3913 27.8462 30.3656 27.8589 30.3364C27.8716 30.3072 27.8772 30.2754 27.875 30.2438C27.8728 30.2122 27.863 30.1816 27.8465 30.1548C26.618 28.1712 25.2923 26.2697 23.8693 24.4502C23.1236 23.4955 22.3348 22.9929 21.0621 23.0772C19.0294 23.2144 17.0662 23.7114 15.1727 24.5683C15.0965 24.6033 15.0124 24.6168 14.9294 24.6072C14.8463 24.5976 14.7673 24.5654 14.7008 24.5139C14.6342 24.4624 14.5826 24.3936 14.5513 24.3147C14.52 24.2358 14.5103 24.1497 14.5231 24.0656C14.7252 22.6724 20.1839 21.9167 21.3969 21.7784C21.4224 21.7759 21.4466 21.7658 21.4664 21.7493C21.4862 21.7328 21.5008 21.7107 21.5083 21.6857C21.5157 21.6608 21.5157 21.6342 21.5083 21.6092C21.5009 21.5843 21.4863 21.5622 21.4665 21.5456C21.0091 21.1442 16.9591 18.1755 18.7024 17.629C18.8305 17.5885 18.9421 17.6166 19.0371 17.7134L25.0658 23.7452C25.152 23.8329 25.216 23.8183 25.258 23.7013C25.5596 22.8377 25.6823 22.0382 26.1893 21.3129C27.5615 19.354 29.3567 17.9056 31.5751 16.9678C31.9297 16.8194 32.576 16.8126 32.566 17.3524C32.5638 17.4693 32.5108 17.557 32.4069 17.6155C29.3744 19.2854 27.1671 20.9721 26.0634 24.3996C26.028 24.5031 26.0247 24.6088 26.0535 24.7167C26.2214 25.3892 26.3805 25.8322 26.5307 26.0459C27.6576 27.6247 28.5955 29.3137 29.3445 31.1129C29.3504 31.1275 29.3603 31.14 29.3731 31.1489C29.3858 31.1579 29.4009 31.1628 29.4164 31.1632C29.4319 31.1636 29.4471 31.1593 29.4603 31.151C29.4734 31.1426 29.4839 31.1306 29.4904 31.1162C30.8249 28.3297 32.7803 26.0987 35.3567 24.4232C36.8912 23.4247 38.1672 22.3823 39.6255 22.1799C39.7426 22.1641 39.8409 22.2012 39.9204 22.2912L40.0961 22.4902C40.1256 22.5238 40.1471 22.5639 40.1588 22.6074C40.1704 22.6509 40.172 22.6965 40.1633 22.7407C40.1546 22.7849 40.1359 22.8265 40.1087 22.862C40.0815 22.8976 40.0466 22.9262 40.0066 22.9456C36.6923 24.5447 29.7721 29.0449 30.3554 33.5182C30.6471 35.7649 30.9553 38.0105 31.2801 40.255C31.648 42.8189 31.6148 45.2748 31.5386 47.7341C31.5187 48.411 31.7275 48.4942 32.165 47.9837C34.1956 45.6133 36.7034 43.9648 39.6884 43.0382C39.9933 42.9437 40.1535 42.7346 40.169 42.4107C40.3645 37.9375 40.1922 33.3664 43.8048 30.2155C43.8909 30.1413 43.9296 30.0468 43.9208 29.9321C43.6755 26.977 43.3772 24.7909 44.6599 22.0078C45.0841 21.0868 45.969 20.5707 46.5722 19.7509C46.6764 19.6096 46.7243 19.4335 46.7065 19.2578C46.6887 19.0821 46.6064 18.9197 46.4761 18.803C41.392 14.2656 33.8719 10.7909 27.0444 11.6208C21.8708 12.2517 16.9193 15.3283 13.0416 18.7929C8.51094 22.8377 7.64923 29.2575 7.83814 35.0464C7.84024 35.1007 7.86151 35.1524 7.89803 35.1921C7.93455 35.2317 7.98389 35.2566 8.037 35.2623C9.5914 35.4242 10.8144 36.2946 12.034 36.7027C15.0732 37.7249 17.7677 38.3355 18.8615 41.7832C19.2304 42.9437 19.5796 44.1244 19.9088 45.3254C19.9419 45.4423 20.017 45.5053 20.1341 45.5143C22.7414 45.7055 24.836 46.7693 26.418 48.7056C27.2797 49.7582 27.8266 51.2931 28.4696 52.6223C28.5138 52.7145 28.5701 52.7235 28.6386 52.6493C29.6506 51.5585 30.2383 50.4565 30.4018 49.3432C30.6437 47.697 30.8625 43.4228 29.8781 41.4358C29.8273 41.3368 29.7544 41.2615 29.6594 41.2097C27.2797 39.9143 24.4129 39.6714 21.7548 39.7254C21.2875 39.7355 20.9196 39.8165 20.86 39.2025C20.8536 39.1394 20.8596 39.0755 20.8778 39.0149C20.896 38.9542 20.926 38.898 20.9659 38.8495C21.0058 38.801 21.0549 38.7612 21.1101 38.7326C21.1654 38.704 21.2257 38.6871 21.2875 38.683C24.182 38.4648 26.9737 38.8629 29.6627 39.8772C29.9831 39.9987 30.1234 39.8862 30.0836 39.5399C29.8317 37.3021 29.4274 35.0913 28.8706 32.9076C28.8441 32.8064 28.7888 32.7243 28.7049 32.6613C24.2737 29.335 19.2658 30.7553 14.417 32.297C14.1231 32.3914 13.8569 32.3318 13.6183 32.1182C13.5188 32.0282 13.5133 31.9326 13.6017 31.8314ZM52.5677 21.9876C53.7874 21.603 56.2035 20.6618 56.3029 19.5081C56.694 14.9909 51.9446 14.6603 49.5053 17.0521C48.753 17.7943 48.4945 18.9615 48.2791 19.9871C48.2547 20.0995 48.1951 20.1895 48.1001 20.257C47.5267 20.6618 46.8738 20.9384 46.4264 21.4208C44.6135 23.3876 44.4312 26.5654 44.9548 29.1158C45.1371 30.0131 45.1172 30.4179 44.4743 31.015C41.3522 33.9264 41.4649 38.1466 41.2959 42.1273C41.2938 42.167 41.3019 42.2065 41.3194 42.242C41.3369 42.2775 41.3631 42.3077 41.3955 42.3298C41.4279 42.3519 41.4653 42.3651 41.5042 42.368C41.5431 42.371 41.5821 42.3636 41.6173 42.3466C50.0688 38.2714 52.4749 33.9938 51.6 24.376C51.5514 23.8295 51.7944 23.0975 52.3291 22.1799C52.3843 22.0832 52.4639 22.0191 52.5677 21.9876ZM19.3387 46.3746C19.0537 46.3296 18.8824 46.162 18.825 45.8719C18.4958 44.1784 18.0031 42.5501 17.3468 40.9871C16.6111 39.2396 13.3664 38.3187 11.633 37.8261C10.5625 37.5225 9.64111 36.4565 8.62031 36.4396C6.19094 36.4025 4.06317 36.1562 2.67448 38.0825C-0.0498582 41.8642 7.6194 42.1341 9.17048 42.2285C10.357 42.2994 12.3555 47.4878 12.8659 48.6483C15.0765 53.695 22.8154 54.2314 27.5018 54.1977C27.5511 54.1974 27.5995 54.1848 27.6429 54.1611C27.6863 54.1374 27.7234 54.1031 27.7511 54.0614C27.7788 54.0196 27.7962 53.9715 27.8018 53.9212C27.8075 53.871 27.8012 53.82 27.7835 53.7726C25.9971 49.1138 24.3466 47.1842 19.3387 46.3746Z" fill="#0196BD"/>
</g>
<defs>
<clipPath id="clip0_125_17785">
<rect width="58" height="56" fill="white" transform="translate(0 0.845825)"/>
</clipPath>
</defs>
</svg>
