<svg width="59" height="57" viewBox="0 0 59 57" fill="none" xmlns="http://www.w3.org/2000/svg">
<g id="&#208;&#184;&#208;&#186;&#208;&#190;&#208;&#189;&#208;&#186;&#208;&#176; &#209;&#134;&#208;&#178;&#208;&#181;&#209;&#130;&#208;&#189;&#208;&#176;&#209;&#143; &#208;&#186;&#208;&#176;&#208;&#191;&#209;&#131;&#209;&#129;&#209;&#130;&#208;&#176; 1" clip-path="url(#clip0_125_17797)">
<path id="Vector" d="M45.6325 9.97467C48.3512 9.10356 51.1969 8.35245 51.9173 12.2058C51.9445 12.3539 52.0352 12.425 52.1892 12.4191C54.0229 12.3569 55.3279 13.0013 56.1042 14.3525C56.9516 15.8236 56.4123 17.7302 57.237 19.3747C58.1614 21.2176 58.0391 23.0369 56.87 24.8325C56.7884 24.9628 56.6767 25.0606 56.5347 25.1258C55.7342 25.5021 55.3218 26.2576 55.2977 27.3925C55.2478 29.6236 52.1348 30.6058 50.3133 31.0591C50.1653 31.0947 50.0444 31.1702 49.9508 31.2858C48.3422 33.2458 46.3484 34.348 43.8291 33.468C43.6871 33.4176 43.5587 33.4399 43.4439 33.5347C40.7795 35.7613 36.5066 39.9925 35.8812 43.4591C35.2801 46.7836 34.5747 50.0784 33.7652 53.3436C33.3981 54.8191 33.3664 56.4413 31.273 56.2991C29.4333 56.1776 27.6132 55.3495 25.8128 53.8147C25.7041 53.7199 25.6376 53.6028 25.6134 53.4636C25.1543 50.6191 24.6196 48.1154 24.0094 45.9524C22.3464 40.068 18.6761 37.4458 14.3669 33.4458C14.2642 33.351 14.1479 33.3258 14.018 33.3702C11.5016 34.2325 9.67099 33.505 8.5261 31.188C8.46568 31.0636 8.36448 30.9999 8.2225 30.9969C3.61422 30.948 1.66125 28.4458 2.2775 24.0502C2.29563 23.9021 2.25031 23.7762 2.14156 23.6725C0.650782 22.2725 0.31547 19.9791 1.80625 18.5258C2.42703 17.9213 3.34234 17.6947 4.1625 17.2636C4.29844 17.1925 4.38755 17.0843 4.42984 16.9391C5.02344 14.8947 5.73484 12.2236 8.05031 11.8591C9.66797 11.6102 10.538 12.8458 12.2463 11.5036C12.3671 11.4087 12.506 11.3569 12.6631 11.348C14.0995 11.2902 15.9528 11.5258 17.1355 10.6502C20.4569 8.19245 19.1836 3.44578 24.4716 2.88578C25.328 2.7969 26.343 3.04578 27.3263 3.0769C27.4592 3.07986 27.58 3.0443 27.6888 2.97023C30.5223 1.03838 33.4978 0.842821 36.6153 2.38356C36.7422 2.44578 36.8766 2.46949 37.0186 2.45467C42.5799 1.90652 45.3621 4.34949 45.3652 9.78356C45.365 9.81525 45.3725 9.84652 45.3871 9.8748C45.4016 9.90308 45.4229 9.92756 45.449 9.94623C45.4751 9.96489 45.5053 9.9772 45.5372 9.98215C45.5691 9.98709 45.6018 9.98453 45.6325 9.97467ZM44.3139 15.7258C44.6553 15.2843 45.0963 14.9836 45.637 14.8236C45.7393 14.7935 45.8329 14.7402 45.9103 14.668C45.9877 14.5959 46.0466 14.5068 46.0824 14.4081C46.1181 14.3094 46.1297 14.2039 46.1161 14.1C46.1024 13.9961 46.0641 13.8968 46.0041 13.8102L44.4317 11.548C44.3381 11.4117 44.2897 11.2621 44.2867 11.0991C44.2641 9.9969 44.4634 8.88578 44.2777 7.89467C43.743 4.98208 41.929 3.45467 38.8356 3.31245C38.1877 3.28134 37.4491 3.49023 36.7377 3.52134C36.5745 3.52727 36.4235 3.48875 36.2845 3.40578C33.4329 1.68727 30.7186 1.85319 28.1419 3.90356C28.021 4.00134 27.8821 4.05467 27.725 4.06356C26.7644 4.12134 25.7041 3.78801 24.9383 3.82801C21.4583 4.02356 20.6381 6.5569 19.895 9.44134C19.8587 9.58949 19.7772 9.70801 19.6503 9.7969C17.3077 11.4813 15.3819 13.8813 17.6973 16.5658C19.6322 18.8102 17.1128 21.0147 18.4359 23.428C19.5234 25.4058 22.2014 25.6902 24.2541 25.2547C25.5228 24.988 26.0258 26.1436 26.8323 26.6413C30.4981 28.8902 31.9527 27.3302 34.8572 25.2547C35.014 25.1426 35.2084 25.0931 35.401 25.1162C35.5937 25.1393 35.7701 25.2333 35.8948 25.3791C36.8494 26.505 38.1318 27.0087 39.7419 26.8902C43.2309 26.6369 42.4289 23.5836 42.4062 21.2991C42.4032 21.0976 42.4984 20.9599 42.6917 20.8858C45.051 19.985 45.5796 18.4339 44.2777 16.2325C44.232 16.1549 44.211 16.0654 44.2175 15.9752C44.2239 15.8851 44.2575 15.7983 44.3139 15.7258ZM50.8933 13.068C50.8434 12.2858 50.9386 11.628 50.4402 10.9969C49.4252 9.72134 46.9692 9.96134 45.7005 11.0636C45.5615 11.188 45.5494 11.3228 45.6642 11.468C46.7245 12.8013 47.9072 15.0636 45.56 15.8591C45.3908 15.9154 45.3425 16.0236 45.415 16.1836C45.8983 17.2532 46.0615 18.3658 45.9044 19.5213C45.8802 19.6932 45.8017 19.8339 45.6688 19.9436L43.4303 21.8147C43.3246 21.9036 43.2883 22.0147 43.3216 22.148C43.7445 23.9525 43.4273 25.6058 42.37 27.108C42.2794 27.2384 42.1555 27.3243 41.9984 27.3658L39.3477 28.0502C39.1302 28.1065 39.0637 28.2369 39.1483 28.4413C39.4836 29.2769 40.1572 29.6665 41.1692 29.6102C41.6344 29.5836 41.8867 29.7984 41.9259 30.2547C42.1525 32.8991 46.0494 33.588 47.8845 31.9302C48.4404 31.4295 48.9947 30.9154 49.5475 30.388C49.6714 30.2695 49.8179 30.1939 49.987 30.1613C51.4552 29.8591 52.7873 29.2636 53.9836 28.3747C54.1377 28.2621 54.2207 28.1125 54.2328 27.9258L54.3688 25.7702C54.3778 25.6399 54.4261 25.5258 54.5138 25.428C55.0802 24.8013 55.8006 24.5836 56.2356 23.9347C57.2234 22.468 57.1585 20.9836 56.0408 19.4813C55.9502 19.3628 55.8973 19.228 55.8822 19.0769C55.5469 15.308 56 13.3613 51.2105 13.3569C51.0111 13.3569 50.9054 13.2606 50.8933 13.068ZM10.9186 13.508C9.15141 12.8236 7.56547 12.0947 6.50063 14.2102C5.95688 15.2887 5.58531 16.428 5.38594 17.628C5.36177 17.7791 5.28021 17.8858 5.14125 17.948C2.63094 19.068 0.288282 20.0147 2.94359 22.9169C3.81813 23.868 3.10672 25.1702 3.15203 26.0458C3.39672 31.2636 8.90672 28.5969 9.84016 31.4858C9.88849 31.628 9.97005 31.748 10.0848 31.8458C11.5499 33.0813 13.0724 33.0917 14.6523 31.8769C17.3167 29.8325 21.3858 31.7436 21.8298 26.7036C21.8449 26.5376 21.7709 26.431 21.6078 26.3836C20.7922 26.1525 19.818 26.0502 19.1564 25.6547C16.0616 23.7969 17.3122 21.2769 17.5795 18.388C17.5916 18.2369 17.5569 18.0962 17.4753 17.9658C16.1114 15.7613 15.3275 15.4769 15.8622 12.5836C15.9377 12.1658 15.7625 11.9925 15.3366 12.0636C13.5195 12.3747 12.79 11.908 11.3627 13.4058C11.2358 13.5391 11.0878 13.5732 10.9186 13.508ZM27.3716 28.428C26.4155 27.3925 24.6981 25.6458 22.9717 26.668C22.8388 26.748 22.7708 26.8636 22.7678 27.0147C22.7452 27.7791 22.6727 28.4458 23.0397 29.1747C24.4504 31.9806 25.8219 34.8236 27.1541 37.7036C27.1736 37.7431 27.2056 37.7755 27.2454 37.7958C27.2851 37.8161 27.3305 37.8233 27.3748 37.8163C27.419 37.8093 27.4598 37.7885 27.4911 37.757C27.5223 37.7255 27.5424 37.6849 27.5483 37.6413C27.8836 34.6902 27.8806 31.7391 27.5392 28.788C27.5241 28.6487 27.4682 28.5287 27.3716 28.428ZM37.6213 27.6591C36.9959 27.4325 36.0897 27.0325 35.6502 26.5436C35.6075 26.4968 35.5519 26.4631 35.4901 26.4467C35.4283 26.4303 35.3629 26.4318 35.302 26.4511C35.2411 26.4704 35.1872 26.5066 35.1468 26.5554C35.1065 26.6042 35.0814 26.6633 35.0747 26.7258L34.3316 34.5125C34.2802 35.0695 34.3874 35.1021 34.6533 34.6102L37.952 28.508C37.9932 28.4316 38.0172 28.3474 38.0226 28.2612C38.028 28.1749 38.0146 28.0887 37.9832 28.0082C37.9519 27.9278 37.9033 27.855 37.8409 27.7947C37.7784 27.7345 37.7035 27.6883 37.6213 27.6591ZM28.083 41.3969C28.059 41.4325 28.0257 41.4612 27.9866 41.48C27.9476 41.4988 27.9041 41.507 27.8607 41.5039C27.8173 41.5007 27.7755 41.4862 27.7397 41.4619C27.7039 41.4377 27.6754 41.4045 27.657 41.3658L22.1561 29.5302C22.0806 29.3673 21.9975 29.3643 21.9069 29.5213C20.5656 31.8236 17.788 31.7391 15.4091 32.3747C15.1493 32.4458 15.1176 32.5702 15.3139 32.748C16.1537 33.5065 17.646 34.8799 19.7908 36.868C24.245 40.9925 25.4866 46.7747 26.5106 53.0724C26.5348 53.2265 26.6133 53.3465 26.7463 53.4325C27.7205 54.068 30.6431 55.8058 32.0659 55.268C32.223 55.2087 32.3227 55.0976 32.365 54.9347C33.2954 51.2428 34.1156 47.5258 34.8255 43.7836C35.6502 39.4325 38.9081 36.508 42.1842 33.268C42.3141 33.1406 42.3277 33.0028 42.225 32.8547C41.3308 31.5391 40.1844 30.4873 38.7858 29.6991C38.6408 29.6191 38.5275 29.6502 38.4459 29.7924C37.4627 31.5258 34.5219 37.9524 33.1036 38.7302C33.0552 38.7561 33.0004 38.7685 32.9453 38.7661C32.8902 38.7637 32.8369 38.7466 32.7914 38.7167C32.7459 38.6868 32.7099 38.6452 32.6875 38.5966C32.665 38.548 32.6569 38.4943 32.6641 38.4413L34.0597 27.5436C34.0663 27.4844 34.0543 27.4246 34.0255 27.3722C33.9966 27.3199 33.9522 27.2774 33.8981 27.2503C33.844 27.2233 33.7828 27.2131 33.7226 27.221C33.6625 27.2289 33.6062 27.2546 33.5613 27.2947C32.2019 28.545 30.6205 28.9643 28.817 28.5525C28.7822 28.5446 28.7461 28.545 28.7114 28.5535C28.6768 28.5619 28.6447 28.5783 28.6178 28.6013C28.5908 28.6243 28.5698 28.6531 28.5564 28.6856C28.543 28.718 28.5376 28.7531 28.5406 28.788C28.8971 32.6873 28.8488 36.5702 28.3956 40.4369C28.3503 40.825 28.2461 41.145 28.083 41.3969Z" fill="#0196BD"/>
<path id="Vector_2" d="M38.5955 9.81913C39.4519 9.03691 38.6272 6.64135 38.3236 5.61024C38.2813 5.45913 38.3342 5.35394 38.4822 5.29468C39.4836 4.88135 41.0696 9.78357 38.668 10.9791C36.9054 11.8547 34.5672 10.9925 33.2849 9.67246C33.1731 9.55691 33.1595 9.43098 33.2441 9.29468C33.6972 8.56135 36.7105 11.5302 38.5955 9.81913Z" fill="#0196BD"/>
<path id="Vector_3" d="M24.2315 8.87689C22.419 10.9791 25.9625 12.9836 25.0834 13.9525C24.9897 14.0532 24.887 14.0606 24.7753 13.9747C23.2316 12.748 22.5655 11.271 22.777 9.54356C23.0126 7.59245 25.9081 6.77023 27.639 6.49912C27.8475 6.46652 27.9743 6.55097 28.0196 6.75245L28.0967 7.08578C28.139 7.26652 28.0695 7.38208 27.8882 7.43245C26.7917 7.74356 24.9837 8.00578 24.2315 8.87689Z" fill="#0196BD"/>
<path id="Vector_4" d="M29.8589 11.6725C29.8589 15.3525 32.632 16.9258 35.7314 14.5614C35.8002 14.509 35.8874 14.4852 35.9745 14.4952C36.0616 14.5051 36.1418 14.548 36.1981 14.6147C37.2176 15.8414 33.6153 16.6191 32.8767 16.5791C28.504 16.3391 28.2911 10.9258 29.6414 11.3747C29.7864 11.4221 29.8589 11.5214 29.8589 11.6725Z" fill="#0196BD"/>
<path id="Vector_5" d="M33.5748 19.7036C35.9355 20.828 39.6693 20.8013 39.1618 17.0769C39.1255 16.8191 39.195 16.5717 39.3702 16.3347C39.4669 16.2043 39.5772 16.1895 39.701 16.2902C39.9125 16.4621 40.0409 16.6813 40.0862 16.948C40.8157 21.3391 36.366 22.1702 33.3301 20.4102C33.2062 20.3391 33.1579 20.2339 33.1851 20.0947L33.2304 19.8725C33.2697 19.668 33.3845 19.6117 33.5748 19.7036Z" fill="#0196BD"/>
<path id="Vector_6" d="M24.1631 20.8413C26.0753 21.468 27.4211 20.2413 28.6581 19.0147C28.6869 18.9862 28.7221 18.9648 28.7608 18.952C28.7996 18.9392 28.8408 18.9355 28.8813 18.9411C28.9218 18.9467 28.9603 18.9615 28.994 18.9843C29.0276 19.0071 29.0553 19.0373 29.075 19.0724C30.1353 21.0191 22.0515 24.5702 21.7706 18.9436C21.7479 18.4369 21.7525 15.7613 22.9442 16.4947C23.0952 16.5865 23.139 16.7154 23.0756 16.8813C22.5409 18.2369 22.405 20.268 24.1631 20.8413Z" fill="#0196BD"/>
<path id="Vector_7" d="M52.4518 22.8325C53.5393 21.9792 53.5574 20.5036 53.5031 19.2369C53.5013 19.1899 53.5124 19.1432 53.5354 19.1018C53.5583 19.0604 53.5922 19.0259 53.6334 19.0018C53.6747 18.9777 53.7218 18.9649 53.7698 18.9648C53.8179 18.9648 53.865 18.9774 53.9064 19.0014C54.1782 19.1584 54.3383 19.3495 54.3867 19.5747C55.7823 26.0147 45.4782 25.9569 46.2395 22.0814C46.2488 22.0353 46.2722 21.9931 46.3065 21.9603C46.3409 21.9276 46.3846 21.9059 46.4319 21.8982C46.4792 21.8905 46.5277 21.8971 46.571 21.9171C46.6144 21.9371 46.6504 21.9696 46.6745 22.0103C47.9387 24.1392 50.5396 24.3258 52.4518 22.8325Z" fill="#0196BD"/>
<path id="Vector_8" d="M7.32089 20.397C7.73776 23.8103 11.2132 25.0636 13.9003 22.957C13.9433 22.9226 13.9954 22.9009 14.0505 22.8943C14.1056 22.8878 14.1615 22.8966 14.2117 22.9198C14.2619 22.9431 14.3044 22.9797 14.3343 23.0256C14.3642 23.0715 14.3802 23.1247 14.3806 23.1792V23.7214C14.3806 23.8725 14.3141 23.9866 14.1812 24.0636C8.84339 27.2458 4.83323 20.797 6.7998 20.0858C6.85483 20.066 6.91373 20.0586 6.97209 20.0642C7.03045 20.0698 7.08677 20.0882 7.13686 20.1181C7.18695 20.148 7.22951 20.1886 7.26137 20.2369C7.29324 20.2852 7.31358 20.3399 7.32089 20.397Z" fill="#0196BD"/>
</g>
<defs>
<clipPath id="clip0_125_17797">
<rect width="58" height="56" fill="white" transform="translate(0.333496 0.845825)"/>
</clipPath>
</defs>
</svg>
