<svg width="59" height="57" viewBox="0 0 59 57" fill="none" xmlns="http://www.w3.org/2000/svg">
<g id="&#208;&#184;&#208;&#186;&#208;&#190;&#208;&#189;&#208;&#186;&#208;&#176; &#208;&#191;&#208;&#190;&#208;&#188;&#208;&#184;&#208;&#180;&#208;&#190;&#209;&#128; 1" clip-path="url(#clip0_125_17790)">
<path id="Vector" d="M26.6111 9.65431L26.1191 4.15529C26.1018 3.95332 26.164 3.77431 26.3055 3.61824C27.0443 2.81649 27.942 2.19376 28.9984 1.75004C29.1099 1.70353 29.2325 1.68204 29.3556 1.68747C29.4788 1.69289 29.5986 1.72506 29.7048 1.78116C29.811 1.83727 29.9003 1.91562 29.9649 2.0094C30.0295 2.10317 30.0675 2.20953 30.0755 2.31922L30.5675 9.20906C30.5791 9.3656 30.6514 9.51376 30.7723 9.62839C30.8931 9.74302 31.0549 9.81705 31.2304 9.83791C35.803 10.3887 40.3084 11.6281 43.5243 14.9146C45.0054 16.434 46.6107 16.3835 48.475 17.2005C52.043 18.7704 56.3464 21.63 57.1284 25.293C59.5416 36.6445 53.317 50.1763 40.6968 54.514C32.9238 57.1855 23.8405 56.373 16.2384 53.2517C5.11482 48.6845 0.521432 38.0904 1.41215 27.7763C1.97661 21.3087 7.6575 19.2799 13.2504 16.7691C13.8649 16.4937 14.4173 16.0805 14.9075 15.5297C17.7868 12.2982 21.5999 10.4346 26.347 9.9389C26.5403 9.92054 26.6283 9.82567 26.6111 9.65431ZM32.1677 22.7041C32.1781 22.6494 32.2066 22.5987 32.2496 22.5584C32.2926 22.5181 32.3481 22.49 32.4092 22.4777C32.4702 22.4654 32.534 22.4695 32.5924 22.4894C32.6508 22.5092 32.7013 22.5441 32.7373 22.5894C33.3588 23.3514 34.1666 23.8517 35.28 23.4937C37.0407 22.9291 38.6875 21.9238 40.7641 21.8917C42.5818 21.8641 44.5652 22.6674 46.2948 23.3468C46.3533 23.3692 46.4184 23.3742 46.4804 23.3611C46.5424 23.348 46.5979 23.3175 46.6387 23.2741C46.6795 23.2307 46.7033 23.1768 46.7067 23.1204C46.7101 23.064 46.6927 23.0081 46.6573 22.9612C43.2602 18.5776 39.2986 21.3363 34.467 21.0333C34.2805 21.0211 34.1235 20.9553 33.9957 20.8359C29.5784 16.8379 29.0346 9.10349 28.8379 3.86611C28.835 3.7863 28.8076 3.70871 28.7584 3.64179C28.7093 3.57487 28.6403 3.52121 28.5591 3.48664C28.4779 3.45207 28.3876 3.43793 28.2979 3.44576C28.2083 3.45358 28.1227 3.48308 28.0507 3.53103C27.488 3.89824 27.2549 4.3848 27.3516 4.9907C28.2216 10.6045 28.755 14.9284 26.6939 20.4182C26.6266 20.6002 26.4909 20.7562 26.3091 20.8605C26.1274 20.9649 25.9105 21.0113 25.6945 20.992C22.8721 20.7441 18.4289 20.0648 16.1141 21.6897C15.9691 21.7876 15.9743 21.881 16.1296 21.9697C19.8064 24.0353 23.4107 23.3835 27.4655 23.1035C27.6416 23.0912 27.7866 23.1448 27.9005 23.2641C30.8627 26.4161 32.5647 30.0362 33.0066 34.1245C33.0239 34.2775 33.1085 34.3157 33.2604 34.2392C35.6632 33.0136 31.6861 25.1553 32.1677 22.7041ZM10.2261 23.1127C10.2416 22.47 16.0054 20.3081 16.8909 20.0143C19.3766 19.1927 22.1213 19.5737 24.7623 19.8215C25.2836 19.8705 25.6185 19.6716 25.767 19.2248C26.6197 16.7155 27.0046 14.1573 26.9218 11.55C26.9198 11.4988 26.9063 11.4484 26.8821 11.4019C26.8579 11.3554 26.8235 11.3138 26.7809 11.2795C26.7384 11.2452 26.6886 11.219 26.6345 11.2024C26.5804 11.1858 26.5231 11.1791 26.4661 11.1828C22.7962 11.4368 19.677 12.6991 17.1084 14.9697C16.2729 15.7072 16.4438 16.0362 17.6211 15.9566C18.1389 15.9199 24.2652 15.8602 23.7629 17.2969C23.7207 17.4192 23.6277 17.5227 23.5028 17.5866C23.3778 17.6505 23.2302 17.67 23.0896 17.6412C20.0826 17.0077 17.1964 17.0644 14.4311 17.811C8.22715 19.4864 2.38572 22.8648 2.30804 29.2451C2.22 36.5664 5.555 46.4858 13.2866 50.3782C23.6696 55.6018 36.7663 56.8137 46.4243 49.6071C52.863 44.7966 56.2066 38.2571 56.4552 29.9887C56.5691 26.1973 55.8182 23.4799 52.4936 20.9323C47.4289 17.0445 42.8718 16.8884 36.3002 17.095C35.7961 17.1133 35.6304 16.8272 35.803 16.2366C35.8514 16.0683 35.9739 15.9811 36.1707 15.975L41.9552 15.8373C42.0313 15.8358 42.1053 15.8143 42.1676 15.7754C42.2299 15.7366 42.2777 15.6822 42.3049 15.6191C42.3321 15.556 42.3375 15.4872 42.3204 15.4214C42.3034 15.3556 42.2645 15.2959 42.2089 15.2497C39.0914 12.6915 35.387 11.3022 31.0957 11.0818C30.9231 11.0727 30.8471 11.1446 30.8679 11.2976C31.2252 13.7304 32.5302 18.7015 35.2282 19.9363C35.387 20.0097 35.5527 20.0327 35.7254 20.0051C39.3037 19.4497 42.6854 18.3159 45.8443 20.5697C47.0509 21.4327 48.6355 22.9658 49.5366 24.274C49.6036 24.3697 49.6367 24.481 49.6318 24.5935C49.6269 24.7061 49.5841 24.8148 49.5089 24.9056C49.4337 24.9964 49.3296 25.0652 49.21 25.1031C49.0903 25.1411 48.9606 25.1465 48.8375 25.1186C46.804 24.6626 44.8759 24.1149 43.053 23.4753C39.3866 22.19 37.4239 24.5953 34.0889 24.7009C33.8265 24.707 33.773 24.8034 33.9284 24.99L34.3945 25.5363C34.5049 25.6648 34.6499 25.7382 34.8295 25.7566C37.1339 25.954 42.1261 27.1245 42.7527 29.4792C42.7651 29.5282 42.7603 29.5795 42.7391 29.6262C42.7178 29.6728 42.681 29.7125 42.6339 29.7397C42.5867 29.7669 42.5315 29.7803 42.4757 29.778C42.42 29.7758 42.3666 29.758 42.3229 29.7271C40.0961 28.2062 37.5827 27.2438 34.7829 26.8399C34.5619 26.8093 34.4687 26.8919 34.5032 27.0877C35.1712 31.2189 35.5338 33.973 32.8513 37.5212C32.7977 37.5913 32.7211 37.6451 32.6318 37.6753C32.5426 37.7055 32.4451 37.7107 32.3524 37.6902C32.2597 37.6697 32.1764 37.6244 32.1137 37.5605C32.0511 37.4966 32.012 37.4172 32.002 37.333C31.5514 33.4681 31.6032 30.5763 29.0295 26.7297C28.9535 26.6134 28.8379 26.5553 28.6825 26.5553C24.5189 26.6104 20.5521 27.4045 16.7821 28.9376C16.6759 28.9801 16.558 28.9941 16.443 28.9777C16.3279 28.9614 16.2208 28.9155 16.1348 28.8458C14.0738 27.175 26.9218 25.4674 27.7814 25.4169C27.8528 25.4124 27.9213 25.3902 27.9792 25.353C28.0371 25.3157 28.0821 25.2648 28.1091 25.206C28.136 25.1473 28.1439 25.083 28.1317 25.0205C28.1196 24.958 28.0879 24.8997 28.0404 24.8523C27.6019 24.4147 26.9339 24.2449 26.0363 24.3428C22.4268 24.7422 18.8846 24.8799 15.6636 23.1356C14.3638 22.4333 12.2561 23.1769 10.8061 23.5166C10.7365 23.5322 10.6637 23.5334 10.5936 23.5203C10.5234 23.5072 10.4577 23.48 10.4015 23.4409C10.3454 23.4018 10.3004 23.3518 10.2699 23.2949C10.2395 23.238 10.2245 23.1756 10.2261 23.1127Z" fill="#0196BD"/>
<path id="Vector_2" d="M6.94834 24.1614L6.90883 24.1504C6.61697 24.0688 6.30577 24.2124 6.21375 24.4711L4.8465 28.3147C4.75448 28.5734 4.91648 28.8493 5.20834 28.9308L5.24785 28.9419C5.53971 29.0235 5.85091 28.8799 5.94294 28.6212L7.31018 24.7775C7.40221 24.5188 7.2402 24.243 6.94834 24.1614Z" fill="#0196BD"/>
<path id="Vector_3" d="M10.0865 43.6766C10.7183 44.2336 11.1982 44.7522 11.5261 45.2327C11.647 45.4071 11.5986 45.528 11.3811 45.5953C10.9392 45.7299 10.5595 45.6504 10.2418 45.3566C6.55471 41.9553 4.73703 37.1494 3.98095 32.5822C3.95679 32.4353 4.02238 32.3313 4.17774 32.2701C4.80953 32.0099 5.16857 32.1186 5.25488 32.596C5.83488 35.8366 7.37292 41.2943 10.0865 43.6766Z" fill="#0196BD"/>
</g>
<defs>
<clipPath id="clip0_125_17790">
<rect width="58" height="56" fill="white" transform="translate(0.666504 0.845825)"/>
</clipPath>
</defs>
</svg>
