<svg width="58" height="57" viewBox="0 0 58 57" fill="none" xmlns="http://www.w3.org/2000/svg">
<g id="&#208;&#184;&#208;&#186;&#208;&#190;&#208;&#189;&#208;&#186;&#208;&#176; &#208;&#186;&#209;&#128;&#209;&#131;&#208;&#182;&#208;&#186;&#208;&#176; 1" clip-path="url(#clip0_125_17809)">
<path id="Vector" d="M25.6244 11.869C32.0619 11.9574 39.0062 11.9911 45.2921 13.3511C48.443 14.0332 49.164 13.89 48.9341 16.6353C48.7147 19.257 48.5283 21.8732 48.375 24.4837C48.3681 24.6381 48.4586 24.7265 48.6467 24.749C53.062 25.2753 57.143 26.0753 57.7125 30.3153C58.5067 36.2016 51.2019 40.3448 45.752 43.3384C44.0224 44.29 43.6357 46.2521 42.8049 47.709C41.4638 50.0641 40.3003 51.8114 39.3145 52.9511C37.3446 55.229 34.2147 55.7048 30.5413 56.109C24.9921 56.7153 13.1936 57.0479 9.85989 52.7742C5.21292 46.8205 2.4871 40.4935 1.68241 33.7932C1.26091 30.3097 0.889919 25.2809 0.569438 18.7069C0.50151 17.389 0.193222 15.9574 0.606015 14.4626C0.644333 14.3195 0.745354 14.2184 0.909078 14.1595C5.71106 12.4753 11.6939 12.2058 16.8617 11.9826C17.0602 11.9742 17.1717 11.8914 17.1961 11.7342C17.3947 10.5019 17.6821 9.72581 18.0583 9.40581C20.2111 7.57844 21.8936 5.97002 20.8015 3.75528C20.1954 2.53423 18.3822 1.98265 16.9453 1.47738C16.7816 1.42124 16.7711 1.35247 16.9139 1.27107C18.1419 0.551068 19.6363 1.09844 20.697 1.75949C22.7975 3.06896 22.761 5.78896 21.7107 7.53633C20.744 9.13633 18.8995 9.62475 18.6278 11.57C18.6203 11.6207 18.6266 11.6722 18.6461 11.7208C18.6656 11.7695 18.698 11.8143 18.7411 11.8522C18.7842 11.8901 18.8369 11.9202 18.8958 11.9405C18.9546 11.9609 19.0183 11.9709 19.0824 11.97L23.6963 11.869C23.8565 11.8662 23.9541 11.803 23.9889 11.6795L24.292 10.6942C24.3303 10.5679 24.4017 10.4556 24.5062 10.3574C25.7289 9.21633 27.2599 8.07949 27.6727 6.63949C28.2858 4.49212 27.1589 3.06756 24.292 2.36581C24.0446 2.30686 23.9523 2.17633 24.015 1.97423L24.1613 1.51528C24.2066 1.36651 24.3198 1.30896 24.501 1.34265C26.4448 1.69633 28.0855 2.50054 28.7073 4.10896C30.0502 7.59528 27.3592 8.77002 25.3266 11.4269C25.2935 11.4703 25.2753 11.52 25.2736 11.571C25.272 11.6219 25.287 11.6724 25.3172 11.7171C25.3474 11.7619 25.3916 11.7996 25.4456 11.8262C25.4995 11.8529 25.5612 11.8676 25.6244 11.869ZM27.6884 17.0311C26.6067 18.1048 24.2711 13.5995 24.0725 13.1237C23.9924 12.9441 23.8339 12.857 23.597 12.8626L19.3489 12.9679C19.2768 12.969 19.2066 12.986 19.1457 13.0172C19.0849 13.0483 19.0357 13.0924 19.0035 13.1448C18.9713 13.1971 18.9573 13.2557 18.9629 13.3143C18.9685 13.3729 18.9935 13.4293 19.0354 13.4774C19.49 13.9995 21.4076 15.6669 20.8015 16.2479C20.6831 16.3658 20.5368 16.3981 20.3626 16.3448C19.0302 15.9448 18.1366 14.2479 17.6559 13.2542C17.5932 13.1167 17.4713 13.0479 17.2902 13.0479C15.1896 13.0353 2.70133 13.6753 1.93322 15.2121C1.90086 15.2758 1.88588 15.3444 1.88929 15.4133C1.8927 15.4821 1.91441 15.5497 1.95298 15.6115C1.99155 15.6732 2.04609 15.7278 2.11296 15.7714C2.17984 15.8151 2.25751 15.8469 2.34079 15.8648C8.62673 17.2163 14.317 17.5363 21.4024 17.6879C29.6426 17.8605 39.2048 17.7974 47.0948 15.7048C47.2039 15.6759 47.2991 15.6204 47.3673 15.5461C47.4355 15.4717 47.4734 15.3821 47.4757 15.2897C47.478 15.1972 47.4446 15.1065 47.3801 15.03C47.3156 14.9535 47.2232 14.895 47.1157 14.8626C40.7357 12.9342 32.5374 12.7995 25.7028 12.8963C25.6422 12.8973 25.5829 12.9109 25.5308 12.9359C25.4786 12.9608 25.4354 12.9962 25.4054 13.0387C25.3754 13.0811 25.3596 13.1291 25.3595 13.178C25.3594 13.2268 25.3751 13.2749 25.4049 13.3174L27.7302 16.6311C27.7733 16.6931 27.7924 16.7642 27.7849 16.8355C27.7775 16.9067 27.7439 16.9748 27.6884 17.0311ZM21.0314 18.6563C14.5556 18.6086 8.15647 18.036 1.83394 16.9384C1.80801 16.9339 1.78111 16.9342 1.75536 16.9394C1.7296 16.9445 1.70567 16.9545 1.68544 16.9683C1.66522 16.9822 1.64923 16.9996 1.63874 17.0192C1.62824 17.0389 1.62352 17.0602 1.62493 17.0816C1.99418 21.8788 2.36866 26.6774 2.74836 31.4774C3.32313 38.7448 5.92703 45.4886 10.5601 51.709C11.8315 53.4156 13.8433 54.4584 16.5952 54.8374C21.8466 55.5574 35.1291 56.4374 38.2903 52.29C42.8293 46.3335 45.5046 39.9672 46.3163 33.1911C46.844 28.7658 47.1157 23.1826 47.5756 17.1026C47.5895 16.9033 47.4763 16.8276 47.2359 16.8753C38.63 18.589 29.8412 18.7195 21.0314 18.6563ZM47.9413 29.6879C47.7741 33.5419 46.9991 37.4634 45.6161 41.4521C45.5325 41.6963 45.5395 41.9293 45.637 42.1511C45.6481 42.1766 45.6669 42.1996 45.6917 42.2179C45.7165 42.2362 45.7466 42.2493 45.7792 42.2559C45.8118 42.2626 45.8459 42.2627 45.8785 42.2561C45.9112 42.2496 45.9413 42.2366 45.9662 42.2184C50.4024 39.0311 57.9372 35.4016 56.401 29.8984C55.6015 27.0395 51.9334 25.8563 48.5893 25.8858C48.4011 25.8886 48.2949 25.9658 48.2705 26.1174C48.1103 27.1026 48.0005 28.2928 47.9413 29.6879Z" fill="#0196BD"/>
<path id="Vector_2" d="M27.6207 44.2142C20.3942 45.7974 15.911 40.6816 15.3728 35.4774C15.0628 32.4739 15.0279 29.504 15.2683 26.5679C15.2721 26.5227 15.2889 26.4789 15.3174 26.4399C15.3459 26.4009 15.3854 26.3678 15.4326 26.3433C15.4798 26.3187 15.5334 26.3034 15.5893 26.2986C15.6451 26.2937 15.7016 26.2994 15.7542 26.3153C20.241 27.6795 24.4908 29.3932 28.5038 31.4563C34.1784 34.3742 34.2411 40.2689 29.1204 43.6753C29.0783 43.703 29.0487 43.7411 29.0364 43.7838C29.0242 43.8265 29.0298 43.8712 29.0524 43.911C29.9094 45.4549 30.2177 47.0802 29.9773 48.7868C29.9663 48.8636 29.9284 48.9362 29.8682 48.9959C29.808 49.0556 29.728 49.0999 29.6377 49.1237C28.8957 49.3216 28.5299 49.0479 28.6449 48.4374C28.9166 47.0339 28.7198 45.6837 28.0544 44.3868C27.9743 44.2268 27.8297 44.1693 27.6207 44.2142ZM16.4335 33.6626C16.5589 37.2879 18.0533 41.1742 22.2492 43.01C26.9101 45.0479 31.4299 41.3889 31.6023 37.7889C31.7173 35.4353 30.3744 33.7174 27.8506 32.391C24.3811 30.5637 20.7025 29.031 16.815 27.7932C16.5328 27.7033 16.383 27.7805 16.3656 28.0247C16.2141 29.8605 16.3499 31.2584 16.4335 33.6626Z" fill="#0196BD"/>
<path id="Vector_3" d="M24.82 36.7195C22.9773 34.5216 20.915 32.4682 18.6333 30.5595C18.5843 30.518 18.5499 30.4668 18.5338 30.411C18.5177 30.3552 18.5204 30.297 18.5418 30.2423C18.5631 30.1877 18.6023 30.1387 18.6551 30.1004C18.708 30.0621 18.7727 30.036 18.8424 30.0247C20.8436 29.7174 25.1126 35.1574 25.9957 36.4626C26.1211 36.6479 26.2082 36.6367 26.257 36.4289L26.8474 33.9026C26.8787 33.7651 26.9815 33.7005 27.1557 33.7089C27.6538 33.7314 27.889 33.9363 27.8611 34.3237C27.7148 36.4542 27.7096 38.6002 27.8454 40.7616C27.8508 40.8482 27.8184 40.9338 27.7536 41.0036C27.6888 41.0735 27.5957 41.1234 27.4901 41.1447C26.6645 41.3089 25.8233 38.8626 25.4366 38.3068C25.3495 38.1833 25.2224 38.0977 25.0551 38.05C24.4438 37.8774 18.184 36.5974 17.9436 36.0163C17.8774 35.8591 17.9471 35.7819 18.1526 35.7847C19.3022 35.8058 20.4517 35.831 21.6065 36.0879C22.6341 36.3153 23.6896 36.544 24.773 36.7742C24.8496 36.791 24.8653 36.7728 24.82 36.7195Z" fill="#0196BD"/>
</g>
<defs>
<clipPath id="clip0_125_17809">
<rect width="58" height="56" fill="white" transform="translate(0 0.845825)"/>
</clipPath>
</defs>
</svg>
