<svg width="60" height="56" viewBox="0 0 60 56" fill="none" xmlns="http://www.w3.org/2000/svg">
<g id="Pasted-20230804-140455" clip-path="url(#clip0_125_17773)">
<path id="Vector" d="M34.7193 50.2943C57.2193 49.5364 65.2806 20.3545 46.5677 8.00461C38.6193 2.75825 28.329 3.18759 20.8226 9.02266C15.1494 13.431 12.1387 19.4839 11.7903 27.1817C11.7895 27.2073 11.7836 27.2325 11.7729 27.2559C11.7623 27.2792 11.7471 27.3003 11.7282 27.3178C11.7093 27.3353 11.6871 27.349 11.6629 27.358C11.6387 27.367 11.6129 27.3712 11.5871 27.3703L9.21934 27.2825C9.08815 27.276 9.02471 27.2077 9.02901 27.0776C9.16772 19.922 11.9226 13.3616 17.0548 8.4925C30.3935 -4.16643 51.0032 0.988862 58.0516 17.7785C59.7774 21.8865 59.6935 27.7118 59.1774 32.0247C57.7097 44.264 46.5387 52.7207 34.7742 53.1793C34.6494 53.1836 34.5688 53.1262 34.5322 53.0069C34.2828 52.1764 34.2666 51.3351 34.4839 50.4829C34.5161 50.3615 34.5946 50.2986 34.7193 50.2943Z" fill="#F7941D"/>
<path id="Vector_2" d="M24.7517 28.0208C25.113 27.1491 26.1904 26.2709 26.8226 25.5293C26.8936 25.4448 26.9226 25.3483 26.9097 25.2398C26.7904 24.2283 26.7904 17.2581 28.4162 17.5215C28.4762 17.5314 28.5333 17.5544 28.5836 17.5889C28.6338 17.6234 28.676 17.6686 28.707 17.7214C28.7381 17.7741 28.7573 17.833 28.7634 17.894C28.7694 17.955 28.7621 18.0166 28.742 18.0745C28.0302 20.1388 27.7302 22.2659 27.842 24.456C27.8452 24.5137 27.8621 24.5699 27.8913 24.6196C27.9205 24.6694 27.9611 24.7113 28.0096 24.7416C28.0581 24.772 28.1131 24.79 28.1699 24.7941C28.2267 24.7981 28.2835 24.7882 28.3355 24.765C30.5871 23.7664 33.042 23.4509 35.3065 24.521C38.3646 25.9652 39.4162 28.4729 39.5226 31.9043C39.8968 43.955 32.3904 55.7 19.1968 55.0788C12.5259 54.7665 8.23553 49.3933 8.7194 42.7939C8.83553 41.2424 10.8742 36.0123 9.18069 34.8316C9.08177 34.7622 8.97317 34.746 8.85489 34.7828C7.11725 35.3228 6.13231 36.459 5.90005 38.1915C5.57747 40.5984 5.31725 44.6587 5.1194 50.3723C5.11295 50.5328 5.02908 50.613 4.86779 50.613L4.17424 50.6032C4.02585 50.6032 3.95596 50.5284 3.96456 50.3788C4.25274 45.0446 4.51833 41.1112 4.76134 38.5786C4.96456 36.4579 6.42585 33.9014 8.79037 33.7583C12.8936 33.5111 9.5936 41.7238 9.77102 44.2738C10.6162 56.4546 24.5581 55.8919 31.3968 49.8649C36.413 45.4414 38.7581 38.0614 38.4613 31.4717C38.3 27.8777 35.8613 24.5633 31.9323 24.9764C24.8807 25.7147 24.6839 31.3742 23.2936 36.8645C22.9452 38.2468 22.4162 39.6324 20.9162 39.9902C18.0807 40.6667 16.0162 38.6534 14.8936 36.2367C13.413 33.0557 12.2807 30.1805 8.15166 30.2163C4.82585 30.2455 2.49682 33.4428 2.00973 36.4644C1.63338 38.8106 1.35166 42.7267 1.16456 48.2126C1.15489 48.4598 1.00005 48.7103 0.74521 48.6582C0.635532 48.6365 0.579618 48.5693 0.577468 48.4566C0.525855 44.0092 0.693597 39.9641 1.08069 36.3213C1.23553 34.8663 1.77532 33.4623 2.70005 32.1092C5.74521 27.6467 12.2581 28.3005 14.5968 33.1305C15.9259 35.8789 17.1549 39.6031 20.8259 39.0112C20.9312 38.9938 21.0237 38.9472 21.1033 38.8713C21.6538 38.3357 22.0194 37.7231 22.2 37.0336C22.7764 34.8132 23.3452 32.2795 23.9065 29.4324C23.928 29.324 23.9205 29.2177 23.8839 29.1136C22.3581 24.9146 22.5517 21.9418 23.7259 17.5801C23.7538 17.4825 23.8173 17.4261 23.9162 17.411L24.4452 17.3394C24.4995 17.3321 24.5547 17.3388 24.6057 17.3587C24.6568 17.3786 24.7022 17.4112 24.7377 17.4535C24.7733 17.4958 24.7979 17.5465 24.8093 17.601C24.8208 17.6555 24.8187 17.712 24.8033 17.7655C23.7323 21.3628 23.5839 24.3096 24.6226 28.0143C24.6592 28.14 24.7022 28.1422 24.7517 28.0208Z" fill="#0196BD"/>
</g>
<defs>
<clipPath id="clip0_125_17773">
<rect width="60" height="54.6429" fill="white" transform="translate(0 0.845703)"/>
</clipPath>
</defs>
</svg>
