<svg width="86" height="85" viewBox="0 0 86 85" fill="none" xmlns="http://www.w3.org/2000/svg">
<g id="Group 485">
<path id="Vector" d="M27.545 47.9387C29.9275 59.1856 32.4497 70.4991 35.1117 81.879C35.1941 82.2238 35.1435 82.5873 34.9698 82.8977C34.7962 83.2081 34.5119 83.443 34.1733 83.5561C26.9261 85.9619 18.1016 83.1368 12.212 78.9742C11.8193 78.6946 11.826 78.4218 12.232 78.1556L13.2502 77.4768C13.5497 77.2771 13.5497 77.0808 13.2502 76.8878L6.96119 72.7651C6.27573 72.3125 6.31899 71.9532 7.09097 71.687L8.23897 71.2977C8.72479 71.1246 8.75476 70.895 8.32884 70.6089C6.24584 69.198 4.52549 67.4245 3.16788 65.2882C2.78854 64.6959 2.95158 64.3998 3.65701 64.3998H5.03459C5.09006 64.3986 5.14426 64.3829 5.19184 64.3544C5.23942 64.3258 5.27876 64.2854 5.30596 64.237C5.33316 64.1887 5.34728 64.1341 5.34697 64.0786C5.34665 64.0231 5.33189 63.9687 5.30413 63.9206L1.21136 57.1925C1.13637 57.0667 1.09559 56.9236 1.0931 56.7772C1.0906 56.6308 1.1265 56.4864 1.19716 56.3582C1.26782 56.23 1.37081 56.1225 1.49589 56.0465C1.62097 55.9704 1.76374 55.9284 1.91008 55.9247L3.667 55.8947C4.21271 55.8814 4.33915 55.6452 4.04634 55.186C3.00816 53.5688 -0.136288 48.2582 0.322905 46.5013C0.396109 46.2218 0.565821 46.1419 0.832019 46.2617L2.15964 46.8706C2.25666 46.9121 2.36418 46.9225 2.46733 46.9002C2.57047 46.8779 2.66416 46.8242 2.73541 46.7463C2.80666 46.6685 2.85197 46.5704 2.86506 46.4657C2.87816 46.361 2.85841 46.2548 2.80852 46.1619C1.3045 43.4267 0.369482 40.5018 0.00345919 37.3873C-0.00949618 37.2735 0.0141455 37.1586 0.0709065 37.0591C0.127667 36.9597 0.214576 36.8809 0.319127 36.8342C0.423678 36.7874 0.540388 36.7752 0.652342 36.7993C0.764296 36.8234 0.865701 36.8825 0.941811 36.968L1.72041 37.8465C2.28608 38.5053 2.50573 38.4055 2.37929 37.547C1.87018 34.2029 0.712239 29.8705 1.59069 26.6162C1.67055 26.3301 1.83025 26.2702 2.06983 26.4366L3.19785 27.1952C3.7968 27.6012 4.02974 27.4481 3.89664 26.736C3.31765 23.5749 3.51394 20.4637 4.48557 17.4025C4.66525 16.8368 4.91147 16.8068 5.22426 17.3126L6.09272 18.7401C6.1345 18.807 6.19607 18.8591 6.26887 18.8894C6.34167 18.9196 6.42214 18.9264 6.49899 18.9089C6.57585 18.8913 6.64531 18.8502 6.69774 18.7914C6.75017 18.7325 6.78293 18.6587 6.79151 18.5804C7.03109 15.4459 7.69658 12.4046 8.788 9.45643C8.98099 8.94399 9.25719 8.89408 9.61656 9.30669L10.4251 10.245C10.8577 10.7442 11.1006 10.6643 11.1538 10.0055C11.4067 6.51826 12.5713 3.37379 14.6477 0.572055C14.8806 0.259272 15.1768 0.18274 15.5361 0.342459C18.5708 1.70007 21.0464 3.73649 22.9631 6.45171C23.2426 6.85101 23.4921 6.83437 23.7118 6.4018L24.2808 5.23385C24.4538 4.88114 24.6933 4.8279 24.9995 5.07414C27.4352 7.08393 29.4883 9.42648 31.1587 12.1018C31.4315 12.5477 31.6278 12.5144 31.7476 12.002L32.1768 10.1452C32.1894 10.0835 32.2187 10.0266 32.2616 9.98059C32.3045 9.93457 32.3596 9.90111 32.4209 9.88374C32.4822 9.86637 32.5475 9.86572 32.61 9.88188C32.6725 9.89803 32.7298 9.93038 32.7758 9.97551C34.9187 12.1384 36.5425 14.634 37.6473 17.4623C37.6765 17.5362 37.7251 17.6007 37.788 17.6491C37.851 17.6975 37.9259 17.7279 38.0047 17.7371C38.0836 17.7463 38.1634 17.734 38.2358 17.7014C38.3082 17.6689 38.3704 17.6173 38.4159 17.5522L39.1047 16.6039C39.3908 16.2046 39.6704 16.2079 39.9432 16.6138C41.76 19.2891 43.0377 22.194 43.7764 25.3285C43.9029 25.8476 44.1558 25.9208 44.5351 25.5481L45.154 24.9192C45.7996 24.2737 46.2787 24.3802 46.5915 25.2387C47.5498 27.9007 48.0256 30.6491 48.019 33.4842C48.019 34.0698 48.2852 34.2395 48.8176 33.9933L50.4647 33.2246C50.9572 32.9984 51.2167 33.1547 51.2434 33.6938L51.7425 42.2987C51.7691 42.678 51.9421 42.7645 52.2615 42.5582L53.5692 41.7297C53.6847 41.6553 53.8167 41.6105 53.9535 41.5991C54.0904 41.5877 54.228 41.6101 54.3542 41.6643C54.4803 41.7185 54.5913 41.8029 54.6772 41.91C54.7631 42.0172 54.8214 42.1438 54.847 42.2787C55.3528 44.9207 55.2696 47.5461 54.5974 50.1548C54.3978 50.9268 54.6407 51.1098 55.3261 50.7039L56.5939 49.9652C56.8801 49.7988 57.113 49.8587 57.2927 50.1449C58.0514 51.3627 55.8652 57.472 55.7554 57.8413C55.6356 58.2207 55.772 58.4103 56.1647 58.4103H57.4724C57.9249 58.4103 58.0447 58.61 57.8317 59.0093L54.2081 65.9071C54.0417 66.2332 54.1415 66.3963 54.5076 66.3963H55.6955C56.1147 66.3963 56.2445 66.5893 56.0848 66.9753C52.9636 74.5087 47.5432 79.5664 39.8234 82.1486C39.6459 82.2088 39.4581 82.2328 39.2712 82.219C39.0842 82.2051 38.902 82.1539 38.7353 82.0682C38.5686 81.9825 38.4208 81.8642 38.3008 81.7202C38.1807 81.5762 38.0909 81.4096 38.0365 81.2302L27.7646 47.8788C27.2722 46.275 27.199 46.295 27.545 47.9387Z" fill="#008592"/>
<path id="Vector_2" d="M59.0587 12.4123C60.6692 10.1097 62.6624 8.1997 65.0382 6.68237C65.4774 6.40286 65.747 6.52265 65.8468 7.04174L66.0065 7.89024C66.1329 8.55574 66.4157 8.63227 66.855 8.11984C68.9446 5.72405 71.5035 4.01705 74.5315 2.99885C74.73 2.93269 74.9454 2.93969 75.138 3.01856C75.3306 3.09743 75.4875 3.24286 75.5797 3.42809C76.8907 6.0568 77.6127 8.83857 77.7458 11.7734C77.7725 12.2725 78.022 12.4356 78.4945 12.2626L79.1633 12.013C79.6625 11.8333 79.9885 11.9997 80.1416 12.5121C80.887 15.021 81.2131 17.5765 81.1199 20.1786C81.1 20.6578 81.3229 20.8375 81.7887 20.7177L82.8069 20.4482C83.2595 20.3284 83.5223 20.5047 83.5955 20.9772C83.9549 23.4795 83.7985 25.9452 83.1264 28.3742C82.9667 28.9399 83.1829 29.1961 83.7752 29.1429L84.7236 29.043C85.1961 29.0031 85.4323 29.2194 85.4323 29.6919C85.4057 32.6534 84.8467 35.4984 83.7553 38.2269C83.6155 38.5796 83.7353 38.7959 84.1146 38.8757L85.5521 39.1652C85.9181 39.2384 86.0545 39.4514 85.9614 39.8041C85.2959 42.4994 84.1745 44.9783 82.5973 47.241C82.2779 47.7002 82.3976 47.9298 82.9566 47.9298H84.2743C84.4132 47.93 84.5494 47.9669 84.6695 48.0367C84.7895 48.1064 84.889 48.2066 84.9578 48.3272C85.0267 48.4477 85.0625 48.5843 85.0617 48.7231C85.0609 48.8619 85.0234 48.998 84.9531 49.1177L80.9103 55.9657C80.6773 56.3583 80.7872 56.6012 81.2397 56.6944L82.767 56.9939C82.8852 57.0176 82.9955 57.0707 83.0878 57.1483C83.1801 57.2259 83.2514 57.3254 83.2952 57.4377C83.3389 57.5501 83.3537 57.6716 83.3382 57.7912C83.3226 57.9107 83.2772 58.0245 83.2062 58.1219L79.2432 63.4924C79.1882 63.5651 79.15 63.6491 79.1312 63.7382C79.1124 63.8274 79.1135 63.9196 79.1345 64.0083C79.1555 64.097 79.1958 64.18 79.2525 64.2513C79.3093 64.3226 79.3811 64.3805 79.4628 64.4208L80.6407 64.9998C81.2463 65.2993 81.2896 65.6653 80.7705 66.0979L75.959 70.0709C75.6662 70.3105 75.6262 70.5833 75.8392 70.8894L76.3383 71.6481C76.5712 71.9875 76.5247 72.2837 76.1986 72.5365C74.3884 73.9075 72.3953 74.9024 70.2191 75.5213C69.7266 75.661 69.6734 75.9006 70.0594 76.24C71.387 77.408 70.9478 78.0968 69.5602 78.7756C63.8969 81.5241 57.8342 82.3127 51.3723 81.1414C51.2701 81.1233 51.1755 81.0756 51.1003 81.0042C51.025 80.9328 50.9724 80.8409 50.949 80.7398C50.9256 80.6388 50.9325 80.5331 50.9687 80.4358C51.0049 80.3386 51.0688 80.2542 51.1526 80.1931C55.495 76.9887 62.8021 68.5236 61.4146 62.604C61.3281 62.2446 61.3514 61.8953 61.4845 61.5559L63.7005 55.9557C63.8935 55.4632 63.7272 55.207 63.2014 55.1871L62.1832 55.1571C61.8638 55.1438 61.7173 54.9774 61.744 54.658L62.2831 48.3391C62.323 47.84 62.0967 47.5571 61.6043 47.4906L60.606 47.3508C60.3398 47.3176 60.1934 47.1645 60.1668 46.8916L59.3681 39.4747C59.3577 39.3708 59.3224 39.271 59.2651 39.1837C59.2078 39.0964 59.1304 39.0242 59.0392 38.9733C58.9481 38.9223 58.846 38.8941 58.7417 38.891C58.6373 38.888 58.5337 38.9101 58.4398 38.9556L57.4116 39.4647C56.9924 39.671 56.7494 39.5379 56.6829 39.0654L55.485 30.5404C55.4052 29.9814 55.0957 29.7884 54.5567 29.9614L53.6083 30.2709C53.2756 30.384 53.0559 30.2709 52.9494 29.9315L50.4139 22.0054C50.2808 21.5795 50.0146 21.4664 49.6153 21.666C48.7968 22.0919 48.0547 22.0354 47.3892 21.4963C47.0631 21.2301 46.9999 20.914 47.1995 20.548L49.2759 16.7147C49.4889 16.3154 49.805 16.2056 50.2242 16.3853L51.5719 16.9942C52.0111 17.1872 52.3305 17.0674 52.5302 16.6349C53.5883 14.3389 55.0757 12.3957 56.9924 10.8051C57.4316 10.4391 57.731 10.5289 57.8908 11.0746L58.2501 12.2825C58.4298 12.8881 58.6993 12.9314 59.0587 12.4123Z" fill="#F7941D"/>
</g>
</svg>
