<svg width="51" height="50" viewBox="0 0 51 50" fill="none" xmlns="http://www.w3.org/2000/svg">
<path id="Vector" d="M28.4805 28.9157C28.4805 28.9157 32.5905 16.4157 27.1805 14.4857C21.7805 12.5557 9.0705 13.9957 5.3505 18.9257C1.6205 23.8557 -0.529497 40.6757 5.1605 43.1657C8.1205 44.4657 14.5905 42.1757 19.2205 39.6457C23.2905 37.4257 27.2205 34.7457 27.2205 34.7457L27.1805 48.5357M30.7005 1.3357L30.6805 12.5057C30.6805 12.5057 51.0705 10.5357 49.2105 13.5457C46.8105 17.4357 46.6505 19.8157 43.2905 24.6457C39.9305 29.4757 35.1705 32.8257 32.8105 33.3357C30.4505 33.8557 31.2705 47.9557 31.2705 47.9557M16.0805 17.8057C16.0805 17.8057 7.0105 17.9957 5.5305 30.3857M25.8905 1.1557V12.0757" stroke="#0196BD" stroke-width="2" stroke-linecap="round" stroke-linejoin="round"/>
</svg>
