<svg width="62" height="71" viewBox="0 0 62 71" fill="none" xmlns="http://www.w3.org/2000/svg">
<g id="Pasted-20230804-140938" clip-path="url(#clip0_20_3299)">
<g id="Vector">
<path d="M22.5247 43.5637C21.2847 44.5312 17.6211 50.1441 15.6718 48.0352C15.3994 47.7408 15.2757 47.412 15.3008 47.0488C15.5497 43.1221 15.7141 39.2424 15.1786 35.3299C13.328 21.8308 26.2353 17.8337 36.2962 22.8359C36.4465 22.9111 36.5092 23.0316 36.4841 23.1976C35.85 27.3873 36.9068 31.1684 35.6574 35.3017C34.7368 38.3422 32.9379 40.34 30.2606 41.295C28.4147 41.9526 24.6618 41.8962 22.5247 43.5637Z" fill="#F7941D"/>
<path d="M48.292 31.3516C46.4038 34.0711 42.0497 41.6332 37.8506 37.0819C37.7473 36.9723 37.7128 36.8423 37.7473 36.692C38.0448 35.4395 38.2781 34.1885 38.4471 32.9391C38.79 30.4544 38.1324 27.7819 38.3908 25.2314C38.6726 22.5025 40.6077 22.4696 42.8106 23.1459C45.6006 24.0008 48.3515 24.6114 51.0632 24.9778C51.2225 24.9991 51.3754 25.0546 51.5113 25.1404C51.6472 25.2262 51.7631 25.3403 51.8509 25.475C51.9387 25.6096 51.9965 25.7616 52.0202 25.9206C52.044 26.0796 52.0332 26.2418 51.9885 26.3962C51.1994 29.1111 49.7058 29.3178 48.292 31.3516Z" fill="#F7941D"/>
</g>
<path id="Subtract" fill-rule="evenodd" clip-rule="evenodd" d="M53.6272 51.6501C61.1551 40.6011 62.6357 26.3643 61.1782 13.1545C61.1628 13.0343 61.098 12.9494 60.9839 12.9001C51.2058 8.88704 41.4354 4.88017 31.6727 0.879473C31.2331 0.699025 30.1967 0.73604 29.7618 0.916488C20.0546 4.89559 10.3274 8.87933 0.580147 12.8677C0.422833 12.9325 0.336465 13.0497 0.321042 13.2193C-1.80269 36.8672 6.50253 58.5487 28.4478 69.5699C29.2097 69.9524 30.024 70.2346 30.8907 70.4166C31.0511 70.4475 31.2038 70.429 31.3488 70.3611C40.5933 66.1198 48.0194 59.8828 53.6272 51.6501ZM31.0458 65.1118C50.7424 55.8904 59.7971 37.4338 56.8961 15.757C56.8818 15.6596 56.8423 15.5674 56.7815 15.4896C56.7207 15.4118 56.6406 15.3508 56.5491 15.3128L30.8468 4.80981C30.6895 4.74504 30.5322 4.74504 30.3749 4.80981L4.91325 15.2434C4.7412 15.3146 4.59176 15.431 4.48092 15.5801C4.37008 15.7292 4.30201 15.9055 4.284 16.0901C2.32683 36.5871 10.4516 55.6544 29.7086 64.774C29.9832 64.9035 30.2839 65.0238 30.6109 65.1349C30.7589 65.1842 30.9039 65.1765 31.0458 65.1118Z" fill="#F7941D"/>
</g>
<defs>
<clipPath id="clip0_20_3299">
<rect width="62" height="70.4545" fill="white"/>
</clipPath>
</defs>
</svg>
