<svg width="197" height="62" viewBox="0 0 197 62" fill="none" xmlns="http://www.w3.org/2000/svg">
<path d="M29.5552 0.800781C13.2331 0.800781 0 14.3043 0 30.9599C0 47.6163 13.2331 61.1153 29.5552 61.1153C45.8773 61.1153 59.1101 47.6163 59.1101 30.9599C59.1101 14.3043 45.8773 0.800781 29.5552 0.800781ZM29.5552 58.4859C14.6575 58.4859 2.57993 46.1612 2.57993 30.9599C2.57993 15.7578 14.6575 3.43282 29.5552 3.43282C44.451 3.43282 56.5295 15.7578 56.5295 30.9599C56.5295 46.1612 44.451 58.4859 29.5552 58.4859Z" fill="#B2B3B3"/>
<path d="M29.5557 4.93457C15.468 4.93457 4.04883 16.5858 4.04883 30.9607C4.04883 45.3335 15.468 56.9851 29.5557 56.9851C43.6412 56.9851 55.0601 45.3335 55.0601 30.9607C55.0601 16.5858 43.6412 4.93457 29.5557 4.93457Z" fill="#008496"/>
<path d="M42.1982 15.9629H34.3035L30.9414 43.1618C30.9414 43.1618 30.414 46.0619 24.9094 46.2346C21.0666 46.3536 20.7008 43.2414 20.7008 43.2414L22.0303 28.9636H18.512L17.1055 43.2414C17.1055 43.2414 17.6447 50.0403 25.1564 49.8619C33.6645 49.6633 34.9164 43.6007 34.9164 43.6007L37.0398 28.9636H42.1218C42.1218 28.9636 47.8124 28.2876 47.8256 22.2654C47.8414 16.0398 42.1982 15.9629 42.1982 15.9629ZM43.7486 22.8635C43.4361 25.2555 41.5995 25.4942 41.5995 25.4942H37.1822L38.0039 19.233H42.1852C42.1852 19.233 44.1725 19.6245 43.7486 22.8635Z" fill="#00545E"/>
<path d="M39.3587 13.3965H31.465L28.1029 40.5993C28.1029 40.5993 27.5752 43.4979 22.0692 43.6689C18.2269 43.7902 17.8611 40.679 17.8611 40.679L19.1916 26.3991H15.6735L14.2656 40.679C14.2656 40.679 14.8051 47.4739 22.3168 47.3C30.8258 47.0991 32.0767 41.0349 32.0767 41.0349L34.2001 26.3991H39.282C39.282 26.3991 44.9749 25.7218 44.9872 19.6988C45.0007 13.4742 39.3587 13.3965 39.3587 13.3965ZM40.9098 20.2978C40.5972 22.6888 38.7607 22.9305 38.7607 22.9305H34.3434L35.1637 16.6673H39.3455C39.3455 16.6673 41.3315 17.061 40.9098 20.2978Z" fill="#FEFEFE"/>
<path d="M40.9617 14.7939H33.0672L29.7041 41.9932C29.7041 41.9932 29.1776 44.8937 23.673 45.0641C19.8291 45.1854 19.4645 42.073 19.4645 42.073L20.794 27.795H17.2767L15.8691 42.073C15.8691 42.073 16.4081 48.8707 23.92 48.6948C32.4279 48.4941 33.68 42.433 33.68 42.433L35.804 27.795H40.8845C40.8845 27.795 46.5792 27.1168 46.5893 21.0959C46.605 14.8703 40.9617 14.7939 40.9617 14.7939ZM42.5119 21.6923C42.1997 24.085 40.3628 24.3265 40.3628 24.3265H35.9458L36.7674 18.0622H40.9477C40.9477 18.0622 42.9352 18.4558 42.5119 21.6923Z" fill="#008496"/>
<path d="M79.06 22.957H83.7646V32.3309C83.7646 33.2606 83.6237 34.1372 83.3442 34.9644C83.0634 35.791 82.6207 36.5121 82.0183 37.1298C81.4183 37.7491 80.7888 38.1835 80.1297 38.4338C79.2116 38.7851 78.1085 38.9585 76.819 38.9585C76.0785 38.9585 75.2669 38.9045 74.3884 38.7964C73.5092 38.6892 72.7734 38.4781 72.1829 38.1588C71.5899 37.8412 71.0496 37.3881 70.5592 36.8035C70.0677 36.217 69.7322 35.6119 69.5488 34.9907C69.2555 33.9913 69.1099 33.1038 69.1099 32.3309V22.957H73.844V32.5625C73.844 33.4211 74.0743 34.0897 74.5359 34.5723C74.9959 35.0549 75.6345 35.2962 76.4514 35.2962C77.2689 35.2962 77.9079 35.0585 78.3692 34.5827C78.8292 34.1097 79.06 33.4336 79.06 32.5625V22.957ZM86.9414 22.957H91.3419L97.1016 31.6591V22.957H101.563V38.6809H97.1016L91.3744 30.0289V38.6809H86.9414V22.957ZM104.893 22.957H109.626V38.6809H104.893V22.957ZM112.996 22.957H120.863C122.573 22.957 123.856 23.377 124.711 24.2157C125.567 25.0551 125.994 26.2455 125.994 27.7943C125.994 29.3853 125.53 30.6263 124.597 31.5212C123.669 32.419 122.247 32.8644 120.346 32.8644H117.764V38.6809H112.996V22.957ZM117.764 29.6654H118.913C119.819 29.6654 120.456 29.5027 120.827 29.1787C121.195 28.8532 121.378 28.4357 121.378 27.9268C121.378 27.4352 121.218 27.0162 120.9 26.6738C120.58 26.3295 119.979 26.1598 119.1 26.1598H117.764V29.6654ZM128.463 22.957H133.194V28.4357H138.38V22.957H143.114V38.6809H138.38V32.3112H133.194V38.6809H128.463V22.957ZM155.659 36.0954H150.323L149.561 38.6809H144.725L150.47 22.957H155.65L161.367 38.6809H156.423L155.659 36.0954ZM154.692 32.6809L153.004 27.0306L151.332 32.6809H154.692ZM162.946 38.6809V22.957H170.826C172.284 22.957 173.401 23.0866 174.175 23.3456C174.951 23.6007 175.57 24.08 176.046 24.7791C176.522 25.4767 176.753 26.3257 176.753 27.3293C176.753 28.1998 176.574 28.955 176.214 29.5898C175.854 30.2228 175.353 30.7347 174.712 31.1289C174.314 31.3812 173.759 31.5883 173.054 31.7512C173.616 31.9452 174.028 32.1395 174.286 32.3309C174.454 32.4593 174.703 32.7384 175.036 33.1599C175.367 33.5809 175.589 33.9075 175.7 34.1372L177.99 38.6809H172.655L170.13 33.8854C169.813 33.2652 169.534 32.8609 169.281 32.6768C168.938 32.4341 168.557 32.3112 168.129 32.3112H167.706V38.6809H162.946ZM167.706 29.3266H169.692C169.912 29.3266 170.324 29.2558 170.938 29.1152C171.246 29.0475 171.501 28.8827 171.7 28.6188C171.895 28.3538 171.99 28.0506 171.99 27.7051C171.99 27.1975 171.837 26.8073 171.526 26.5359C171.215 26.2628 170.634 26.127 169.776 26.127H167.706V29.3266ZM179.445 22.957H185.681L188.073 32.5239L190.469 22.957H196.663V38.6809H192.805V26.6896L189.797 38.6809H186.303L183.309 26.6896V38.6809H179.445V22.957Z" fill="black"/>
</svg>
