<svg xmlns="http://www.w3.org/2000/svg" width="288" height="91" viewBox="0 0 288 91" fill="none">
                <path d="M4.04352 36.0511C5.7024 36.0511 6.94656 37.2078 7.776 39.5213C8.62618 41.8347 9.05127 46.1257 9.05127 52.3944V61.5735C9.05127 67.3198 8.69875 71.7974 7.99373 75.0063C7.28871 78.2153 6.09639 79.8198 4.41677 79.8198H0V1.46156H8.33587V2.58096H0.31104V36.0511H4.04352ZM4.41677 78.7004C6.01344 78.7004 7.13319 77.2078 7.776 74.2227C8.41882 71.163 8.74023 66.9466 8.74023 61.5735V52.3944C8.74023 49.4093 8.63655 46.9466 8.42919 45.0063C8.24256 42.9914 7.95226 41.4242 7.55827 40.3048C7.18503 39.1108 6.69773 38.2899 6.09639 37.8422C5.51578 37.3944 4.83149 37.1705 4.04352 37.1705H0.31104V78.7004H4.41677Z" fill="black" fill-opacity="0.6"/>
                <path d="M12.88 60.7899L11.5425 79.8198H11.2315L16.7369 1.34962H17.1723L22.8022 79.8198H22.4911L21.1225 60.7899H12.88ZM12.9733 59.6705H21.0292L16.9546 2.80484L12.9733 59.6705Z" fill="black" fill-opacity="0.6"/>
                <path d="M37.4257 90.9019V79.8198H25.2951V90.9019H24.9841V78.7004H26.5704C27.0888 76.8347 27.3998 74.7078 27.5035 72.3198C27.6279 69.9317 27.7108 67.4317 27.7523 64.8198L28.6854 1.46156H35.746V78.7004H37.7367V90.9019H37.4257ZM28.0633 64.9317C28.0219 67.469 27.9493 69.9317 27.8456 72.3198C27.7627 74.6332 27.4827 76.7601 27.0058 78.7004H35.435V2.58096H28.9965L28.0633 64.9317Z" fill="black" fill-opacity="0.6"/>
                <path d="M40.2323 71.0884V79.8198H39.9213V71.0884H40.2323Z" fill="black" fill-opacity="0.6"/>
                <path d="M47.2343 41.2004V79.8198H46.9233V1.46156H47.2343V40.081H55.6324V1.46156H55.9435V79.8198H55.6324V41.2004H47.2343Z" fill="black" fill-opacity="0.6"/>
                <path d="M65.0606 39.5213V40.6407H58.4354V78.7004H66.2737V79.8198H58.1244V1.46156H66.2737V2.58096H58.4354V39.5213H65.0606Z" fill="black" fill-opacity="0.6"/>
                <path d="M79.0285 43.1033C78.282 43.1033 77.5873 43.3272 76.9445 43.775C76.3224 44.2228 75.7833 45.0063 75.3271 46.1257C74.8709 47.2451 74.5184 48.8123 74.2696 50.8272C74.0207 52.7675 73.8963 55.2302 73.8963 58.2153V70.5287C73.8963 72.0213 73.8548 73.6257 73.7719 75.3422C73.7097 77.0586 73.5645 78.5511 73.3364 79.8198H72.9632C73.2328 78.6257 73.3987 77.1705 73.4609 75.4541C73.5438 73.6631 73.5853 72.0213 73.5853 70.5287V58.2153C73.5853 53.8123 73.8756 50.2675 74.4562 47.581C75.0368 44.8944 75.9595 43.2526 77.2244 42.6556C75.9595 41.9839 75.0368 40.3048 74.4562 37.6183C73.8756 34.8571 73.5853 31.0138 73.5853 26.0884V19.0362C73.5853 13.7377 73.9171 9.48395 74.5806 6.27499C75.2649 3.06604 76.4054 1.46156 78.002 1.46156H82.2011V79.8198H81.8901V43.1033H79.0285ZM78.002 2.58096C76.4883 2.58096 75.4204 4.0735 74.7983 7.05857C74.197 9.96902 73.8963 13.9616 73.8963 19.0362V26.0884C73.8963 29.372 74.0104 32.0586 74.2385 34.1481C74.4666 36.1631 74.7983 37.7675 75.2338 38.9616C75.69 40.081 76.2291 40.8645 76.8512 41.3123C77.494 41.7601 78.2198 41.9839 79.0285 41.9839H81.8901V2.58096H78.002Z" fill="black" fill-opacity="0.6"/>
                <path d="M88.6382 1.46156C90.1934 1.46156 91.2613 2.84215 91.8419 5.60335C92.4225 8.36454 92.7128 12.3198 92.7128 17.469V22.8422C92.7128 27.2451 92.4951 30.7526 92.0596 33.3645C91.6241 35.9765 90.7636 37.5436 89.478 38.066C90.8258 38.6631 91.7693 40.4541 92.3084 43.4392C92.8683 46.4242 93.1482 50.2302 93.1482 54.8571V61.9093C93.1482 67.4317 92.8061 71.7974 92.1218 75.0063C91.4375 78.2153 90.2763 79.8198 88.6382 79.8198H84.3769V1.46156H88.6382ZM87.705 37.5063C88.5137 37.5063 89.2084 37.3198 89.789 36.9466C90.3904 36.4989 90.8776 35.7526 91.2509 34.7078C91.6449 33.663 91.9352 32.2078 92.1218 30.3422C92.3084 28.4019 92.4017 25.9019 92.4017 22.8422V17.469C92.4017 15.0063 92.3395 12.8795 92.2151 11.0884C92.1114 9.22275 91.9144 7.65559 91.6241 6.38693C91.3338 5.11827 90.9398 4.18544 90.4422 3.58842C89.9653 2.91678 89.3639 2.58096 88.6382 2.58096H84.688V37.5063H87.705ZM88.6382 78.7004C90.1726 78.7004 91.2509 77.2078 91.873 74.2227C92.5158 71.2377 92.8372 67.1332 92.8372 61.9093V54.8571C92.8372 48.8869 92.4328 44.7078 91.6241 42.3198C90.8362 39.8571 89.6439 38.6257 88.0472 38.6257H84.688V78.7004H88.6382Z" fill="black" fill-opacity="0.6"/>
                <path d="M99.3474 2.58096L98.6631 61.0138C98.6217 63.178 98.5802 65.3795 98.5387 67.6183C98.4972 69.7824 98.3728 71.7601 98.1655 73.5511C97.9788 75.3422 97.6782 76.8347 97.2634 78.0287C96.8487 79.2228 96.2578 79.8571 95.4905 79.9317H95.335V78.8123C96.0815 78.8123 96.6517 78.2526 97.0457 77.1332C97.4604 76.0138 97.7611 74.5959 97.9477 72.8795C98.1344 71.1631 98.238 69.2601 98.2588 67.1705C98.3002 65.0063 98.3314 62.9168 98.3521 60.9019L99.0364 1.46156H106.284V79.8198H105.973V2.58096H99.3474Z" fill="black" fill-opacity="0.6"/>
                <path d="M114.515 43.1033C113.768 43.1033 113.074 43.3272 112.431 43.775C111.809 44.2228 111.27 45.0063 110.814 46.1257C110.357 47.2451 110.005 48.8123 109.756 50.8272C109.507 52.7675 109.383 55.2302 109.383 58.2153V70.5287C109.383 72.0213 109.341 73.6257 109.258 75.3422C109.196 77.0586 109.051 78.5511 108.823 79.8198H108.45C108.719 78.6257 108.885 77.1705 108.947 75.4541C109.03 73.6631 109.072 72.0213 109.072 70.5287V58.2153C109.072 53.8123 109.362 50.2675 109.943 47.581C110.523 44.8944 111.446 43.2526 112.711 42.6556C111.446 41.9839 110.523 40.3048 109.943 37.6183C109.362 34.8571 109.072 31.0138 109.072 26.0884V19.0362C109.072 13.7377 109.404 9.48395 110.067 6.27499C110.751 3.06604 111.892 1.46156 113.489 1.46156H117.688V79.8198H117.377V43.1033H114.515ZM113.489 2.58096C111.975 2.58096 110.907 4.0735 110.285 7.05857C109.684 9.96902 109.383 13.9616 109.383 19.0362V26.0884C109.383 29.372 109.497 32.0586 109.725 34.1481C109.953 36.1631 110.285 37.7675 110.72 38.9616C111.176 40.081 111.716 40.8645 112.338 41.3123C112.981 41.7601 113.706 41.9839 114.515 41.9839H117.377V2.58096H113.489Z" fill="black" fill-opacity="0.6"/>
                <path d="M126.8 39.5213V40.6407H120.174V78.7004H128.013V79.8198H119.863V1.46156H128.013V2.58096H120.174V39.5213H126.8Z" fill="black" fill-opacity="0.6"/>
                <path d="M135.098 79.8198V2.58096H130.184V1.46156H140.324V2.58096H135.409V79.8198H135.098Z" fill="black" fill-opacity="0.6"/>
                <path d="M146.988 0.901855C147.817 0.901855 148.512 1.46156 149.072 2.58096C149.652 3.62573 150.119 5.08096 150.471 6.94663C150.824 8.73768 151.073 10.8272 151.218 13.2153C151.384 15.6033 151.467 18.1033 151.467 20.7153V26.6481H151.156V20.7153C151.156 18.2526 151.083 15.9019 150.938 13.6631C150.793 11.3496 150.554 9.33469 150.222 7.61827C149.911 5.90186 149.486 4.55857 148.947 3.58842C148.408 2.54365 147.755 2.02126 146.988 2.02126C146.2 2.02126 145.536 2.54365 144.997 3.58842C144.479 4.55857 144.053 5.90186 143.722 7.61827C143.411 9.33469 143.183 11.3496 143.037 13.6631C142.892 15.9019 142.82 18.2526 142.82 20.7153V60.566C142.82 63.0287 142.892 65.4168 143.037 67.7302C143.183 69.969 143.411 71.9466 143.722 73.663C144.053 75.3795 144.479 76.7601 144.997 77.8048C145.536 78.775 146.2 79.2601 146.988 79.2601C147.755 79.2601 148.408 78.775 148.947 77.8048C149.486 76.7601 149.911 75.3795 150.222 73.663C150.554 71.9466 150.793 69.969 150.938 67.7302C151.083 65.4168 151.156 63.0287 151.156 60.566V52.2825H151.467V60.566C151.467 63.178 151.384 65.678 151.218 68.066C151.073 70.4541 150.824 72.581 150.471 74.4466C150.119 76.2377 149.652 77.6929 149.072 78.8123C148.512 79.8571 147.817 80.3795 146.988 80.3795C146.158 80.3795 145.453 79.8571 144.873 78.8123C144.313 77.6929 143.856 76.2377 143.504 74.4466C143.151 72.581 142.892 70.4541 142.726 68.066C142.581 65.678 142.509 63.178 142.509 60.566V20.7153C142.509 18.1033 142.581 15.6033 142.726 13.2153C142.892 10.8272 143.151 8.73768 143.504 6.94663C143.856 5.08096 144.313 3.62573 144.873 2.58096C145.453 1.46156 146.158 0.901855 146.988 0.901855Z" fill="black" fill-opacity="0.6"/>
                <path d="M159.714 43.1033C158.968 43.1033 158.273 43.3272 157.63 43.775C157.008 44.2228 156.469 45.0063 156.013 46.1257C155.557 47.2451 155.204 48.8123 154.955 50.8272C154.706 52.7675 154.582 55.2302 154.582 58.2153V70.5287C154.582 72.0213 154.541 73.6257 154.458 75.3422C154.395 77.0586 154.25 78.5511 154.022 79.8198H153.649C153.918 78.6257 154.084 77.1705 154.147 75.4541C154.23 73.6631 154.271 72.0213 154.271 70.5287V58.2153C154.271 53.8123 154.561 50.2675 155.142 47.581C155.723 44.8944 156.645 43.2526 157.91 42.6556C156.645 41.9839 155.723 40.3048 155.142 37.6183C154.561 34.8571 154.271 31.0138 154.271 26.0884V19.0362C154.271 13.7377 154.603 9.48395 155.266 6.27499C155.951 3.06604 157.091 1.46156 158.688 1.46156H162.887V79.8198H162.576V43.1033H159.714ZM158.688 2.58096C157.174 2.58096 156.106 4.0735 155.484 7.05857C154.883 9.96902 154.582 13.9616 154.582 19.0362V26.0884C154.582 29.372 154.696 32.0586 154.924 34.1481C155.152 36.1631 155.484 37.7675 155.92 38.9616C156.376 40.081 156.915 40.8645 157.537 41.3123C158.18 41.7601 158.906 41.9839 159.714 41.9839H162.576V2.58096H158.688Z" fill="black" fill-opacity="0.6"/>
                <path d="M173.594 2.58096L172.909 61.0138C172.868 63.178 172.826 65.3795 172.785 67.6183C172.743 69.7824 172.619 71.7601 172.412 73.5511C172.225 75.3422 171.924 76.8347 171.51 78.0287C171.095 79.2228 170.504 79.8571 169.737 79.9317H169.581V78.8123C170.328 78.8123 170.898 78.2526 171.292 77.1332C171.707 76.0138 172.007 74.5959 172.194 72.8795C172.381 71.1631 172.484 69.2601 172.505 67.1705C172.546 65.0063 172.578 62.9168 172.598 60.9019L173.283 1.46156H180.53V79.8198H180.219V2.58096H173.594Z" fill="black" fill-opacity="0.6"/>
                <path d="M189.632 39.5213V40.6407H183.007V78.7004H190.845V79.8198H182.696V1.46156H190.845V2.58096H183.007V39.5213H189.632Z" fill="black" fill-opacity="0.6"/>
                <path d="M195.069 39.8571L193.327 49.0362V79.8198H193.016V1.46156H193.327V47.0213L201.912 1.46156H202.285L195.256 38.8496L202.938 79.8198H202.565L195.069 39.8571Z" fill="black" fill-opacity="0.6"/>
                <path d="M206.777 60.7899L205.44 79.8198H205.128L210.634 1.34962H211.069L216.699 79.8198H216.388L215.02 60.7899H206.777ZM206.87 59.6705H214.926L210.852 2.80484L206.87 59.6705Z" fill="black" fill-opacity="0.6"/>
                <path d="M223.08 1.46156C223.91 1.46156 224.604 1.94663 225.164 2.91678C225.745 3.88693 226.201 5.23022 226.533 6.94663C226.885 8.58843 227.134 10.566 227.279 12.8795C227.424 15.1183 227.497 17.581 227.497 20.2675V27.8795C227.497 34.0735 227.103 38.6631 226.315 41.6481C225.527 44.5586 224.252 46.0138 222.489 46.0138H219.192V79.8198H218.881V1.46156H223.08ZM222.489 44.8944C224.169 44.8944 225.371 43.5511 226.097 40.8645C226.823 38.1033 227.186 33.775 227.186 27.8795V20.2675C227.186 17.7302 227.113 15.3795 226.968 13.2153C226.844 11.0511 226.626 9.18544 226.315 7.61827C226.004 6.05111 225.579 4.81977 225.04 3.92424C224.521 3.02872 223.868 2.58096 223.08 2.58096H219.192V44.8944H222.489Z" fill="black" fill-opacity="0.6"/>
                <path d="M234.166 0.901855C234.996 0.901855 235.69 1.46156 236.25 2.58096C236.831 3.62573 237.297 5.08096 237.65 6.94663C238.002 8.73768 238.251 10.8272 238.396 13.2153C238.562 15.6033 238.645 18.1033 238.645 20.7153V26.6481H238.334V20.7153C238.334 18.2526 238.262 15.9019 238.116 13.6631C237.971 11.3496 237.733 9.33469 237.401 7.61827C237.09 5.90186 236.665 4.55857 236.126 3.58842C235.587 2.54365 234.934 2.02126 234.166 2.02126C233.378 2.02126 232.715 2.54365 232.176 3.58842C231.657 4.55857 231.232 5.90186 230.9 7.61827C230.589 9.33469 230.361 11.3496 230.216 13.6631C230.071 15.9019 229.998 18.2526 229.998 20.7153V60.566C229.998 63.0287 230.071 65.4168 230.216 67.7302C230.361 69.969 230.589 71.9466 230.9 73.663C231.232 75.3795 231.657 76.7601 232.176 77.8048C232.715 78.775 233.378 79.2601 234.166 79.2601C234.934 79.2601 235.587 78.775 236.126 77.8048C236.665 76.7601 237.09 75.3795 237.401 73.663C237.733 71.9466 237.971 69.969 238.116 67.7302C238.262 65.4168 238.334 63.0287 238.334 60.566V52.2825H238.645V60.566C238.645 63.178 238.562 65.678 238.396 68.066C238.251 70.4541 238.002 72.581 237.65 74.4466C237.297 76.2377 236.831 77.6929 236.25 78.8123C235.69 79.8571 234.996 80.3795 234.166 80.3795C233.337 80.3795 232.632 79.8571 232.051 78.8123C231.491 77.6929 231.035 76.2377 230.683 74.4466C230.33 72.581 230.071 70.4541 229.905 68.066C229.76 65.678 229.687 63.178 229.687 60.566V20.7153C229.687 18.1033 229.76 15.6033 229.905 13.2153C230.071 10.8272 230.33 8.73768 230.683 6.94663C231.035 5.08096 231.491 3.62573 232.051 2.58096C232.632 1.46156 233.337 0.901855 234.166 0.901855Z" fill="black" fill-opacity="0.6"/>
                <path d="M245.742 79.8198V2.58096H240.828V1.46156H250.968V2.58096H246.053V79.8198H245.742Z" fill="black" fill-opacity="0.6"/>
                <path d="M257.414 1.46156C258.969 1.46156 260.037 2.84215 260.618 5.60335C261.198 8.36454 261.488 12.3198 261.488 17.469V22.8422C261.488 27.2451 261.271 30.7526 260.835 33.3645C260.4 35.9765 259.539 37.5436 258.254 38.066C259.602 38.6631 260.545 40.4541 261.084 43.4392C261.644 46.4242 261.924 50.2302 261.924 54.8571V61.9093C261.924 67.4317 261.582 71.7974 260.897 75.0063C260.213 78.2153 259.052 79.8198 257.414 79.8198H253.153V1.46156H257.414ZM256.481 37.5063C257.289 37.5063 257.984 37.3198 258.565 36.9466C259.166 36.4989 259.653 35.7526 260.027 34.7078C260.421 33.663 260.711 32.2078 260.897 30.3422C261.084 28.4019 261.177 25.9019 261.177 22.8422V17.469C261.177 15.0063 261.115 12.8795 260.991 11.0884C260.887 9.22275 260.69 7.65559 260.4 6.38693C260.11 5.11827 259.716 4.18544 259.218 3.58842C258.741 2.91678 258.14 2.58096 257.414 2.58096H253.464V37.5063H256.481ZM257.414 78.7004C258.948 78.7004 260.027 77.2078 260.649 74.2227C261.291 71.2377 261.613 67.1332 261.613 61.9093V54.8571C261.613 48.8869 261.209 44.7078 260.4 42.3198C259.612 39.8571 258.42 38.6257 256.823 38.6257H253.464V78.7004H257.414Z" fill="black" fill-opacity="0.6"/>
                <path d="M264.111 20.7153C264.111 18.0287 264.194 15.4914 264.36 13.1034C264.525 10.7153 264.785 8.62574 265.137 6.83469C265.51 4.96902 265.977 3.5138 266.537 2.46902C267.117 1.42424 267.822 0.901855 268.652 0.901855C269.481 0.901855 270.186 1.42424 270.767 2.46902C271.348 3.5138 271.814 4.96902 272.167 6.83469C272.54 8.62574 272.809 10.7153 272.975 13.1034C273.141 15.4914 273.224 18.0287 273.224 20.7153V60.566C273.224 63.2526 273.141 65.7899 272.975 68.178C272.809 70.566 272.54 72.6929 272.167 74.5586C271.814 76.3496 271.348 77.7675 270.767 78.8123C270.186 79.8571 269.481 80.3795 268.652 80.3795C267.822 80.3795 267.117 79.8571 266.537 78.8123C265.977 77.7675 265.51 76.3496 265.137 74.5586C264.785 72.6929 264.525 70.566 264.36 68.178C264.194 65.7899 264.111 63.2526 264.111 60.566V20.7153ZM264.422 60.566C264.422 63.1034 264.494 65.5287 264.639 67.8422C264.785 70.081 265.023 72.0586 265.355 73.775C265.687 75.4168 266.122 76.7601 266.661 77.8048C267.2 78.775 267.864 79.2601 268.652 79.2601C269.44 79.2601 270.103 78.775 270.643 77.8048C271.182 76.7601 271.617 75.4168 271.949 73.775C272.301 72.0586 272.55 70.081 272.695 67.8422C272.841 65.5287 272.913 63.1034 272.913 60.566V20.7153C272.913 18.178 272.841 15.7899 272.695 13.5511C272.55 11.3123 272.301 9.33469 271.949 7.61827C271.617 5.90186 271.182 4.55857 270.643 3.58842C270.103 2.54365 269.44 2.02126 268.652 2.02126C267.864 2.02126 267.2 2.54365 266.661 3.58842C266.122 4.55857 265.687 5.90186 265.355 7.61827C265.023 9.33469 264.785 11.3123 264.639 13.5511C264.494 15.7899 264.422 18.178 264.422 20.7153V60.566Z" fill="black" fill-opacity="0.6"/>
                <path d="M281.904 79.5959H281.468L275.714 2.58096V79.8198H275.403V1.46156H275.963L281.686 78.3645L287.471 1.46156H288V79.8198H287.689V2.58096L281.904 79.5959Z" fill="black" fill-opacity="0.6"/>
              </svg>