<svg width="165" height="121" viewBox="0 0 165 121" fill="none" xmlns="http://www.w3.org/2000/svg">
<g id="Frame 513">
<g id="Group 500">
<path id="Vector" d="M86.5686 17.4224C86.9196 15.2627 86.2904 13.3822 87.0984 11.2491C87.1912 11.0099 87.3567 10.8482 87.5952 10.764C89.1493 10.2324 90.677 10.2855 92.1782 10.9235C92.4387 11.0342 92.58 11.2314 92.6021 11.5149L93.0061 17.6284C93.0193 17.8144 93.1209 17.9075 93.3107 17.9075H107.126C107.197 17.9073 107.267 17.8918 107.331 17.862C107.395 17.8322 107.452 17.7888 107.499 17.7347C107.545 17.6806 107.58 17.6171 107.6 17.5483C107.62 17.4796 107.626 17.4072 107.616 17.336C107.343 15.3336 107.466 13.3489 107.987 11.382C108.049 11.1472 108.188 10.9766 108.404 10.8703C109.755 10.2191 113.199 9.78052 113.577 12.1063C113.855 13.8562 113.895 15.4798 113.696 16.9772C113.68 17.0948 113.691 17.2144 113.726 17.3275C113.762 17.4407 113.822 17.5445 113.903 17.6315C113.983 17.7185 114.082 17.7866 114.191 17.8309C114.301 17.8751 114.419 17.8945 114.537 17.8875C117.597 17.7103 120.566 17.7236 123.445 17.9274C126.854 18.1666 128.527 20.045 128.465 23.5624C128.364 29.2462 128.291 34.9322 128.247 40.6204C128.18 48.9466 128.737 59.6785 128.392 69.2474C128.384 69.4689 128.452 69.6616 128.598 69.8255C130.293 71.7659 132.134 73.8923 133.247 76.1383C145.076 100.014 116.18 121.312 96.0858 104.101C95.3352 103.454 93.8936 101.722 91.761 98.9044C91.6241 98.7228 91.4409 98.6319 91.2113 98.6319C82.2792 98.6142 73.3581 98.6984 64.448 98.8844C55.1362 99.0771 44.5859 98.2931 35.7906 98.6652C31.9847 98.8247 30.0751 97.0327 30.0618 93.2893C30 69.8809 29.9845 46.4725 30.0155 23.0641C30.0221 18.5255 33.2806 17.9739 37.1881 17.9207C39.5944 17.8897 42.0029 17.8122 44.4137 17.6882C44.4695 17.6854 44.5241 17.6706 44.5737 17.6448C44.6233 17.6191 44.6669 17.5829 44.7014 17.5388C44.7359 17.4947 44.7606 17.4437 44.7738 17.3893C44.787 17.3348 44.7884 17.2781 44.778 17.223C44.2349 14.5251 43.9435 10.2988 48.0563 10.4517C51.8314 10.5912 50.9042 14.565 50.8777 16.8642C50.8688 17.5597 51.2088 17.9075 51.8976 17.9075H65.2362C65.3749 17.9075 65.508 17.8522 65.6061 17.7537C65.7043 17.6553 65.7594 17.5217 65.7594 17.3825C65.766 15.3026 65.0044 11.2026 67.5674 10.4384C68.1966 10.2457 70.614 10.3587 71.2895 11.1428C72.2366 12.2326 71.8723 15.8275 71.9121 17.2961C71.9209 17.5885 72.071 17.7347 72.3624 17.7347L86.1779 17.7546C86.403 17.7546 86.5333 17.6439 86.5686 17.4224ZM86.7607 25.3832L86.5752 20.1801C86.5701 20.0179 86.5022 19.8641 86.386 19.7512C86.2698 19.6384 86.1144 19.5753 85.9527 19.5754L72.23 19.5621C71.9783 19.5621 71.8635 19.6906 71.8856 19.9475C72.1439 22.7119 72.5611 25.8683 69.9517 26.5527C64.7527 27.9083 65.5806 23.0906 65.5938 20.0339C65.5982 19.7238 65.4437 19.5687 65.1302 19.5687H51.5333C51.2861 19.5687 51.1448 19.6928 51.1095 19.9409C50.902 21.4205 50.7872 22.9001 50.7651 24.3798C50.7187 27.091 47.1556 27.4299 45.672 26.1607C44.1753 24.8782 44.5528 21.9277 44.5726 20.0206C44.5726 19.7681 44.449 19.6352 44.2018 19.6219C41.7115 19.4956 32.1745 18.5587 31.7043 22.1138C31.4968 23.6732 31.5166 27.4387 31.7639 33.4104C31.7727 33.6275 31.8853 33.7405 32.1017 33.7493C53.0831 34.4205 73.3161 33.7228 93.6485 33.9886C104.594 34.1259 115.515 34.1924 126.412 34.1879C126.472 34.1879 126.531 34.1762 126.586 34.1534C126.641 34.1306 126.691 34.0972 126.733 34.0552C126.775 34.0131 126.808 33.9632 126.83 33.9085C126.852 33.8537 126.863 33.7951 126.862 33.7361C126.858 30.604 126.858 27.4764 126.862 24.3532C126.869 21.23 126.386 19.7614 123.034 19.6352C120.112 19.5289 117.155 19.5178 114.166 19.602C113.923 19.6108 113.8 19.7349 113.795 19.9741C113.716 23.4694 115.021 27.0843 109.828 26.7321C106.557 26.5062 107.57 22.0673 107.471 20.0007C107.457 19.7127 107.305 19.5687 107.014 19.5687H93.2048C92.984 19.5687 92.8714 19.6795 92.867 19.901L92.7279 25.0243C92.7235 25.2724 92.6264 25.4784 92.4365 25.6424C90.8779 27.0068 89.1184 27.1353 87.1581 26.0278C86.902 25.886 86.7695 25.6711 86.7607 25.3832ZM126.73 42.7069C126.697 41.1852 126.982 38.5205 126.611 36.3476C126.571 36.1128 126.432 35.9932 126.194 35.9887C94.8274 35.8824 63.3751 35.4106 32.0023 36.2014C31.877 36.2049 31.7581 36.2577 31.6713 36.3485C31.5846 36.4393 31.5369 36.5607 31.5387 36.6865C31.6756 55.7712 31.6866 74.7495 31.5718 93.6215C31.5586 95.8499 32.6889 96.9707 34.9628 96.984C62.1786 97.1257 80.6786 97.1855 90.4629 97.1634C90.7322 97.1634 90.8205 97.0371 90.7278 96.7846C82.1246 73.5002 105.59 54.894 126.333 68.018C126.38 68.047 126.434 68.0631 126.489 68.0647C126.545 68.0664 126.599 68.0534 126.648 68.0272C126.697 68.001 126.738 67.9625 126.768 67.9154C126.797 67.8684 126.814 67.8144 126.816 67.7589C126.94 59.3949 126.911 51.0443 126.73 42.7069Z" fill="#0196BD"/>
<path id="Vector_2" d="M49.4472 56.5087C52.0478 56.5087 54.1561 54.3933 54.1561 51.784C54.1561 49.1746 52.0478 47.0593 49.4472 47.0593C46.8465 47.0593 44.7383 49.1746 44.7383 51.784C44.7383 54.3933 46.8465 56.5087 49.4472 56.5087Z" fill="#0196BD"/>
<path id="Vector_3" d="M68.9518 56.5153C71.5562 56.5153 73.6674 54.3971 73.6674 51.784C73.6674 49.171 71.5562 47.0527 68.9518 47.0527C66.3475 47.0527 64.2363 49.171 64.2363 51.784C64.2363 54.3971 66.3475 56.5153 68.9518 56.5153Z" fill="#0196BD"/>
<path id="Vector_4" d="M88.4445 56.4954C91.0415 56.4954 93.1467 54.383 93.1467 51.7773C93.1467 49.1716 91.0415 47.0593 88.4445 47.0593C85.8475 47.0593 83.7422 49.1716 83.7422 51.7773C83.7422 54.383 85.8475 56.4954 88.4445 56.4954Z" fill="#0196BD"/>
<path id="Vector_5" d="M107.908 56.5216C110.509 56.5216 112.617 54.4063 112.617 51.7969C112.617 49.1876 110.509 47.0723 107.908 47.0723C105.307 47.0723 103.199 49.1876 103.199 51.7969C103.199 54.4063 105.307 56.5216 107.908 56.5216Z" fill="#0196BD"/>
<path id="Vector_6" d="M49.4288 69.9316C52.0258 69.9316 54.1311 67.8193 54.1311 65.2136C54.1311 62.6079 52.0258 60.4956 49.4288 60.4956C46.8318 60.4956 44.7266 62.6079 44.7266 65.2136C44.7266 67.8193 46.8318 69.9316 49.4288 69.9316Z" fill="#0196BD"/>
<path id="Vector_7" d="M68.9386 69.9316C71.5356 69.9316 73.6409 67.8193 73.6409 65.2136C73.6409 62.6079 71.5356 60.4956 68.9386 60.4956C66.3416 60.4956 64.2363 62.6079 64.2363 65.2136C64.2363 67.8193 66.3416 69.9316 68.9386 69.9316Z" fill="#0196BD"/>
<path id="Vector_8" d="M88.4499 69.9516C91.0542 69.9516 93.1654 67.8333 93.1654 65.2203C93.1654 62.6073 91.0542 60.489 88.4499 60.489C85.8456 60.489 83.7344 62.6073 83.7344 65.2203C83.7344 67.8333 85.8456 69.9516 88.4499 69.9516Z" fill="#0196BD"/>
<path id="Vector_9" d="M49.453 84.0987C52.0537 84.0987 54.1619 81.9834 54.1619 79.3741C54.1619 76.7647 52.0537 74.6494 49.453 74.6494C46.8524 74.6494 44.7441 76.7647 44.7441 79.3741C44.7441 81.9834 46.8524 84.0987 49.453 84.0987Z" fill="#0196BD"/>
<path id="Vector_10" d="M68.9655 84.1257C71.5698 84.1257 73.681 82.0074 73.681 79.3944C73.681 76.7814 71.5698 74.6631 68.9655 74.6631C66.3612 74.6631 64.25 76.7814 64.25 79.3944C64.25 82.0074 66.3612 84.1257 68.9655 84.1257Z" fill="#0196BD"/>
</g>
</g>
</svg>
