<svg width="89" height="86" viewBox="0 0 89 86" fill="none" xmlns="http://www.w3.org/2000/svg">
<g id="Group 484">
<path id="Vector" d="M23.0474 54.0108C28.5594 55.1034 33.6956 54.2648 38.4559 51.4949C38.5426 51.4449 38.6091 51.3661 38.6437 51.2722C38.6784 51.1782 38.679 51.0751 38.6455 50.9808C38.612 50.8865 38.5464 50.8069 38.4603 50.7558C38.3742 50.7048 38.2729 50.6856 38.174 50.7015C32.4602 51.5924 26.9831 50.8407 21.7425 48.4466L21.2206 43.3105C26.8787 44.7094 32.3733 44.2187 37.7043 41.8385C37.8417 41.7812 37.9537 41.676 38.0195 41.5425C38.0854 41.4089 38.1006 41.256 38.0624 41.1121C38.0242 40.9681 37.9351 40.8429 37.8117 40.7596C37.6883 40.6763 37.5388 40.6405 37.3911 40.6589C31.8652 41.2574 26.395 40.4397 20.9804 38.2057L20.9596 33.9151C26.0331 35.3348 33.9044 35.8672 38.1949 31.9212C38.6612 31.4897 38.5777 31.3122 37.9444 31.3888C32.0218 32.1056 26.3602 31.267 20.9596 28.8729C21.0013 23.5349 21.0013 18.1969 20.9596 12.859C20.9491 11.5332 20.375 10.1761 22.0661 9.69585C32.6516 6.64757 43.2649 3.73848 53.9061 0.968577C54.4768 0.815467 55.044 0.811988 55.6077 0.958138C66.3672 3.735 77.0919 6.65105 87.7817 9.70629C88.1367 9.81069 88.3141 10.0508 88.3141 10.4266C88.2202 23.1208 89.3476 38.9886 87.3328 49.6472C84.0409 67.1087 73.4729 79.1452 55.6286 85.7568C55.3015 85.8751 54.9674 85.8821 54.6264 85.7777C38.4803 80.7668 27.9539 70.1778 23.0474 54.0108ZM44.5838 38.9364C44.5782 39.0921 44.604 39.2472 44.6597 39.3927C44.7154 39.5381 44.7999 39.6708 44.908 39.7829C45.0162 39.895 45.1459 39.9841 45.2893 40.0449C45.4326 40.1057 45.5868 40.137 45.7425 40.1369H64.0531C64.4846 40.1369 64.7143 39.9212 64.7421 39.4897C65.024 34.5519 65.5355 27.3592 62.4037 23.434C58.4472 18.4858 49.0414 18.7676 45.8156 24.6867C43.9365 28.1317 44.7299 34.4266 44.5838 38.9364ZM64.1888 41.9429L45.3354 41.9847C45.161 41.9847 44.9937 42.054 44.8703 42.1773C44.747 42.3007 44.6777 42.4679 44.6777 42.6424L44.6986 53.1339C44.7013 54.4417 44.9609 55.7362 45.4623 56.9435C45.9638 58.1507 46.6973 59.2471 47.6212 60.1699C48.545 61.0928 49.6409 61.8241 50.8465 62.322C52.052 62.82 53.3435 63.0749 54.6473 63.0721H54.9605C56.2642 63.0694 57.5547 62.8091 58.7581 62.3061C59.9616 61.803 61.0545 61.0672 61.9744 60.1404C62.8943 59.2137 63.6233 58.1143 64.1197 56.9049C64.6161 55.6956 64.8701 54.4 64.8674 53.0921L64.8465 42.6006C64.8465 42.4262 64.7772 42.2589 64.6539 42.1356C64.5305 42.0122 64.3633 41.9429 64.1888 41.9429Z" fill="#008592"/>
<path id="Vector_2" d="M20.9592 28.874C26.3598 31.2681 32.0214 32.1067 37.944 31.3899C38.5773 31.3133 38.6608 31.4908 38.1945 31.9223C33.9039 35.8684 26.0327 35.336 20.9592 33.9162C14.5355 30.4921 7.9483 29.9667 1.19753 32.3399C0.759081 32.493 0.689473 32.3921 0.988733 32.0371C4.43371 27.9554 15.9483 28.0076 20.9592 28.874Z" fill="#F7941D"/>
<path id="Vector_3" d="M20.9798 38.206C26.3944 40.44 31.8646 41.2577 37.3905 40.6592C37.5382 40.6408 37.6877 40.6766 37.8111 40.7599C37.9345 40.8432 38.0236 40.9684 38.0618 41.1124C38.1 41.2563 38.0848 41.4092 38.0189 41.5428C37.9531 41.6763 37.8411 41.7815 37.7037 41.8389C32.3727 44.219 26.8781 44.7097 21.22 43.3108C14.7754 39.7962 8.08729 39.1768 1.15558 41.4526C0.800638 41.5709 0.744958 41.4874 0.988542 41.2021C4.26649 37.2664 16.4283 37.3813 20.9798 38.206Z" fill="#F7941D"/>
<path id="Vector_4" d="M21.7412 48.4476C26.9818 50.8417 32.4589 51.5933 38.1727 50.7025C38.2716 50.6865 38.3729 50.7058 38.459 50.7568C38.5452 50.8078 38.6107 50.8874 38.6442 50.9818C38.6777 51.0761 38.6771 51.1792 38.6424 51.2731C38.6078 51.3671 38.5414 51.4459 38.4546 51.4959C33.6943 54.2658 28.5581 55.1044 23.0462 54.0118C14.9035 50.6816 8.39979 48.552 0.841715 52.0596C0.787318 52.0808 0.727188 52.0824 0.671751 52.0641C0.616315 52.0457 0.569057 52.0085 0.538106 51.959C0.507154 51.9095 0.49445 51.8507 0.502233 51.7928C0.510017 51.735 0.537797 51.6816 0.580732 51.642C5.83171 47.2158 15.3941 47.2679 21.7412 48.4476Z" fill="#F7941D"/>
</g>
</svg>
