<svg width="165" height="121" viewBox="0 0 165 121" fill="none" xmlns="http://www.w3.org/2000/svg">
<g id="Frame 511">
<path id="Vector" d="M144.291 67.6282C143.252 80.4401 145.88 93.5806 147.079 104.803C147.834 111.942 138.458 111.977 138.458 105.229C138.446 74.6631 138.443 44.0168 138.449 13.2907C138.449 12.9696 138.545 12.638 138.729 12.3242C138.913 12.0103 139.18 11.7236 139.506 11.4883C139.867 11.222 140.462 11.3433 141.29 11.8523C150.133 17.2595 152.158 41.1964 152.433 50.448C152.531 53.7864 153.143 59.078 151.998 62.8071C151.154 65.5684 147.195 66.0744 144.788 66.9801C144.481 67.0925 144.315 67.3086 144.291 67.6282Z" fill="#0196BD"/>
<path id="Vector_2" d="M17.3448 33.0499C18.4901 33.0322 18.1527 14.2094 18.135 12.2383C18.129 11.9364 18.2681 11.7322 18.5523 11.6257C19.3869 11.3238 19.9107 11.6612 19.9107 12.5402C19.9166 18.5836 19.9285 24.6241 19.9462 30.6616C19.9521 31.4784 20.1001 32.2449 20.3901 32.9612C20.5204 33.2689 20.7453 33.3725 21.0649 33.2719C22.1126 32.9256 21.6953 14.387 21.6953 11.9098C21.6931 11.8115 21.7176 11.7147 21.7663 11.6293C21.8149 11.5439 21.886 11.473 21.972 11.4241C22.058 11.3752 22.156 11.35 22.2556 11.3511C22.3553 11.3522 22.4531 11.3796 22.5388 11.4304L22.965 11.679C23.326 11.898 23.5006 12.2146 23.4888 12.629C23.3763 19.1578 23.4858 25.6806 23.8173 32.1976C23.8231 32.3027 23.8536 32.4033 23.9061 32.4906C24.6519 33.7336 25.2379 32.7126 25.2379 32.0467C25.2379 30.0223 24.6164 10.9864 26.2412 11.4037C26.4049 11.4451 26.5517 11.5356 26.6614 11.6628C26.7711 11.79 26.8384 11.9476 26.8538 12.114C27.6085 18.9595 27.8926 25.4498 28.4431 31.9845C28.8101 36.4238 28.014 40.6057 26.0547 44.5301C23.4089 49.8218 22.6808 53.3555 22.6098 59.0645C22.4678 70.1155 22.9886 78.7722 24.1725 85.0346C25.1136 90.0067 29.9347 112.958 19.227 109.975C14.6279 108.696 14.4237 100.146 15.1695 96.5236C17.9692 82.9215 19.011 69.1773 18.2948 55.291C18.1113 51.8343 17.2649 48.5758 15.7555 45.5156C13.1895 40.3393 12.8166 37.0098 13.0652 31.3275C13.3434 24.923 13.817 18.5155 14.4858 12.1051C14.5012 11.9585 14.5697 11.8228 14.678 11.7244C14.7862 11.626 14.9266 11.5718 15.0718 11.5724H15.427C15.8413 11.5724 16.0514 11.7766 16.0574 12.185L16.4391 32.6593C16.4391 32.7118 16.4626 32.7635 16.5081 32.8115C16.5536 32.8596 16.6203 32.9029 16.7044 32.9392C16.7885 32.9755 16.8883 33.004 16.9982 33.0229C17.1081 33.0419 17.2258 33.0511 17.3448 33.0499Z" fill="#0196BD"/>
<g id="Group 497">
<path id="Vector_3" d="M129.555 60.5268C129.555 66.8533 128.308 73.1179 125.887 78.9629C123.466 84.8078 119.918 90.1186 115.444 94.5922C110.971 99.0657 105.66 102.614 99.8149 105.035C93.9699 107.456 87.7054 108.703 81.3788 108.703C68.6018 108.703 56.3482 103.627 47.3135 94.5922C38.2788 85.5575 33.2031 73.3038 33.2031 60.5268C33.2031 54.2003 34.4492 47.9357 36.8703 42.0907C39.2913 36.2458 42.8399 30.9349 47.3135 26.4614C56.3482 17.4267 68.6018 12.3511 81.3788 12.3511C87.7054 12.3511 93.9699 13.5972 99.8149 16.0182C105.66 18.4393 110.971 21.9879 115.444 26.4614C119.918 30.9349 123.466 36.2458 125.887 42.0907C128.308 47.9357 129.555 54.2003 129.555 60.5268ZM127.734 60.4913C127.734 54.4073 126.536 48.3828 124.208 42.762C121.88 37.1411 118.467 32.0338 114.165 27.7318C109.863 23.4297 104.756 20.0172 99.1348 17.6889C93.5139 15.3607 87.4895 14.1623 81.4055 14.1623C69.1183 14.1623 57.3343 19.0434 48.646 27.7318C39.9576 36.4201 35.0765 48.2041 35.0765 60.4913C35.0765 72.7785 39.9576 84.5624 48.646 93.2508C57.3343 101.939 69.1183 106.82 81.4055 106.82C87.4895 106.82 93.5139 105.622 99.1348 103.294C104.756 100.965 109.863 97.5528 114.165 93.2508C118.467 88.9488 121.88 83.8415 124.208 78.2206C126.536 72.5997 127.734 66.5753 127.734 60.4913Z" fill="#0196BD"/>
<path id="Vector_4" d="M81.3864 93.2717C99.4855 93.2717 114.158 78.5995 114.158 60.5005C114.158 42.4014 99.4855 27.7292 81.3864 27.7292C63.2874 27.7292 48.6152 42.4014 48.6152 60.5005C48.6152 78.5995 63.2874 93.2717 81.3864 93.2717Z" fill="#0196BD"/>
</g>
</g>
</svg>
