<svg width="28" height="45" viewBox="0 0 28 45" fill="none" xmlns="http://www.w3.org/2000/svg">
<g id="8665727_question_icon 1">
<path id="Vector" d="M17.8762 2.81348H8.4C3.76775 2.81348 0 6.59805 0 11.251C0 12.804 1.25212 13.9844 2.8 13.9844C4.34788 13.9844 5.6 12.7258 5.6 11.251C5.6 9.70058 6.85475 8.43847 8.4 8.43847H17.8762C20.37 8.43847 22.4 10.4767 22.4 12.9903C22.4 14.7235 21.4401 16.2836 19.7312 17.1502L11.1825 22.1837C10.2463 22.6934 9.8 23.6163 9.8 24.6095V28.1251C9.8 29.6781 11.0521 30.9367 12.6 30.9367C14.1479 30.9367 15.4 29.6781 15.4 28.1251V26.2179L22.4 22.087C25.8536 20.3512 28 16.8645 28 12.9903C28 7.37851 23.4587 2.81348 17.8762 2.81348ZM12.6 35.1563C10.6671 35.1563 9.1 36.7305 9.1 38.672C9.1 40.6135 10.6671 42.1085 12.6 42.1085C14.5329 42.1085 16.1 40.5352 16.1 38.672C16.1 36.8087 14.5337 35.1563 12.6 35.1563Z" fill="white"/>
</g>
</svg>
