<svg width="51" height="48" viewBox="0 0 51 48" fill="none" xmlns="http://www.w3.org/2000/svg">
<g id="Group">
<path id="Vector" d="M1.00008 30.5097C3.47008 30.5097 3.47008 32.5097 5.94008 32.5097C8.41008 32.5097 8.41008 30.5097 10.8801 30.5097C13.3501 30.5097 13.3501 32.5097 15.8201 32.5097C18.2901 32.5097 18.2901 30.5097 20.7601 30.5097C23.2301 30.5097 23.2301 32.5097 25.7001 32.5097C28.1701 32.5097 28.1701 30.5097 30.6401 30.5097C33.1101 30.5097 33.1101 32.5097 35.5801 32.5097C38.0501 32.5097 38.0501 30.5097 40.5201 30.5097C42.9901 30.5097 42.9901 32.5097 45.4701 32.5097C47.9501 32.5097 47.9401 30.5097 50.4201 30.5097M0.580078 17.2397H19.4101C19.4501 21.4597 21.7401 24.8997 24.5001 24.8997C27.2601 24.8997 29.5901 21.3897 29.5901 17.1197H49.1401M17.4201 24.3397H6.39008M15.5701 21.5597L18.3501 24.3397L15.8001 26.8797M32.2901 24.3397H43.3301M34.1501 21.5597L31.3601 24.3397L33.9201 26.8797M22.4801 43.2697C23.2101 44.2497 23.0001 45.6197 22.0201 46.3497C21.0401 47.0697 19.6601 46.8697 18.9301 45.8997C18.2001 44.9297 18.4101 43.5497 19.3901 42.8197C20.3701 42.0897 21.7501 42.2997 22.4801 43.2697ZM33.8001 36.8097C34.5301 37.7897 34.3201 39.1597 33.3401 39.8897C32.3601 40.6097 30.9801 40.4097 30.2501 39.4397C29.5201 38.4697 29.7301 37.0897 30.7101 36.3597C31.6901 35.6297 33.0701 35.8397 33.8001 36.8097ZM46.1101 40.9897C46.8401 41.9697 46.6301 43.3397 45.6501 44.0697C44.6701 44.7897 43.2901 44.5897 42.5601 43.6197C41.8301 42.6497 42.0401 41.2697 43.0201 40.5397C44.0001 39.8097 45.3801 40.0197 46.1101 40.9897ZM8.36008 37.5997C9.49008 38.0497 10.0501 39.3197 9.60008 40.4497C9.15008 41.5797 7.87008 42.1297 6.74008 41.6897C5.61008 41.2397 5.05008 39.9697 5.50008 38.8397C5.95008 37.7097 7.23008 37.1597 8.36008 37.5997Z" stroke="#0196BD" stroke-width="2" stroke-linecap="round" stroke-linejoin="round"/>
<g id="Vector_2">
<path d="M4.92987 20.3497C4.67987 15.5097 4.29987 10.4397 5.91987 5.79967C4.63987 10.4797 5.34987 15.4897 5.91987 20.2297C6.02987 20.8997 4.98987 21.0297 4.92987 20.3497Z" fill="#0196BD"/>
<path d="M11.6999 20.3697C11.0599 13.9497 10.2599 6.90967 13.1299 0.909668C12.3899 2.37967 12.0699 4.00967 11.8599 5.61967C11.3099 10.4697 11.8599 15.4297 12.6899 20.1997C12.8199 20.8597 11.7999 21.0397 11.7099 20.3697" fill="#0196BD"/>
<path d="M37.9599 20.3597C37.5499 15.3797 37.0099 9.99967 39.1199 5.32967C37.3499 10.0497 38.2299 15.3497 38.9499 20.1997C39.0799 20.8697 38.0499 21.0397 37.9599 20.3597Z" fill="#0196BD"/>
<path d="M45.2799 20.3697C44.6399 13.9497 43.8399 6.90967 46.6999 0.909668C45.9599 2.37967 45.6399 4.00967 45.4299 5.61967C44.8799 10.4697 45.4299 15.4297 46.2599 20.1997C46.3899 20.8597 45.3699 21.0397 45.2799 20.3697Z" fill="#0196BD"/>
</g>
</g>
</svg>
