<svg width="42" height="42" viewBox="0 0 42 42" fill="none" xmlns="http://www.w3.org/2000/svg">
<g id="Vector">
<path d="M39.0452 13.5252C38.3507 12.3453 37.5024 11.293 36.5089 10.4397C35.5167 9.58382 34.3756 8.92822 33.1156 8.56539C30.6395 7.8547 28.4611 7.13151 27.0522 6.26562C26.3453 5.83769 25.8423 5.38973 25.5345 4.94185C25.2291 4.49013 25.0765 4.0485 25.0716 3.42285C25.0716 3.36279 25.0716 3.32404 25.0716 3.29769L25.0753 3.22514C25.0778 3.16508 25.0778 3.10502 25.0778 2.96737V0.5H22.3276V2.96745C22.3276 3.02999 22.3276 3.07259 22.3263 3.10262C22.3238 3.15019 22.3238 3.17141 22.3226 3.19143C22.3213 3.2502 22.3213 3.30025 22.3213 3.42293C22.3162 4.57157 22.6666 5.64262 23.2735 6.50842C24.1881 7.81474 25.5519 8.67806 27.1047 9.39123C28.665 10.1019 30.4567 10.66 32.3536 11.2068C33.1882 11.447 33.9827 11.8937 34.7159 12.5243C35.8157 13.4677 36.7654 14.8341 37.4286 16.4381C38.0943 18.0422 38.4709 19.879 38.4696 21.7358C38.4696 24.033 37.899 26.3478 36.6328 28.3547C34.8898 31.1124 32.8128 32.8616 30.5993 33.9577C28.3847 35.05 26.0124 35.4804 23.7151 35.4816C21.8045 35.4816 19.9514 35.1814 18.3248 34.7284C16.7019 34.2805 15.3043 33.6749 14.3284 33.1018C13.9405 32.8753 13.4425 32.5938 12.892 32.3536C12.6142 32.2334 12.3239 32.1221 12.0136 32.0357C11.7033 31.9506 11.373 31.8881 11.0026 31.8869C10.7874 31.8869 10.5584 31.9106 10.3169 31.9745C9.95905 32.0683 9.57115 32.2748 9.27839 32.5913C8.98057 32.9041 8.79415 33.292 8.69782 33.6748L8.6991 33.6724C8.51644 34.3881 8.39632 35.1613 8.30496 36.0059C8.20109 36.9731 8.14728 38.0492 8.14728 39.2378V41.5H10.8975V39.2378C10.8975 38.133 10.9475 37.152 11.0389 36.2987C11.104 35.6894 11.1866 35.1513 11.2854 34.6884C11.5018 34.746 11.7909 34.8636 12.0837 35.0087C12.379 35.1539 12.6767 35.3215 12.9396 35.4767C14.162 36.1887 15.7498 36.8668 17.5891 37.3785C19.4284 37.889 21.518 38.2294 23.7151 38.2307C26.3527 38.2307 29.1555 37.7364 31.8155 36.4238C34.4743 35.1163 36.9705 32.9805 38.9575 29.8212C40.5353 27.3187 41.2197 24.4835 41.2197 21.7358C41.2173 18.7678 40.4315 15.8875 39.0452 13.5252Z" fill="#0196BD"/>
<path d="M12.3992 25.4068C15.3871 25.4081 17.9121 24.4483 19.7038 22.9469C21.4918 21.4529 22.5717 19.3984 22.5766 17.2551C22.5766 16.6683 22.4941 16.0789 22.3226 15.5046C22.185 15.0555 22.0811 14.4874 21.8497 13.8405C21.7333 13.5177 21.5769 13.1748 21.3505 12.8371C21.1252 12.5017 20.8275 12.174 20.4583 11.9024C19.8815 11.4757 19.396 11.0065 19.0357 10.5223L19.0332 10.5199C18.8192 10.2321 18.6328 9.93176 18.4751 9.6265C18.2949 9.27616 18.151 8.91829 18.0347 8.55674C17.9021 8.14258 17.8045 7.72721 17.7344 7.31425C17.6543 6.84131 17.6068 6.37085 17.5792 5.90535C17.5467 5.37484 17.5404 4.85433 17.5404 4.34879C17.5404 3.87209 17.5467 3.41036 17.5467 2.96745V0.5H14.7965V2.96745C14.7965 3.38289 14.7902 3.84582 14.7902 4.34879C14.7902 4.88179 14.7978 5.4574 14.834 6.07048C14.8666 6.60852 14.9217 7.17908 15.0242 7.7759C15.113 8.29769 15.2369 8.8407 15.4171 9.39876C15.5748 9.88924 15.775 10.3872 16.0302 10.8853C16.2554 11.3194 16.5207 11.7511 16.8322 12.1665L16.831 12.1652C17.389 12.9122 18.0709 13.5528 18.8204 14.1109C18.928 14.191 18.9968 14.2673 19.0682 14.3699C19.1708 14.5213 19.2684 14.7515 19.3635 15.0793C19.4586 15.4058 19.5487 15.82 19.6863 16.2904C19.7814 16.6045 19.8264 16.9261 19.8264 17.2551C19.8302 18.445 19.2058 19.7789 17.9396 20.8399C16.677 21.8947 14.8003 22.6567 12.3991 22.6579C10.1269 22.6604 8.26003 23.535 6.93626 24.4221C6.27185 24.8663 5.73509 25.3205 5.33598 25.6909C5.13706 25.8748 4.97186 26.04 4.84422 26.1714C4.71906 26.3002 4.624 26.4054 4.59398 26.4354C3.87327 27.1961 3.26644 28.0594 2.7722 28.9954C2.40312 29.6961 2.09402 30.4368 1.84129 31.2126C1.46092 32.375 1.20066 33.6174 1.02922 34.9487C0.859131 36.2824 0.780334 37.7125 0.780334 39.2603V41.5H3.53054V39.2603C3.53054 37.8064 3.60437 36.4914 3.757 35.2977C3.90843 34.1028 4.13865 33.033 4.4552 32.067C4.66412 31.4251 4.91437 30.8296 5.20465 30.2791C5.59007 29.5459 6.053 28.8927 6.58976 28.3271C6.6511 28.2633 6.71613 28.192 6.81871 28.0844C7.16905 27.7241 7.89223 27.0334 8.86823 26.4528C9.8467 25.8698 11.0491 25.4068 12.3992 25.4068Z" fill="#0196BD"/>
</g>
</svg>
