<svg width="44" height="48" viewBox="0 0 44 48" fill="none" xmlns="http://www.w3.org/2000/svg">
<path id="Vector" d="M1.46906 46.2945C1.42501 43.9839 1.44263 41.6734 1.45144 39.354C1.48668 34.5741 5.0454 31.02 9.81092 30.9759C9.9959 30.9759 10.1897 30.9583 10.3747 30.9759C10.8768 31.0288 11.1587 30.7995 11.3348 30.3321C11.9955 28.5683 13.0878 27.122 14.5852 25.9843C15.6863 25.1465 16.9372 24.6615 18.2497 24.2646C20.954 23.4444 22.5748 21.6189 23.0769 18.8409C23.1826 18.2677 23.1209 17.6592 23.1297 17.0683C23.1385 16.7332 22.9623 16.645 22.654 16.6538C21.2535 16.6979 19.8793 16.5921 18.5492 16.0806C15.5718 14.9253 13.4313 11.9621 13.3696 8.77842C13.3256 6.30028 13.352 3.81332 13.352 1.32635M20.0467 1.29108C20.0731 3.54875 20.0467 5.81523 20.0467 8.0729C20.0467 9.43103 20.5664 9.88962 21.9229 9.96899C22.98 10.0307 23.8608 9.95135 24.1956 8.75197C27.3579 3.95442 33.3743 2.77267 38.0605 6.05335C40.2539 7.58786 41.4607 9.77497 41.998 12.3766C44.2706 23.418 39.5316 34.3977 29.9036 40.2359C27.3755 41.7704 24.6624 42.8992 21.7291 43.3578C19.3243 43.737 17.0781 43.1726 15.0433 41.8233C13.7132 40.9502 12.6561 39.8125 11.9162 38.4015C11.6343 37.8635 11.2556 37.6166 10.6477 37.6872C10.3659 37.7224 10.0752 37.6872 9.78449 37.6872C8.77149 37.7048 8.1725 38.2957 8.16369 39.3099C8.16369 41.6734 8.16369 44.0369 8.16369 46.4004M21.2006 38.7102C21.2006 38.7102 25.7635 38.5779 30.5467 33.8597" stroke="#0196BD" stroke-width="2" stroke-linecap="round" stroke-linejoin="round"/>
</svg>
