<svg width="57" height="56" viewBox="0 0 57 56" fill="none" xmlns="http://www.w3.org/2000/svg">
<g id="Pasted-20230804-140424" clip-path="url(#clip0_125_17762)">
<path id="Vector" d="M33.8676 4.44685C20.1537 2.9409 9.02598 13.476 8.4858 26.9772C8.4824 27.0458 8.45287 27.1104 8.40341 27.1574C8.35395 27.2044 8.28843 27.2302 8.22062 27.2293L6.00753 27.2031C5.80455 27.2009 5.70525 27.0983 5.70961 26.8954C5.98788 15.8561 12.7647 6.25072 23.3358 2.74447C36.1921 -1.51803 50.2203 5.15727 55.1703 17.7909C55.6898 19.1223 56.0346 20.6249 56.2048 22.2989C56.6796 26.9739 56.8138 32.9094 54.9641 37.2177C50.9144 46.6594 41.8787 52.7486 31.5727 52.8927C31.4221 52.8949 31.3468 52.8207 31.3468 52.6701V50.3588C31.3467 50.3153 31.3629 50.2734 31.3921 50.2417C31.4213 50.2101 31.4614 50.191 31.504 50.1885C40.3825 49.5621 46.9029 45.6761 51.065 38.5305C59.2233 24.5284 50.1057 6.22781 33.8676 4.44685Z" fill="#F7941D"/>
<path id="Vector_2" d="M34.8333 34.9653C36.8664 32.3364 36.8402 28.4242 35.4521 25.7626C32.4991 20.1219 25.7812 19.2314 21.0047 23.3891C19.2827 24.8842 17.5825 26.4054 15.9042 27.9528C15.4949 28.3293 14.9842 28.7713 14.4899 28.4079C14.4424 28.3724 14.4034 28.3269 14.3756 28.2747C14.3478 28.2225 14.3319 28.1648 14.3291 28.1059C14.3262 28.047 14.3366 27.9883 14.3593 27.9341C14.382 27.8799 14.4165 27.8315 14.4604 27.7924C16.4902 25.9983 18.3715 24.2927 20.1044 22.6754C23.9348 19.1037 29.33 18.6126 33.5107 21.7031C38.5524 25.4287 38.8044 33.0534 34.2506 37.2995C31.8236 39.5628 29.9564 41.2718 28.6491 42.4263C28.409 42.638 28.1111 42.8377 27.7553 43.0254C27.668 43.0713 27.5906 43.0593 27.5229 42.9894C27.1606 42.6315 27.1333 42.3128 27.4411 42.0335C30.7312 39.0608 33.2684 36.9885 34.8333 34.9653Z" fill="#0196BD"/>
<path id="Vector_3" d="M24.6651 46.057C21.2123 49.2348 18.5616 51.605 16.713 53.1677C12.2835 56.913 5.32669 56.0552 1.94157 51.2788C0.429074 49.141 0.497824 45.4808 0.746633 43.0091C0.995443 40.5734 1.96776 39.1198 3.70616 37.5353C6.47362 35.0123 9.32838 32.4238 12.2704 29.7698C12.4909 29.5712 12.7179 29.5625 12.9514 29.7436C13.2329 29.9641 13.5472 30.2685 13.8943 30.657C17.956 35.2273 22.0209 39.7942 26.0892 44.3579C26.1656 44.4409 26.1656 44.5238 26.0892 44.6067C25.6243 45.1284 25.1496 45.6118 24.6651 46.057ZM24.5341 44.1615L12.7844 31.2529C12.7192 31.1809 12.6282 31.1377 12.5312 31.1328C12.4342 31.1279 12.3393 31.1617 12.2672 31.2267L4.36419 38.4192C2.52033 40.0976 1.39517 42.4138 1.23616 44.8585C1.07715 47.3032 1.89731 49.6762 3.51628 51.4555L3.54574 51.4915C5.16526 53.2706 7.45093 54.3101 9.89998 54.3813C12.349 54.4526 14.7609 53.5497 16.605 51.8713L24.5079 44.682C24.5441 44.6497 24.5734 44.6105 24.5943 44.5668C24.6152 44.5231 24.6272 44.4756 24.6296 44.4272C24.6321 44.3788 24.6249 44.3304 24.6085 44.2848C24.5921 44.2392 24.5668 44.1973 24.5341 44.1615Z" fill="#0196BD"/>
<path id="Vector_4" d="M18.4371 45.4063L16.3295 47.3512C16.1435 47.5228 16.1318 47.8128 16.3035 47.9988L16.4234 48.1287C16.5951 48.3148 16.885 48.3264 17.071 48.1548L19.1787 46.2099C19.3647 46.0382 19.3764 45.7483 19.2047 45.5622L19.0848 45.4323C18.9131 45.2463 18.6232 45.2346 18.4371 45.4063Z" fill="#0196BD"/>
<path id="Vector_5" d="M12.8006 50.0772C13.4652 49.8448 13.8908 49.3734 14.4899 48.9641C14.5991 48.8878 14.7125 48.879 14.8304 48.938L15.4884 49.2653C15.6238 49.333 15.6347 49.4181 15.5212 49.5207C12.7188 52.0481 9.21909 52.2216 6.20064 50.0347C5.65391 49.6386 5.39201 49.1409 5.39856 48.4927C5.39945 48.4483 5.41269 48.4051 5.4368 48.3678C5.4609 48.3305 5.49492 48.3007 5.53503 48.2816C5.57514 48.2626 5.61977 48.2551 5.66389 48.26C5.70802 48.2649 5.74991 48.282 5.78487 48.3094C7.97505 50.0936 9.9557 51.0823 12.8006 50.0772Z" fill="#0196BD"/>
</g>
<defs>
<clipPath id="clip0_125_17762">
<rect width="56.9643" height="55" fill="white" transform="translate(0 0.845703)"/>
</clipPath>
</defs>
</svg>
