<svg width="81" height="81" viewBox="0 0 81 81" fill="none" xmlns="http://www.w3.org/2000/svg">
<g id="Group 486">
<path id="Vector" d="M80.5 40.3511C80.5 50.9597 76.2857 61.1339 68.7843 68.6353C61.2828 76.1368 51.1087 80.3511 40.5 80.3511C29.8913 80.3511 19.7172 76.1368 12.2157 68.6353C4.71425 61.1339 0.5 50.9597 0.5 40.3511C0.5 29.7424 4.71425 19.5683 12.2157 12.0668C19.7172 4.56535 29.8913 0.351074 40.5 0.351074C51.1087 0.351074 61.2828 4.56535 68.7843 12.0668C76.2857 19.5683 80.5 29.7424 80.5 40.3511ZM29.6641 47.096L33.7742 44.0205C35.0964 43.5159 36.2142 42.7175 37.1275 41.6253L41.6784 38.272L47.6281 33.999C49.0397 33.373 50.2501 32.482 51.2593 31.3259C57.2505 27.4553 63.0533 23.2716 68.6677 18.775C68.9296 18.5706 68.9519 18.3439 68.7348 18.0948C38.3827 -16.5783 -13.5934 21.6684 10.6078 60.3175C10.645 60.3776 10.6943 60.4293 10.7527 60.4693C10.8111 60.5094 10.8774 60.537 10.9474 60.5505C11.0174 60.564 11.0897 60.563 11.1598 60.5476C11.2299 60.5323 11.2964 60.5029 11.3551 60.4613L29.6641 47.096ZM53.5779 32.7631C52.2876 33.3187 51.1826 34.1299 50.2629 35.1966L41.4485 41.3666L37.53 44.2601L33.6976 47.1343C32.1008 47.8433 30.7563 48.8684 29.6641 50.2098L12.7731 62.1954C12.4856 62.3998 12.4537 62.6425 12.6773 62.9235C26.7419 80.0828 52.5527 80.9451 67.3934 64.0828C78.2389 51.7523 79.2257 34.8804 70.5934 20.7199C70.4209 20.4389 70.2038 20.3974 69.9419 20.5954L53.5779 32.7631Z" fill="#008592"/>
<path id="Vector_2" d="M31.7901 33.978C33.1965 33.9215 34.2968 32.8856 34.2478 31.6643C34.1987 30.443 33.0189 29.4987 31.6125 29.5552C30.2061 29.6117 29.1058 30.6475 29.1549 31.8689C29.2039 33.0902 30.3838 34.0345 31.7901 33.978Z" fill="#F7941D"/>
<path id="Vector_3" d="M51.2579 31.326C50.2487 32.4821 49.0384 33.3731 47.6268 33.9991C44.4715 33.7372 42.4882 35.1616 41.6771 38.2721L37.1262 41.6254C36.3022 33.3955 43.3633 27.5224 51.2579 31.326Z" fill="#F7941D"/>
<path id="Vector_4" d="M21.5157 34.6302V49.9404C21.5159 50.0377 21.4961 50.1339 21.4575 50.2232C21.4189 50.3125 21.3624 50.3929 21.2914 50.4594C21.2204 50.5259 21.1365 50.5771 21.0448 50.6098C20.9532 50.6425 20.8559 50.6559 20.7588 50.6494L17.6259 50.4482C17.4463 50.436 17.278 50.356 17.1553 50.2243C17.0325 50.0926 16.9644 49.9192 16.9648 49.7392V34.6494C16.9648 34.5546 16.9459 34.4608 16.9091 34.3736C16.8722 34.2863 16.8183 34.2072 16.7504 34.1411C16.6825 34.0751 16.6021 34.0232 16.5139 33.9888C16.4256 33.9543 16.3313 33.9378 16.2366 33.9404L12.0211 34.0362C11.8379 34.0389 11.6607 33.9706 11.5267 33.8456C11.3928 33.7206 11.3124 33.5485 11.3025 33.3655L11.2067 31.3344C11.2028 31.2389 11.2183 31.1436 11.2522 31.0542C11.2861 30.9649 11.3377 30.8833 11.4039 30.8144C11.4702 30.7455 11.5496 30.6907 11.6376 30.6533C11.7255 30.6158 11.8201 30.5966 11.9157 30.5967L26.5648 30.5583C26.6604 30.5583 26.755 30.5775 26.8429 30.6149C26.9309 30.6523 27.0103 30.7072 27.0765 30.7761C27.1428 30.845 27.1944 30.9266 27.2283 31.0159C27.2622 31.1053 27.2777 31.2006 27.2738 31.2961L27.1779 33.3943C27.1742 33.4874 27.1522 33.5789 27.1131 33.6635C27.0741 33.7481 27.0187 33.8242 26.9502 33.8874C26.8817 33.9505 26.8013 33.9996 26.7138 34.0317C26.6263 34.0638 26.5334 34.0784 26.4403 34.0745L22.2534 33.9212C22.1579 33.9173 22.0626 33.9328 21.9733 33.9667C21.8839 34.0006 21.8023 34.0522 21.7334 34.1184C21.6645 34.1847 21.6097 34.2641 21.5723 34.3521C21.5349 34.44 21.5156 34.5346 21.5157 34.6302Z" fill="#F7941D"/>
<path id="Vector_5" d="M53.5772 32.7632C63.867 47.2398 42.7221 59.1392 37.5293 44.2602L41.4478 41.3668C42.2909 46.5724 44.9385 48.265 49.3904 46.4446C49.7225 46.3105 49.9716 46.0869 50.1377 45.774C51.9708 42.2674 52.0123 38.7416 50.2622 35.1967C51.182 34.1301 52.287 33.3189 53.5772 32.7632Z" fill="#F7941D"/>
<path id="Vector_6" d="M33.7768 44.0215L29.6666 47.097L29.4558 36.376C29.4495 35.9864 29.6378 35.782 30.0211 35.7628L33.3936 35.5904C33.7385 35.5712 33.9077 35.7341 33.9013 36.079L33.7768 44.0215Z" fill="#F7941D"/>
<path id="Vector_7" d="M63.6415 52.835L65.6055 52.5955C66.1165 52.5316 66.3528 52.7552 66.3145 53.2661L66.2474 54.1763C66.2155 54.5915 65.9887 54.7991 65.5672 54.7991H59.3588C59.1238 54.8013 58.8939 54.7302 58.7012 54.5958C58.5085 54.4613 58.3625 54.2701 58.2835 54.0488C58.2044 53.8275 58.1963 53.5871 58.2602 53.3609C58.3242 53.1348 58.457 52.9342 58.6402 52.7871C60.1923 51.532 65.1456 47.2015 62.7121 45.1512C62.431 44.9084 62.1117 44.8318 61.754 44.9212L59.3492 45.5056C59.0618 45.5759 58.8893 45.4673 58.8319 45.1799C57.96 40.9739 72.0726 42.0086 63.1241 51.829C62.3895 52.6338 62.562 52.9691 63.6415 52.835Z" fill="#F7941D"/>
<path id="Vector_8" d="M33.693 47.1348L33.6546 49.9132C33.6482 50.2964 33.4598 50.536 33.0894 50.6318C31.9269 50.9256 30.7836 50.7851 29.6594 50.2102C30.7516 48.8689 32.0962 47.8437 33.693 47.1348Z" fill="#F7941D"/>
</g>
</svg>
