<svg width="71" height="76" viewBox="0 0 71 76" fill="none" xmlns="http://www.w3.org/2000/svg">
<g id="Group 483">
<path id="Vector" d="M17.8535 0.847743C19.3622 1.33496 20.5753 2.11991 21.4929 3.20261C24.1291 6.3347 22.3561 42.3421 22.2394 48.7687C22.2161 50.2536 22.5427 51.8273 23.2193 53.49C23.3748 53.8535 23.6353 54.1049 24.0008 54.2441C27.3135 55.5665 30.6379 55.7869 33.974 54.9053C38.6282 55.8797 40.063 53.6988 40.0863 49.4183C40.1641 37.9108 40.0746 24.1644 39.818 8.17915C39.6547 -1.68113 51.4593 0.43013 58.6913 0.77814C59.8656 1.38136 60.8454 2.16631 61.6308 3.13301C64.0104 6.09109 62.6223 17.3086 62.354 23.3292C62.1674 27.5594 62.0274 35.9387 61.9341 48.4671C61.8291 62.5847 58.8313 72.0274 43.504 74.6723C37.3062 75.5616 29.7709 75.5771 20.898 74.7187C3.14445 73.0018 0.636555 62.8863 0.729872 47.2839C0.79986 34.4616 0.566567 21.6626 0.0299949 8.88677C-0.168304 4.29304 0.49658 1.01015 5.699 0.74334C9.81272 0.534534 13.8642 0.569335 17.8535 0.847743Z" fill="#008592"/>
<g id="Vector_2">
<path d="M18 0.726659C24.4602 -0.0627116 31.2098 -0.410963 31.152 8.2605C31.0593 22.1054 30.959 35.9388 30.8509 49.7605C30.8355 52.2137 31.8852 53.9008 34 54.8217C30.6889 55.704 27.3893 55.4834 24.1013 54.1601C23.7385 54.0208 23.48 53.7692 23.3256 53.4055C22.6541 51.7416 22.33 50.1668 22.3531 48.6809C22.4689 42.2499 24.2287 6.21742 21.6122 3.08316C20.7014 1.99971 19.4973 1.21421 18 0.726659Z" fill="#F7941D"/>
<path d="M58.2822 0.561182C64.6674 0.0930828 71.2286 -0.328207 70.9939 7.96885C70.3757 28.7368 70.0471 43.088 70.0079 51.0223C69.961 60.1151 68.3647 67.6983 59.6437 72.2037C54.4401 74.8875 48.8922 75.8549 43 75.106C58.423 72.4378 61.4396 62.912 61.5452 48.6701C61.6391 36.0314 61.78 27.5783 61.9678 23.3108C62.2377 17.2372 63.6345 5.92092 61.24 2.93679C60.4497 1.96158 59.4638 1.16971 58.2822 0.561182Z" fill="#F7941D"/>
</g>
</g>
</svg>
