<svg width="63" height="71" viewBox="0 0 63 71" fill="none" xmlns="http://www.w3.org/2000/svg">
<g id="Pasted-20230804-140757" clip-path="url(#clip0_20_3251)">
<path id="Subtract" fill-rule="evenodd" clip-rule="evenodd" d="M54.1272 51.6501C61.6551 40.6011 63.1357 26.3643 61.6782 13.1545C61.6628 13.0343 61.598 12.9494 61.4839 12.9001C51.7058 8.88704 41.9354 4.88017 32.1727 0.879473C31.7331 0.699025 30.6967 0.73604 30.2618 0.916488C20.5546 4.89559 10.8274 8.87933 1.08015 12.8677C0.922833 12.9325 0.836465 13.0497 0.821042 13.2193C-1.30269 36.8672 7.00253 58.5487 28.9478 69.5699C29.7097 69.9524 30.524 70.2346 31.3907 70.4166C31.5511 70.4475 31.7038 70.429 31.8488 70.3611C41.0933 66.1198 48.5194 59.8828 54.1272 51.6501ZM31.5458 65.1118C51.2424 55.8904 60.2971 37.4338 57.3961 15.757C57.3818 15.6596 57.3423 15.5674 57.2815 15.4896C57.2207 15.4118 57.1406 15.3508 57.0491 15.3128L31.3468 4.80981C31.1895 4.74504 31.0322 4.74504 30.8749 4.80981L5.41325 15.2434C5.2412 15.3146 5.09176 15.431 4.98092 15.5801C4.87008 15.7292 4.80201 15.9055 4.784 16.0901C2.82683 36.5871 10.9516 55.6544 30.2086 64.774C30.4832 64.9035 30.7839 65.0238 31.1109 65.1349C31.2589 65.1842 31.4039 65.1765 31.5458 65.1118Z" fill="#F7941D"/>
<g id="Vector">
<path d="M44.4163 29.756C45.2059 28.5808 46.0233 27.4225 46.8685 26.2812C47.2633 25.7476 47.7121 25.7152 48.2149 26.1841C48.3855 26.3421 48.4934 26.5563 48.5189 26.7875C48.5444 27.0186 48.4858 27.2512 48.3537 27.4426L44.5597 32.9717C44.4548 33.1198 44.3114 33.1984 44.1294 33.2077C43.167 33.2401 42.5563 32.5599 41.9733 32.3193C40.2768 31.6222 38.588 30.905 36.9069 30.1678C36.7557 30.1 36.6801 29.9843 36.6801 29.8208C36.6986 27.2992 41.1173 29.8717 42.163 30.3112C42.1946 30.3251 42.2294 30.3296 42.2635 30.3243C42.2976 30.3189 42.3294 30.3039 42.3552 30.281C42.381 30.2581 42.3997 30.2283 42.4091 30.1952C42.4185 30.162 42.4182 30.1268 42.4082 30.0938C38.6281 17.5735 19.5885 19.3178 18.7557 32.7496C18.7464 32.9223 18.66 33.0411 18.4966 33.1059C18.04 33.2879 17.6067 33.2431 17.1964 32.9717C17.0823 32.8946 17.0252 32.7897 17.0252 32.6571C16.9049 17.1247 40.2891 14.9917 44.2034 29.719C44.2466 29.8917 44.3176 29.9041 44.4163 29.756Z" fill="#F7941D"/>
<path d="M20.4398 40.0924C19.8569 39.821 19.6918 39.9814 19.9448 40.5736C24.9742 52.4647 42.7136 50.1651 43.4446 37.1174C43.4539 36.9601 43.5325 36.8567 43.6806 36.8074C44.1217 36.6562 44.5535 36.7056 44.9761 36.9554C45.0995 37.0264 45.1704 37.1328 45.1889 37.2747C45.2815 37.9718 45.3031 38.4669 45.2537 38.7599C42.82 53.2235 22.6515 54.2229 17.8766 40.6292C17.8574 40.5764 17.8226 40.5307 17.7769 40.4981C17.7313 40.4655 17.6768 40.4475 17.6206 40.4465C17.5645 40.4455 17.5094 40.4615 17.4626 40.4925C17.4158 40.5234 17.3794 40.5679 17.3583 40.6199C16.763 42.1283 15.9379 43.4901 14.883 44.7054C14.7411 44.8658 14.5899 44.8751 14.4295 44.7332L13.6337 44.0206C13.4826 43.8849 13.4594 43.7292 13.5643 43.5533L17.4925 37.011C17.5789 36.8691 17.7023 36.7811 17.8627 36.7472C18.9592 36.4974 19.8106 37.5245 20.4815 37.8715C22.1595 38.7383 23.8545 39.5835 25.5664 40.4071C26.3021 40.7633 26.8249 41.6748 25.9134 42.1699C25.7686 42.2486 25.6073 42.2922 25.4425 42.297C25.2777 42.3018 25.1141 42.2678 24.9649 42.1977L20.4398 40.0924Z" fill="#F7941D"/>
</g>
</g>
<defs>
<clipPath id="clip0_20_3251">
<rect width="62" height="70.3284" fill="white" transform="translate(0.5)"/>
</clipPath>
</defs>
</svg>
