<svg width="42" height="49" viewBox="0 0 42 49" fill="none" xmlns="http://www.w3.org/2000/svg">
<g id="Group 462">
<g id="Vector" filter="url(#filter0_d_20_3344)">
<path d="M16.6406 22.3164V21.6951L16.2013 21.2557C15.8297 20.8842 15.4122 20.4657 15.0435 20.0356C14.8524 19.8126 14.6993 19.6145 14.5826 19.4446C14.7349 19.4307 14.9194 19.4219 15.1406 19.4219C15.2613 19.4219 15.4428 19.4523 15.7629 19.5652C15.9836 19.6431 16.1877 19.7279 16.4396 19.8324C16.5921 19.8957 16.7621 19.9663 16.9639 20.047C17.9609 20.4458 19.263 20.8867 21 20.8867C22.737 20.8867 24.0391 20.4458 25.0361 20.047C25.2379 19.9663 25.4079 19.8957 25.5604 19.8324C25.8123 19.7279 26.0164 19.6431 26.2371 19.5652C26.5572 19.4523 26.7387 19.4219 26.8594 19.4219C27.0806 19.4219 27.2651 19.4307 27.4174 19.4446C27.3007 19.6145 27.1476 19.8126 26.9565 20.0356C26.5878 20.4657 26.1703 20.8842 25.7987 21.2557L25.3594 21.6951V22.3164C25.3594 30.0729 28.4712 35.872 31.5056 40.0444C32.6603 41.632 33.829 43.0156 34.7888 44.1519C35.0773 44.4934 35.3468 44.8125 35.5915 45.1081C35.7723 45.3266 35.9374 45.5296 36.087 45.7188H5.91298C6.06256 45.5296 6.22769 45.3266 6.40852 45.1081C6.65316 44.8125 6.92273 44.4934 7.21115 44.1519C8.17096 43.0156 9.3397 41.632 10.4944 40.0444C13.5288 35.872 16.6406 30.0729 16.6406 22.3164ZM14.3149 18.9502C14.315 18.9502 14.3152 18.9511 14.3155 18.9529L14.3149 18.9502ZM27.6851 18.9502C27.6851 18.9502 27.6849 18.9511 27.6845 18.9529L27.6851 18.9502Z" stroke="#0196BD" stroke-width="3" shape-rendering="crispEdges"/>
</g>
<g id="Vector_2">
<path d="M21.6841 0.980005C22.0495 0.837903 22.4397 0.770574 22.8315 0.782008C23.5936 0.804245 24.317 1.1227 24.8481 1.66973C25.3792 2.21676 25.6761 2.94928 25.6758 3.7117C25.6758 4.4887 25.3671 5.23388 24.8177 5.7833C24.2683 6.33272 23.5231 6.64138 22.7461 6.64138C21.9691 6.64138 21.2239 6.33272 20.6745 5.7833C20.1251 5.23388 19.8164 4.4887 19.8164 3.7117C19.8162 3.31967 19.8948 2.93159 20.0473 2.57046C20.1998 2.20933 20.4233 1.88248 20.7045 1.60929C20.9856 1.33609 21.3188 1.12211 21.6841 0.980005Z" fill="#0196BD"/>
<path d="M17.2896 8.30422C17.655 8.16212 18.0451 8.09479 18.437 8.10623C19.1991 8.12847 19.9225 8.44692 20.4536 8.99395C20.9847 9.54098 21.2816 10.2735 21.2813 11.0359C21.2813 11.8129 20.9726 12.5581 20.4232 13.1075C19.8737 13.6569 19.1286 13.9656 18.3516 13.9656C17.5746 13.9656 16.8294 13.6569 16.28 13.1075C15.7305 12.5581 15.4219 11.8129 15.4219 11.0359C15.4217 10.6439 15.5002 10.2558 15.6528 9.89468C15.8053 9.53355 16.0288 9.2067 16.3099 8.93351C16.5911 8.66031 16.9242 8.44633 17.2896 8.30422Z" fill="#0196BD"/>
<path d="M25.1448 11.1349C25.3275 11.0639 25.5226 11.0302 25.7186 11.0359C26.0996 11.047 26.4612 11.2062 26.7268 11.4798C26.9923 11.7533 27.1408 12.1195 27.1406 12.5008C27.1406 12.8893 26.9863 13.2618 26.7116 13.5366C26.4369 13.8113 26.0643 13.9656 25.6758 13.9656C25.2873 13.9656 24.9147 13.8113 24.64 13.5366C24.3653 13.2618 24.2109 12.8893 24.2109 12.5008C24.2109 12.3047 24.2501 12.1107 24.3264 11.9301C24.4027 11.7496 24.5144 11.5861 24.655 11.4495C24.7956 11.3129 24.9621 11.2059 25.1448 11.1349Z" fill="#0196BD"/>
<path d="M22.2152 15.5294C22.3978 15.4584 22.5929 15.4247 22.7889 15.4304C23.1699 15.4416 23.5315 15.6008 23.7971 15.8743C24.0626 16.1478 24.2111 16.5141 24.2109 16.8953C24.2109 17.2838 24.0566 17.6564 23.7819 17.9311C23.5072 18.2058 23.1346 18.3601 22.7461 18.3601C22.3576 18.3601 21.985 18.2058 21.7103 17.9311C21.4356 17.6564 21.2813 17.2838 21.2813 16.8953C21.2812 16.6993 21.3204 16.5052 21.3967 16.3247C21.473 16.1441 21.5847 15.9807 21.7253 15.8441C21.8659 15.7075 22.0325 15.6005 22.2152 15.5294Z" fill="#0196BD"/>
</g>
</g>
<defs>
<filter id="filter0_d_20_3344" x="0.421875" y="17.9219" width="41.1562" height="36.2969" filterUnits="userSpaceOnUse" color-interpolation-filters="sRGB">
<feFlood flood-opacity="0" result="BackgroundImageFix"/>
<feColorMatrix in="SourceAlpha" type="matrix" values="0 0 0 0 0 0 0 0 0 0 0 0 0 0 0 0 0 0 127 0" result="hardAlpha"/>
<feOffset dy="4"/>
<feGaussianBlur stdDeviation="1.5"/>
<feComposite in2="hardAlpha" operator="out"/>
<feColorMatrix type="matrix" values="0 0 0 0 1 0 0 0 0 1 0 0 0 0 1 0 0 0 0.37 0"/>
<feBlend mode="normal" in2="BackgroundImageFix" result="effect1_dropShadow_20_3344"/>
<feBlend mode="normal" in="SourceGraphic" in2="effect1_dropShadow_20_3344" result="shape"/>
</filter>
</defs>
</svg>
